<?xml version="1.0" encoding="utf-8"?>
<!-- Generator: Adobe Illustrator 24.1.2, SVG Export Plug-In . SVG Version: 6.00 Build 0)  -->
<svg version="1.1" id="Ebene_1" xmlns="http://www.w3.org/2000/svg" xmlns:xlink="http://www.w3.org/1999/xlink" x="0px" y="0px"
	 viewBox="0 0 451.6 366.4" style="enable-background:new 0 0 451.6 366.4;" xml:space="preserve">
<style type="text/css">
	.st0{fill:#E3E3E3;}
	.st1{opacity:0.2;fill:#B2B2B2;enable-background:new    ;}
	.st2{opacity:0.5;fill:#B2B2B2;enable-background:new    ;}
	.st3{fill:#C34652;}
	.st4{fill:none;}
	.st5{enable-background:new    ;}
	.st6{fill:#807877;}
</style>
<g>
	<path class="st0" d="M319.1,263.4l1.7-0.9l0.1,0.8l1,0.8l0.6-2.6v-0.8l1.6-1.9l1.8-0.1l0.1,0.9l1.6-0.1l1.7-0.1l1.6-1l-0.1-0.9
		l-0.9-0.8v-0.8l0.8-0.1l-0.1-0.9l-0.8,0.1H328l-1.7,1.1l-0.6,0.9l-0.8,0.9l-3.4,0.2l-0.1-0.9l-1-0.7l-1.7,0.9l-0.8-0.8l-0.1-0.9
		l-0.9,0.1l-0.8,0.1v-0.8l-0.1-0.8l-0.9-0.9l-1-0.8l-0.6,1.8l-0.8,0.8l-0.1-0.8l-0.9-0.9l-1,0.1l-0.1-0.8h-0.8l0.1,1.8v0.8l-0.8,0.8
		l-1.6,1.1l0.1,0.8l-1.8,0.1l-0.8,0.9l0.1,0.9l-1.6,1l0.1,0.9l1.6-1l0.9-0.1l0.9-0.1l1,0.8l1.7,0.7l0.8-0.9l0.1,0.8l0.9,1.6
		l-0.7,0.9l0.9,1.6l-0.7,1l0.1,0.8l2.6-0.2l0.9,0.8l2.6-1.1l0.6-2.6l0.8-0.9L319.1,263.4z M301.9,30.9l1.8,0.7l0.1,0.9l1.9,0.7
		l1.7,0.7l0.8-0.8l-0.9-0.8l0.8-1.8l-0.1-0.9l-0.1-0.9l-1-1.5l-1.6,0.1l-1.9-0.7l-0.9,0.1l0.1,0.8l-0.6,1.6L301.9,30.9z
		 M451.5,140.7l-0.9-1.6l-1.9-1.6l-0.8,0.1l-0.8,0.8l-1.8,1.1l-2.5,0.2l-1.6,0.1l-0.9,0.1l-2.7-0.8l-0.1-0.8l-1-1.7h-0.8l-0.8,0.1
		l-1.7,1.9l-0.8,0.8l-1.6,0.1L429,138l-1.9-2.6l-0.1-1.7V133l-1-0.8l-0.9-0.8l-0.1-0.8l-1.9-1.7l-0.2-3.4l0.7-2.6l-0.9-0.8l-1.7-0.8
		l-0.2-2.6l-0.1-1.7l-0.8,0.9l0.1,0.9l-1.4,3.6l-1.6,2.7l-2.5,1.1l-2.5,1.1l-1.6,0.9l-2.8-3.3l-0.2-2.6l1.7-1l2.4-1l0.9,0.8l1,0.8
		l0.7-0.9l-0.1-1.8l-0.1-0.9l0.8-1.8l0.7-1.6l-0.9-1.7l-1.8-0.6l-0.1-0.9l-0.9,0.1l-0.8,1l-1.7,0.1l-0.8,0.1l-0.9,0.8l-3.3,2
		l-1.7,0.1l-1-2.4l-1.9-2.6l-0.9-0.8l0.8-0.9l0.9-0.1l-0.2-2.6l-1.1-2.6l-2-2.4l0.8-1.8l0.8-0.9l0.9-0.1l-0.1-0.9l-1-1.5l-0.1-0.9
		l-0.2-2.6l-0.1-0.9l-1.8,0.1l-0.1-1.6l-0.9-1.7l-0.9-0.8l-0.9-1.7l-0.9,0.1v-0.8l-0.9-0.8l-0.8,0.9l-1-2.5l-2-3.4l-1-3.2l-1-1.7
		l-2.7-1.6l-0.2-2.6l-0.9-0.8l-1.8-1.7l-0.1-1.6l-1-1.8l-0.9-0.8l-1-0.8l-1.1-3.3l-0.8-0.8l-1.8-0.8l-0.1-0.9l-1.7-0.8L371,56
		l-1.2-4.3l-0.9,0.1l-0.1-1.7l-1-1.6l0.1,0.8l-0.9-1.6l-0.1-1.8l-0.9-0.7l-1-1.7l-1-1.4l-1.8,0.1l-0.1-0.9l-0.1-0.8l1.8-0.1l0.9-1
		l-0.2-3.4l-0.2-2.5l-0.1-1.7l0.8-0.1l0.6-2.6l-0.3-3.5l-1.9-4.1l0.7-1.8l1.5-1.9l0.8-1.8l-1-2.4l-0.2-2.6L364,9.4l-1.7-0.9l0.7-1.8
		h-0.8l-1-0.7l-0.9,0.1l-0.7,1.7h-0.8l-0.9-1.6l-1.1-0.9H356l-0.9-0.6L355,3.2l-0.9,0.1l-1.8,0.1l-0.7,0.9l-0.9,0.1l-0.8,0.1
		L349,2.6l-1-0.7l0.9-0.9l-0.1-1l-1,0.1l-3.4,0.2l-3.2,2.1l-1.7,0.9L337,3.5l-1.8,0.1l0.9,0.9l0.2,2.3l-0.8,1l0.9,0.8l1,0.8l0.9,1.8
		l1.8-0.1l0.9,0.8l-1.6,1.8l-0.6,2.6l0.8-0.1l1,0.9l-1.6,1.8l-1.7,0.1l-1.9-1.5l0.8-1l-1-1.7l-0.9-0.8l-0.8,0.9l-0.8,1.8l0.1,0.9
		l0.1,1.6l0.1,0.9l-0.7,1.8l-2.6,0.2l-1.8,0.1l0.1,0.9l-0.6,3.3l0.1,0.9l-1.5,1.9V30l0.1,0.9L325,30l-0.8-0.8l-1.5,2.7l-0.1-1.8
		l-0.1-1.7l0.7-0.9l-0.8-0.8l-0.1-1.5l-0.9,0.1l-0.9,0.1l-0.8-0.9l-0.8,2.5l0.9-0.1l0.1,1.8l-0.9,0.1l-0.1-0.9L318,28l0.1,0.9
		l0.1,0.9l1.9,2.5l-1.7,0.1l-0.9-0.8l-0.1-0.9l-0.9,1l-0.8,1.7l-0.8,0.1l-1.5,3.7l-0.9,0.9l-0.8,0.9l0.9,0.8l1,0.8l-1.6,1.9
		l-0.9,0.9h-0.7l1.8,1.6l0.1,1.6l0.1,1.7l0.1,0.9l-0.9,0.8l-1.5,1l-2.6,1.1l-0.7,0.9l-2.9-1.6l-1.7-0.8l-1.7,0.1l-1.8-0.6l-0.1-0.9
		l-0.1-1.7v-0.6l2.6-1.1L301,45l1.7-0.1l0.7-1l-1.7-0.7l-0.8-0.7l-0.9-0.8l-1.8,0.1l-0.9-1.7l-0.8,0.1l-2.6,1l-1.7,0.1l0.1,0.9
		l-1.8,0.1l1.9,0.7l0.9,0.8l0.9,0.8l0.1,0.9l0.1,1.8l0.9,0.6v0.8l0.8-0.1l-0.6,1.8l0.1,0.8l0.2,2.7l1.7-0.1l1.6-0.1l0.8,0.8L300,55
		l1.1,0.9v0.8l1,0.9l-0.8,0.9l-0.9,1.8l2,1.6l0.9,0.8l-1.6,1l-1.1-0.8l-1.5,1l-1.8,0.1l0.9-1.8l0.8-0.1l-2-1.6l-0.7,0.9l-1.8,0.1
		l-1.8-0.8l0.1,0.9l-0.8,1.8l-0.7,2.6l-1.6,0.9l-0.9,0.9l0.1,1.8l-0.7,1.7l-0.8,1l-0.7,1l0.8,0.7l2.8,1.6l1.7,0.8l0.1,0.8l1.9,1.6
		l1.1,2.5l0.1,0.8l-1-0.7l-0.9,0.1l-0.8,0.9l-0.8-0.8l-1.8,0.9l-2.5-0.6l-1.8-0.8l-1.8,0.1l-0.1-0.8l-0.8,0.1l-2.6,0.2l-2.6-0.6
		l0.1,1.6l-0.9,1l0.1,0.8l1.9,0.8l0.8,0.8l2.7,0.7l-0.1-0.9l0.9-0.1l1.9,1.5l1.1,3.4l-1.7,1.1l-0.8,0.9l-1.8-0.7l-1.8,0.1l-0.8,0.1
		l-1.9-1.6l-0.9-0.8l-0.9-0.8l-0.8,1.8l-0.9-0.8l-2.6-0.7l-0.1-1.6l-0.9,0.1l-0.1-0.9l-0.1-0.8l-0.9-0.9v-0.8l-1.1-1.7l-0.9-0.8
		l-0.1-0.9l0.8-0.9l-0.2-1.7l-0.9-0.9v-0.8l-0.9-0.7l-0.8-0.9l-2.7,0.2l-0.9,0.1H261l-1.1-0.9l1-0.1l-0.1-0.8l-1,0.1H259l-0.1-0.9
		l-1.8,0.1l-0.8-0.8l-1.2-1.6l0.9-1.6l-1,0.1l-0.8-0.8l0.8-0.1l1-0.1h0.8l1.9,1.6l0.8,0.7l1-0.1v-0.8l1.7,0.6l1.8,0.7l1-0.1l0.8-0.1
		l0.9,0.8l1.8-0.1l1.8-0.1l2.6,0.7l0.8-0.9l0.8-0.9l0.9,0.8l0.1,0.9l1.8-0.1l1.6-0.1l1.8-0.1l1.6-1.9l0.8-0.1l1.7-0.9l0.8-0.8v-0.8
		l0.9-0.9l0.8-0.1l-0.1-0.9l-0.1-0.9L288,63l0.6-3.5l-0.9-1.7l-0.1-1.7l-0.9,0.1l-0.1-1.7l-0.7,0.9l-1-0.7l-0.1-1.8l-1.6,0.1
		l-0.9,0.1l-0.1-0.9l-2.6-0.6l-1.7,0.9l-0.8-0.7l-0.9-0.9l-1.8-0.8l0.1,0.9l-0.9-0.8l-1.9-1.3l-2.5,0.2l-2.8-1.6l-2.5-0.8l-1.8,1.1
		l-6,0.4l-0.8,0.1l-1.1-0.9l-1.6,1l-0.1-0.9l-0.8-0.8l-0.8,0.9l-1-1.6l-0.8,0.1l-1-1.6h-0.7l-0.8,1.8l-0.9,0.1l-1-1.7h-0.8l0.2,2.6
		l-1.8,0.1l-0.9-0.8l-1.4,0.1l0.5-2.7l-0.2,0.1l-1.8,0.1l-0.9,0.1l0.8-0.9l-0.1-1.8l-0.9-0.8l0.9-0.1l0.8-0.9l-0.1-0.9l-0.1-0.9
		l-0.9,0.1l-0.1-0.9l-1.8,0.1l-1.6,1l-0.1-1.8l-1.8,0.1l-0.9-0.8l-1.6,1.9l0.1,0.9l-0.8,0.9l-1-1.7l-0.1-0.9l0.8-0.9l-0.1-0.8
		l-0.1-1.8l-0.9,0.1l-1.6,1.9l0.1,0.8l-1.7,1l0.2,2.6l0.1,0.9l-0.9-0.8l-0.1-0.9l-0.9-0.8l-0.1-0.9l-0.1-0.9l-0.1-0.8l-0.9,0.1
		l0.8-0.9l-0.9-0.8l-2.5,1.9l-0.9-0.8l-0.8,0.9l0.1,0.8l1.8,0.8l-2.5,1.1l-0.9-0.8l-0.8,0.9l0.1,1.8l-0.9,0.1l0.9,0.8l-1.6,1.8
		l-1-1.6l-0.8,0.9l0.1,0.8l0.1,0.9l-0.8,0.9l-0.9-0.8l-0.9,0.1l0.1,0.9l-0.9-0.8l-0.9,0.1l-0.8,0.9l0.1,0.8l-0.9,0.1l-0.8,1l0.1,1.7
		l0.9,0.8l0.1,1.8l-0.9-0.9l-0.9-0.8l-0.9,0.1l-0.7,1.8l-1.1-1.7l-0.8,0.9l0.1,1.8l0.9,1.7l0.1,0.8l-0.9-0.8l-1-1.7l0.1,1.8
		l-0.8,1.8l-0.9-0.8l-0.1-1.6l-0.8,0.9l0.2,2.6h-0.8l-0.9,0.1l-0.8,0.9l0.9,0.9l-0.8,0.9l-0.8,0.9l0.1,0.9l0.9,0.8l-0.8,1l-2.6,0.2
		l-0.1-0.9l-0.8,1l0.1,0.8L192,67l0.1,0.8l-0.7,1.8l-0.1-1.7l-0.1-1.6l-0.1-0.9l-0.8,1l-0.9,0.1l-0.9,0.1l-0.8,0.9l0.9-0.1l0.9,0.8
		l0.1,0.9l-0.9-0.9l-0.8,1l-1-0.9l-0.9,0.1l0.1,1.7l-0.8,1l2.5-1.1l0.9,0.9l0.1,0.8l-1.8,0.1l-0.8,0.1l-0.8,0.9l0.1,0.9l1.7-0.1
		l0.1,1.7l-0.9,0.1l-0.8,0.1l-0.8,0.9l-0.8,0.9l-1.8-0.8l-0.8,0.9l0.1,0.9l0.1,0.8l-0.8,0.1l-0.8,0.9l1,0.9l-0.8,0.9l-1.8,0.1
		l0.9,0.8l0.9,0.8l0.8-0.9l0.1,1.7l-1.8,0.1l-0.9,0.1l0.1,0.9l0.9,0.8l-0.8,0.9l-0.9,0.1l-0.8,1l-0.8,0.9l0.9,0.9l0.1,0.8l-0.8,0.9
		l-0.9-0.8l-0.1-0.8l-0.8,1.7l0.1,0.9l0.9-0.1l0.1,1.7l-0.9,0.9l-0.8,0.1l0.1,1.7l-0.8,0.9l-0.9,0.1l0.1,0.8l0.9-0.1l0.1,0.9
		l0.1,0.9l-0.8,0.9l-1.8-0.7l-0.1-0.9l-0.9-0.9l-0.8,1l-0.8,0.9l-0.9,0.1l-0.8,0.1l0.1,1.7l-0.9,0.9l-0.6,1.8l-0.9,0.1l-0.9,0.1
		l0.1,0.9l0.1,1.6l-0.9-0.8l-0.8,0.9l-0.8,1l-0.9-0.9l-0.8,1l-0.9,0.9l-0.8,0.1l0.1,1.8l-0.9-0.8l-0.9,0.1l0.9,0.8l0.1,0.9l-0.9,0.1
		l-0.9-0.8l-0.8,0.9l-0.9,0.1l-0.9,0.1l-0.8,0.1l0.1,0.9l0.9,1.6l-0.8,0.1l-0.9,0.1l-1.8-0.8h-0.8l-0.8,0.9l0.9,0.8l0.1,0.9
		l-0.9,0.1l-1.8,0.1l-0.8,1.8l-0.1-1.8l-0.8,0.1l-0.8,0.9l-0.9-0.8l-0.9,0.1l-0.8,0.1l0.1,0.9l0.1,0.9l0.9,0.8l0.9-0.1l0.1,0.9
		l-0.9,0.1l-0.8,0.9l-1.8,0.1l0.1,0.8l1,0.9l0.1,0.8l-1.8-0.7l0.1,0.8l0.1,0.9l0.9,1.6l1.8-0.1l0.1,0.9l-0.9,0.1l-1.8-0.8l0.1,0.9
		l0.1,0.8l0.9,1.6l1,0.8l-0.9,0.9l-0.9-0.8l-0.8,0.9l0.1,0.9l1.8,0.8l-0.8,0.1l-0.9,0.1l0.1,0.9l0.9,0.8l0.9,0.8l1.8-0.1l1.7-0.9
		l-1.6,1.9l-0.8,0.9l-0.9,1l1.9,1.6l-0.9,0.1l-0.9,0.1l-0.8,0.9l-0.9-0.8l-0.8,0.1l-0.8,1.7l0.1,0.9l-0.7,1.8l0.9,0.9l1.6-2.8
		l1.7-0.1l0.1,0.8l0.1,1.8l-0.8,0.1l0.1,1.7l-0.8,0.9l-0.1-0.8l-0.8,0.9l0.1,0.9l0.1,1.8l0.1,0.9l1.8,1.6l2.7,0.7l-1.7,1.8l1.9,0.8
		l0.8-1l0.1,1.8l2.6-0.2l1.8-0.1l1.7-0.9l0.1,0.8l1.6-0.9l0.9-1l0.7-1.8l0.9-0.9l2.6-1l-0.1-0.8l0.8-0.9l1.8-0.1l0.1,0.9l0.9,0.8
		l1.7-0.9l-0.1-1.8l1.6-1.9l-0.1-1.8l-0.9-0.7l1.6-1.9l0.8-0.9l0.8-1l0.9-0.1l0.1,1.8l-0.8,0.9l-0.9,0.1l0.1,1.7l0.9-0.1l2.6,1.6
		l-1.4,1.9h0.3h-0.4l0.1,1.8v0.8l0.1,1.8l0.1,0.9l0.1,0.8l0.1,0.9l0.1,0.8l0.9-0.1l0.1,1.8l0.7-0.9l1,0.8l-0.8,1.8l0.1,0.8l0.1,0.9
		l0.1,0.8l0.1,1.8l0.1,0.8l1,0.8l-0.9,0.9l0.1,1.7l1,0.8l0.8-0.1l0.2,2.6l1.9,0.7l0.1,0.9l0.1,0.9l-0.9,0.1l0.1,0.9l-0.9,0.9
		l0.1,0.9l0.1,0.9l1,0.8l0.1,0.9l0.9,0.7l0.1,0.9l0.1,1.8l-0.8,0.9l0.9,0.8l0.8-0.9l0.9,0.8l2.5-1l0.9,0.8l0.8-0.1l0.9-0.1l-0.1-0.8
		l-0.1-1.8l-0.1-1.8l0.8-0.9l0.9-0.1l0.9-0.1l0.8-1L184,178l0.8-0.9l1.7-1l1.8,0.8l0.1,0.8l0.9-0.1l1.7-0.1l0.9-0.1l-0.1-1.7
		l-0.1-0.9l1.5-2.7l-0.1-1.7l0.8-0.9l0.8-1l-0.1-0.8l-0.9,0.1l0.8-1.8l0.8-0.9l-0.9-0.8l-0.1-0.9l-0.1-0.8l0.8-1l-0.1-0.9l0.8-1.8
		l-0.1-0.8l-0.1-0.9l-1-1.6l1.7-1l-2.7-0.6l0.8-1l1.8,0.8l0.9-0.1l1.6-1.9l-0.1-0.9l-0.1-0.9l0.9-0.1l0.9-0.1l0.9,0.8l0.8-1.8
		l0.8-0.9l1.7-1l-1.8-0.8l-0.1-0.9l0.9-0.9l0.8-0.1l1.6-2.6l-0.9-0.9l-0.1-1.7l-1.6,0.9l-0.1-0.8l-0.1-0.9l-1-0.8l-0.9-0.8l-0.1-0.9
		l-0.1-0.9l-1.7,1l-0.9-0.8l-0.9-0.9l-0.1-1.7l-0.9-0.8l-0.1-0.9l-0.9-0.8l0.8-0.1l0.8-0.9l-0.1-1.8l-0.1-0.9l-0.1-1.7l0.9-0.1
		l-0.9-0.8l0.8-1l-0.1-1.7l0.8-0.9l-0.1-1.8l-2.6,0.2l-0.1-1.7l0.8-0.9l1.8,0.8l0.8-0.9l0.9-0.1l0.8-0.9l0.9-0.1l1.6-1l-0.9-0.8
		l1.6-1.9l-0.9-0.8l1.8-0.1l0.8-1.7l0.9,0.8l1.7-1l-0.9-0.8l0.8-0.9l0.9-0.1l1.7-1l-0.1-1.7l-0.1-0.8l-0.1-0.8l0.8-1.8h0.8l0.8-1.8
		l0.8-0.9l-0.9-0.8l-0.1-0.9l-0.1-1.8l-0.1-1.8l0.8-0.9l-0.1-0.9l-0.1-0.9l0.8-0.9l1.8-0.1l-0.1-1.8l-0.1-1.7l-0.1-0.8l0.8-0.1
		l0.9,0.8l1.6-1.9l0.9,0.9l0.9-0.1l0.9-0.1l0.9,0.8l0.8-0.9l-0.1-1.8l-0.9-0.8l-0.9-1.6l-0.1-0.9l-0.1-1.8l-0.1-1.8l0.8-0.9
		l-0.9-0.8l-0.1-0.9l-0.9-0.8l-0.1-0.9l-0.1-0.8l-0.1-0.9l0,0l0.1,0.9l0.1,0.8l0.1,0.9l0.9,0.8l0.1,0.9l0.9,0.8l-0.8,0.9l0.1,1.8
		l0.1,1.7l0.1,0.9l0.9,1.6l0.9,0.8l0.1,1.8l0.9-0.1l0.9,0.8l1.8-0.1l0.1,0.9l0.9,0.7l0.1,0.9l0.1,0.9l0.1,1.8l0.1,0.9l0.9,0.8
		l0.1,0.9l-0.9,0.1l-0.8,0.1l-0.9,0.1l0.1,0.9l-1.6,2.8l0.1,0.8l-0.8,1.8l-0.8,1l-1.6,1.9l0.1,0.8l0.1,0.8l-1.7,1.1l-0.8,0.9
		l-0.8,0.9l0.1,0.9l0.1,1.7l-1.6,0.9l-1-0.7l-0.9,0.1l0.1,1.7l-1.6,1.9l0.1,1.8l0.1,0.8l0.9,0.8l0.1,1.7l-0.8,1l0.1,0.8l1.8,0.8
		l0.1,0.8l0.1,1.8l0.2,2.5l0.1,1.8l-1.7,1l0.1,1.8l0.1,0.9l1.9,2.4l2.6-0.2l0.9,0.9l1.8-0.1l0.9-0.1l1,1.7l0.1,1.6l0.9,0.9l0.9,0.8
		l2.6-0.2l0.9-0.1l0.8-1.8l0.8-0.9l1,1.7l0.8-1l0.8-0.9l1.7-0.9l2.5-1l0.9-0.1l0.9-0.1l-0.1-0.9l-0.1-0.9l0.8-0.9l1,1.7l0.8-1
		l1.7-0.9l0.8-1.8l0.9,0.8l1.8-0.1l0.8-0.1l0.8-0.9l0.9-2.1l0.1,1.9l1.7-0.1l1.7-1l0.7-0.1l0.1,0.9l-0.6,1.8l0.1,0.9l1.6-0.1
		l0.9,0.9l1.9,0.7l0.7-0.9l1.7-0.1l1-0.1l0.8,0.8l0.9-0.1l0.1,1.7l-0.9,0.1l-1.8,0.1l-1.7,0.1l-2.5,0.2l0.1,0.9l-0.8,0.1l-0.1-0.9
		l-0.9,0.9v0.8l0.1,0.9l0.1,0.9h-0.7l-1-1.7l-0.8,0.9l0.1,0.9l0.1,0.9l0.1,1.7l-0.8,0.1l-3.5,0.2l-0.8,0.1l-0.9-0.8l-0.8,0.1l-1.7,1
		l-0.1-0.9l-1.8,0.1l-0.8,0.1l-0.7,0.1l-0.9,0.1l-0.8,0.9l-0.8,0.1l-1.7,0.1l-0.9,0.1l-0.8,0.1l-0.9,0.1l0.1,0.8l0.1,0.9l-0.8,0.1
		l-0.9,0.1l-0.9,0.1l-0.8,0.9l0.1,0.8l0.1,0.9l0.1,0.9l1.8-0.1v0.7l0.1,0.9l-0.9,0.1v0.8l0.2,2.7l1.9,1.5h0.8l-0.1-0.8l0.9-0.9
		l0.8-0.1l1,0.8l-0.8,1.8l0.1,1.7v0.6l-0.9,0.3l0.1,0.9l0.1,0.9l0.1,0.8l0.1,1.7l0.1,0.9l0.1,1.8l-0.8,0.9l-0.8,0.9l-0.9,0.1
		l-1.9-1.6l-0.9-0.8l-0.1-1.8l-1.9-1.6h-0.8l-0.9-0.8l-0.1-0.9l-1.7,0.1l-1.7,1l-0.9,0.9l-0.8,0.1l-0.6,1.7l0.1,1.8L221,166
		l-0.8,1.6l-0.5,5.3l0.2,2.6l0.1,0.9l0.1,0.8l1.1,2.6l0.2,2.6l1.8-0.1v0.8l0.8,0.8l0.8-0.1l1,0.8h0.4l-0.3,0.4l-1.7,0.1l-1.1,0.1
		H222l-0.3-0.7l-0.8-1l-1.3,0.3l-0.9,0.1l0.1,0.8l0.9-0.1l-0.8,1.8l-0.8,0.9l-1.7,0.1l-0.1-0.9l-0.1-0.8l-0.1-0.9l-2.5,1.9l0.1,0.9
		l-1.4,1.3l1.6,0.4l0.1,0.8l-0.8,1l-0.8,0.1l0.1,0.9l0.1,0.8l0.1,0.9l-1.8,0.1L210,194l-0.1-0.9l-0.9,0.1l-2.5,1l-1-0.8l-0.1-0.8
		l-0.1-0.9l-0.1-0.9l-0.9-0.8l-0.1-0.9l-2.6,0.2l-0.8,0.9L200,190l-1.7-0.8l-0.8,0.9l-0.9,0.1l0.1,0.8l-0.9,0.1l-0.8,1l-0.9-0.9
		l-0.7,1l-0.8,0.9l-0.8,0.9l-0.9,0.1l-0.8,0.9l-0.9,0.1l0.1,0.9h-0.8l-1.7,0.1l-0.9,0.1l-1.7,1l-0.8,1.8l-0.8,0.9l0.9,0.8l0.1,0.9
		l-0.2-0.1l-1.3,0.1l-1-1.2v0.7l-0.1-2l-2.6,0.2l-0.1-1.8l-0.1-1.8l-1.7,0.1l-0.9,0.1l-0.1-0.9l-0.9-0.8l-0.1-0.9l-0.9,0.1l-0.8,0.9
		l-0.9,0.1l-0.8,0.1l-1.7,0.9l-1.7,1l-0.9-0.8l0.1,0.9l-0.9,0.1l-1.8,0.1l-0.9,0.1l-1.8-0.8l0.9-0.1l-0.1-0.8l0.8-0.1l-0.1-0.9
		l-0.1-0.9l-0.8,0.1l-0.9,0.1l-0.8,1l-1-1.7l-0.8,0.1l-0.9,0.1l-0.1-0.9l-0.8,0.1l-0.9,0.1l-0.1-0.9l0.9-0.9l-1-0.8l-0.9-0.8
		l-0.3-0.2l0.1-0.1l0,0l0.4-0.5l0.9-0.1l-0.9-0.8l-1-0.8l0.9-0.9l0.9-0.1l-0.9-0.8l-0.1-0.8l0.9-0.1l-0.1-0.9l-0.1-0.8l0.9-0.1
		l0.7-0.9l0.9-0.1l-0.1-0.9l1.6-1l0.8-1.8l-0.9-0.8l0.8-0.9l0.9-0.1l0.1,0.9l0.9-0.1l0.8-0.9l-0.1-0.9l-0.1-0.9l-0.9-0.8l-0.9,0.1
		L160,173v-0.8l-0.9,0.1l-0.1-0.9l0.8-0.9l0.9-0.1l-0.9-0.8l-0.1-0.9l-0.9,0.1l-0.8,0.1l0.1,0.9l-1.8,0.1l-0.8,0.1l-0.8,0.9l0.9,0.8
		l0.1,0.9l-0.9-0.8l-0.8,0.9l-0.1-0.9l-0.1-0.9l-0.9,0.1l-0.7,0.9l0.1,0.9l-0.9,0.1l-1-0.8l-0.8,0.1l-0.1-0.9l-0.9,0.1l0.1,0.9
		l-0.8,0.9l0.1,0.9l0.1,1.7l0.1,0.9l0.1,0.9l0.1,0.9l0.1,0.8l0.1,0.9l-0.8,0.9l0.9,0.8l0.9-0.1l0.1,0.9l0.9,0.8l0.1,0.9l0.1,0.8
		l0.1,1.7l0.1,0.8h-0.2l0.1,1.8l0.1,0.9l0.9,0.8l0.1,0.9l-1.7,1l-0.8,0.1l0.1,0.9h0.8l0.1,0.8l0.1,0.9l1.8,0.8l-0.8,0.9l0.9,0.8
		l-1.8,0.1l-1.7,0.1l0.1,0.9l0.1,1.8l0.1,0.9l-0.8,0.9l0.1,0.8l-1-1.6l-0.1-0.9l-0.1-0.9L146,200l0.1,0.9l-0.8,0.1l-0.1-0.9l0.8-0.9
		l-1.8-0.8l-1.7,0.1l-1.8,0.1l-0.9,0.1l0.1,0.9l-0.8,0.9l0.1,0.9l0.9-0.1l0.1,0.9l0.9,0.8l-0.1,0.1l-0.9-0.8l-0.9,0.9h-0.8l-0.3-3.4
		l-0.9,0.1l-0.9,0.1l-0.7,1l-1.7,0.9l-0.1-0.8l-0.1-0.9l-0.9,1H132l-0.9,0.1l-1.7,0.9l-0.8,0.9l0.1,0.8l0.1,0.9l0.1,0.9l0.1,0.9
		l0.1,1.8l-1.6,1.8l-0.9,0.1l-0.9,0.1l-0.1-1.7l0.8-1l-0.9,0.1l0.8-0.9l0.8-0.9l-0.1-0.9l-0.9-0.8l-1.7,0.1l-0.8,1.8l0.1,1.7l-0.8,1
		l0.1,0.8l-0.9,0.1l0.1,0.9l-0.8,0.9l-1.8,0.1l0.1,1.8l0.9-0.1l0.1,0.8l-1.6,1l-0.1-1.7l-0.9,0.1l0.1,0.8l0.1,0.9l0.1,1.7l0.9-0.1
		l0.8,0.8h-0.7l-0.8,0.9l0.1,0.9l-1.8,0.1l-0.9,0.1h-0.8l-0.1-0.9l-0.9-0.8l-0.9,0.1l-0.1-0.9l-0.9,0.1l-0.8,1l-0.9-0.9l0.1,0.9
		l-1.6,0.9l0.1,0.9l0.1,0.9l0.1,0.6l-0.1-0.1l-0.1-0.8l-0.1-0.9L109,219l-1.8,0.1l-0.9,0.1l-0.9,0.1l-0.9,0.1l-0.8,0.1l-0.8,0.9
		l0.1,0.9l0.1,0.8l-0.8,0.9l0.1,0.9l0.1,1.8l0.1,0.9l-0.9,0.1l-0.9,0.1l-0.8,0.9l-0.9,0.1l-1.6,1l-1.7,1l-1.8,0.1l-1.7,0.1l0.1,0.9
		l0.9-0.1l1.8,0.7L96,232l-0.9,0.1l0.1,0.9l-1.8-0.8l-1.8,0.1l-1.7,0.1l-0.1-0.9l-1.8,0.1l-1.7-0.7l-1.8-0.8l0.1,0.9l-1.8-0.8
		l0.8-0.9l-1-0.8l-0.1-0.8l0.8-0.9l-0.9,0.1l-0.8,0.1l-0.9-0.8h-0.8l0.1,0.9l-0.9,0.9l0.1,1.7l0.1,0.8l1,1.7l-0.9,0.9l0.1,0.9v0.8
		l1,0.9l0.1,0.8l-1.8,0.1l-1-0.8l-0.8,0.1l-0.8,0.1l0.8-1l-1.7,0.1l-1.8,0.1l-0.9-0.7l0.1,0.8l-1.7,0.1v-0.8l-0.1-1.8l-0.9,0.1
		l-0.8,0.1l-0.1-0.8l-1.8-0.8l-0.8,1l0.1,0.8l-1.7,0.1l-0.1-0.8l-1.8,0.1l-0.9,0.1l-0.9-0.9l-0.9,1h-0.8l-0.9,0.1l-0.9,0.1v0.8
		l0.9-0.1l0.9-0.1h0.8l0.1,0.9l0.1,0.9l-0.8,0.1v0.8l-0.9,0.1l-0.9,0.1l-0.8,1l0.9-0.1l1,0.6l1,1.7l-0.1-0.9l1.8,0.8l-0.1-0.9
		l0.8-0.1l0.1,0.9l2,1.6l0.9-0.1l0.1,0.9l0.8-0.1l0.1,0.9l0.1,0.9l1.8-0.1l1.8-0.1l-0.9,0.9l0.9-0.1L71,245l-0.7,1.8h0.8l1,0.8
		l0.1,0.9H73v0.8l-1.6,1.9l0.1,0.9l1.1,1.6h0.8l0.1,1.8l1,0.8l0.1,0.8l1.8,0.8l0.8-0.9l0.1,0.9l0.1,0.9l-0.8,0.9l0.9-0.1l-0.8,0.9
		l0.1,1.8l0.1,0.8l-0.8,0.9l0.1,0.9l0.9-0.1l0.1,0.9l0.1,0.8l0.9,0.8l0.1,0.9l0.1,1.7l0.1,0.8l-0.9-0.7l-0.1-0.9l-0.1-0.8l-0.9-0.8
		l-0.1-0.9l-0.9-0.8l-0.1-0.9l-0.9,0.9l0.2,2.6l0.1,0.8l-0.7,1l0.1,1.7l-0.9,0.1l1.8,0.8l-0.7,0.9l-1.8,0.1l0.1,0.9l0.1,0.8
		l-0.9,0.9l0.1,0.9l-0.8,0.1l0.1,1.7l-0.9,0.1l-0.8,0.9l0.1,0.9l-1.6,1.9l-1.5,1.8h-0.2l-1-0.8l-1.6,0.1l-1.8-0.8l-1-0.8l-0.8,0.1
		l-0.9,0.1l-1.7,0.1l-0.9-0.8l-1-1.6l-1.7,0.1l-0.9-0.8l-0.8,0.1l-1.8,0.1l-0.9,0.1l-0.9-0.8l-0.9,0.1H47l-0.9-0.9l-1-0.8l-0.8,0.1
		l-1.8-0.7l-0.9,0.1l-1.8-0.8v-0.8l-1.8,0.1l-0.9-0.9l-0.8,0.1l-1.7,0.1l-1-0.7l-0.9-0.8l-1.6,1l-1-1.8l-0.9-0.8l-0.1-0.9L29,270
		l-1.7,1l-0.9,0.1l-0.9-0.8l0.1,0.8l-0.8,0.1l-0.9,0.1l-0.9,0.1l0.9,0.8l-0.8,0.9l-0.8,0.9l-0.1-0.9l-0.9-0.8l-0.9,0.1l-0.9,0.1
		l-0.9-0.8L17,273l-0.9-0.8l-0.8,0.9l-0.8,0.9l0.9,0.8l0.1,0.8l0.8-0.9l0.1,0.8l-0.8,1l1.8-0.1v0.8l-0.8,1l0.1,0.8l-0.8,0.9l0.9-0.1
		l0.1,0.9l-0.8,0.9l-0.9-0.8l-0.8,0.9l0.1,1.7h0.1v0.8l0.1,0.9v0.8l-0.7,0.9l0.1,0.9l0.1,1.8l-0.8,0.9l-0.8,0.9l0.3,1.7l-0.9,0.9
		l-0.8,0.9l0.1,1.8l-0.8,0.9l-0.8,1.8l-0.8,0.8l-0.8,1l0.1,0.8l-0.8,0.9l-0.8,1.8L5.5,305l-1.8,0.1L2.9,306l0.1,0.9l0.1,0.9l0.1,0.9
		l-0.8,0.9l-0.8,0.9l0.1,0.8l0.1,0.9l1.7-0.1l0.9,0.8l0.8-0.1l0.1,1.8l0.1,0.9l-0.8,0.9l-0.8,0.8l0.1,0.9L3,319l0.9,0.9l-0.7,1.7
		l0.1,0.9l-0.9,0.1l-0.9,0.9l0.1,0.9l-0.7,1.8l-0.9,1l0.1,0.9L1,328h0.8l0.9-0.9l0.9,0.8l0.1,0.8l0.8-0.1l0.9-0.1l0.9,0.8l1.8,0.8
		l1,0.8l0.8-0.9l0.1,0.9l0.9-0.1l2.4-1l0.9-0.1l0.9,0.9l0.9,0.7l0.9,0.8L17,333l1.8,0.7l0.9,0.9l0.1,0.8l-0.8,0.9l0.9-0.1l0.9-0.1
		l-0.8,1.7l0.1,0.9l-1.8,0.1l0.9,0.8l0.1,1.8l0.9,0.8h0.9l0.9,0.7l1,1.7l0.8-0.9l-0.1-0.9l1.7-0.9l1.7-0.1l0.8-0.9l0.9-0.1l1.8,0.8
		l0.9-0.1l0.8-1.8l1.7-0.1l1.8,0.8l0.9,0.8l1.8-0.1l0.9,1.6l1.7-0.1l2.6-0.2l0.9-0.1l1.8,0.8l0.8-0.9l1.8-0.1l1,0.8l0.8-0.1l0.1,0.9
		l0.8-0.1l0.9-0.9l-0.1-0.9l-0.1-0.9l1.7-0.9l-0.1-0.9l1.8-0.1l0.8-1l1.8-0.1l0.8-0.1l1.8,0.8l0.9-1l1.6-1l-0.1-1.8l0.8-0.9l0.9-0.1
		l0.8-0.9l-0.1-0.9l1.7-1l0.8-0.1l1.8-0.1l1.6-1.9l-0.9-0.8l-0.1-0.9l-1-0.8l-0.1-0.9l-0.1-0.8l-0.2-1.7l-0.1-1.8l0.9-0.9l0.8-0.9
		l1.7-1l1.6-1.9l0.9-0.1l0.9-0.9l1.6-1.9l0.8-0.9l1.7-1.1l-0.1-0.8l0.9-0.1v-0.8l0.8-1l0.9-0.1l1.6-0.1l1.8-0.1l1.7-0.1l0.9-0.1
		l0.8-0.1l0.9-0.1l1.6-1l0.9-0.1l0.8-0.9l1.8-0.1l0.9-0.1l0.8-0.9L98,305l0.8-0.9l0.8-0.9l-0.1-0.8l0.8-0.9L100,301l-0.1-1.8
		l-0.2-0.2l0.2-0.2l-0.4-0.3l-0.3-0.5l-0.2-0.5l0.8-0.9l-0.9-0.8l0.8-1.8l-0.1-0.8l0.8-0.9l0.9-0.1l0.8-0.9l0.9-0.1h0.8l0.9-0.1
		l0.8-0.9l0.8-0.9l0.9-0.1l0.9,0.8l0.9,0.8h0.8l1.8-0.1l0.1,1.8l0.8-0.9l0.9-0.1l0.8-0.9l0.9-0.1l0.1,0.9l0.1,0.9h0.8l0.9-0.1
		l0.1,0.8l0.1,0.9l0.8-0.9l0.9,0.8l0.9,0.8l0.1,0.9l0.9,0.8l0.8-0.1l0.9-0.1l0.9-0.1l0.8-0.1l0.9-0.1l0.8-0.9l-0.1-0.9l-0.1-0.9
		l0.9-0.1l0.8-0.1l0.9-0.1l-0.1-0.9l0.9-0.1l0.8-0.1l0.1,0.9l1.4-1.6l0,0l0.7-0.4l0.8-1l0.9-0.1l0.9-0.1l1.7-0.9l0.8-0.9l-0.1-0.9
		l0.8-0.9l0.8-0.9l1.8-0.1l0.9-0.1l1.9,1.6l0.8-0.9l2.8,1.6l-0.1-0.9l0.8-0.9l0.9-0.1l0.9-0.1l-0.8,0.9l0.1,0.9l0.9,0.8l-0.8,0.9
		l1.8,1.6l1.2,3.5l1.1,3.3l0.9,0.8l2.1,4.2l0.9-0.1l1.9,1.6l0.9,1.7l1,0.7l0.9,0.9l2.7,2.4l5.6,4.8l0.9-0.1l1,1.7l1.8-0.1l1,1.6
		l0.8-0.9l2.8,2.4l1,0.8l0.9,0.8l0.8-0.1l1.9,1.6l0.9-0.1l0.9,0.8l0.1,1.7l0.1,0.9l0.1,0.8l1.8,0.8l0.9-0.1h0.8l1.9,0.7l0.9,0.8
		l0.1,0.9l0.9,0.8l1,2.5l1.1,2.5l0.2,2.6l-0.9,0.9h-0.8l-0.9,0.1l0.1,0.9l0.1,0.9l0.1,0.8l0.1,0.8l-0.8,1l-0.8,0.9l0.1,0.9l0.9,0.8
		l0.8-0.1l0.9-0.1h0.8l0.9-0.9l0.8-0.1l-0.1-0.9l1.8-1l-0.1-0.9l-0.1-1.6l0.8-0.9l0.8-0.9l0.8-0.9l0.9-0.1l0.8-0.1l0.9-0.1l-0.1-0.9
		l-0.1-0.8L202,334l-0.1-1.8l-0.1-0.9l-0.1-0.9l-1-0.7l-1.6,0.9l-1-1.4l-0.5-2.3l0.2-1.4l0.9-0.1l-0.1-0.9l0.8-0.8l-0.9,0.1l0.8-1
		l0.8-0.9l0.9-0.1l0.8-0.1l0.1,0.8l1.8,0.8l0.9-0.1l0.9-0.1l0.9-0.1l0.9-0.1l0.1,0.8l0.1,0.9l0.9,0.8l0.1,0.8l1,0.9h0.8l0.9-0.1
		l0.8-1l-0.1-1.7l-0.1-1.7l-0.1-0.9l-1.9-0.7l-0.9-1.7l-1-0.8l-1.8-0.8l-1.8,0.1L203,318l-0.9-0.8l-2.8-0.7l-0.9-0.8l-0.9-0.8
		l-0.9,0.1l-1.7,0.1l-0.9-0.8l-1.8-0.8l-0.9,0.1l0.9-0.9l0.8-0.1l0.9-0.9l-0.1-1.7l-2.8-0.6l-0.8,0.1l-2.6,0.2l-1.8,0.1L184,309
		l-1.1-1.7l-0.9-0.9l-1.9-1.6l-1.1-1.6l-1.8-1.6l-0.1-1.8l0.8-0.9l-0.9-1.6l-1-1.7l-0.1-0.9l-0.9-0.8l-0.1-1.6h-1l-1.8-0.8l-1.8-0.8
		l-0.9,0.1l-1.8-0.7l-0.1-0.9l-0.9-0.7l-0.1-0.9l-1-1.6l0.8-0.9l-0.1-0.9l-0.1-0.9l0.8-0.9l0.9-0.9l-0.1-0.9l-0.9,0.1l-0.9-0.8
		l-0.1-0.8l-0.9,0.1l0.8-1l0.8-0.1l-0.1-1.7l1.8-0.1l0.9-0.1l0.9-0.1l0.9-0.1l0.8-0.9l0.8-0.1l-0.1-0.8l0.9-0.1h0.8l0.1,0.8l1,0.8
		l-0.1-1.7l0.8-0.1l0.2-0.2l0.8,0.2l0.8-0.9l0.1,0.9l0.1,0.9l0.1,0.9l-0.8,0.9l-0.9,0.1l-0.8,0.9l0.9,0.8l0.1,0.9l0.1,1.7l0.9,0.8
		l0.1,0.9l0.9,0.8l0.8-1.8l0.8-0.9l0.8-1.8l-0.1-0.9l0.9-0.1l0.9,0.8l0.9,0.8l0.9,0.8l1,1.6l-0.8,1.8l0.1,0.9l0.1,1.7l1.8-0.1
		l0.1,0.9l0.9-0.1l0.9,0.7l1,0.9l-2.6,0.2l0.9,0.8l0.9,0.8l1.1,1.7l0.8-0.1l1.9,1.6l0.1,0.9l1.8,0.8l1.7-1l0.9-0.1l1.8,1.6l1.9,1.6
		l1,1.7l1.7-0.1l1,1.6l1.8,0.8l0.9-0.1l1,1.6l0.8-0.1l0.9,0.9l1.8-0.1l0.9-0.1l1,0.8l0.1,0.9l0.8,0.8l0.9-0.1l0.1,1.7l1.7-0.1
		l0.1,0.9l0.9-0.1l0.9-0.1l-0.1-1.7l-0.1-0.9l-0.1-0.8l-0.1-0.9l0,0l0.1,0.9l0.1,0.8l0.1,0.9l0.1,1.7l0.9,0.9l0.1,0.8l0.1,0.9
		l-0.9,0.1l0.1,0.9l0.1,0.9l0.1,0.8l0.1,0.9l0.1,0.9l0.1,1.8l-0.8,0.9l0.1,0.9l0.1,0.9l0.9,0.8l-0.8,0.9l0.1,0.8l0.9-0.1l0.1,0.9
		l-0.9,0.1l0.1,1.7l1.8-0.1l0.9,0.8l1.8-0.1l0.1,0.8l1,1.7h-0.1l0.9,1.6l0.9,0.8l1.7-0.1l0.1,0.9l0.1,1.7l1,0.8l0.8-0.9l0.9-0.1h0.8
		l0.9-0.1l0.1,0.9v0.8l-1.7,0.1l-0.9,0.1l-0.8,0.9l0.9,0.8l0.1,0.9l0.1,0.9l0.9-0.1l1.8,0.7l0.8-0.9l0.9-0.1l0.8-0.1l0.1,0.8
		l1.7-0.9l0.9-0.1l0.9-0.1l1.7-0.1l0.9,0.8l1,0.8l-0.1-0.8l1.7-0.1l0.9,0.8l0.9,0.9l1.8,0.7l-0.7,1l-0.9,0.1l-0.8,0.9l-0.9-0.8
		l-0.1-0.9l-0.9-0.8l-1.7,1l-0.1-0.8l-0.8,0.1l-0.9,0.1l-0.8,0.1l-0.9,0.1l-0.8,0.9l-0.9,0.1l-0.9,0.1l-0.8,0.1l-0.9,0.1l-0.7,1v0.8
		l0.9,1.7l0.9-0.1l0.9,0.8l0.9,0.9l0.1,0.8l0.1,1.8l-0.8,0.9l0.9,0.8l0.1,0.9l0.1,0.9l1,1.7l0.9-0.1l0.9-0.1l0.7-0.9l-0.8-0.8
		l-0.1-0.9l0.7-0.9l1,0.8l0.1,0.9l0.1,0.9l0.1,0.9l0.9,0.8l0.9-0.1l0.9,1.7l0.9-0.1l-0.1-1.8l-0.1-0.8l-0.1-0.9l0.8-0.9l0.1,1.8
		l0.9-0.1l0.1,1.7l0.9-0.1l3.5-0.3l-0.1-0.9l-1.8-0.7l-0.1-0.9l-1-0.8l-0.1-1.7h-0.8l-1.1-1.6l-0.9-0.8l-0.1-1.7l0.9-0.1l1,0.8
		l0.1,0.9l0.9,0.8l0.9-0.1l1.7-1l1.6-1l-0.1-1.8l-1.6,1.1l-0.9,0.1L250,345l-0.1-0.8l0.8-0.9l1.6-1.8l0.9-0.1l1,1.6l1.8,0.8l-1-1.8
		l-0.1-0.9l-0.1-1.8l-0.1-1.8l-0.9,0.1L252,337l-1-1.6l-0.8,0.1l-1.8-0.8l-1.8-0.8l-1.8,0.1l-0.9-0.8l0.8-0.9l0.8-0.9l-0.1-0.9
		l-0.9,0.1l-0.9-1.7l0.8-0.9l0.9-0.1l1.8-0.1l1,0.8l0.1,0.9l0.1,0.9h0.8l0.8-1.8l-0.9,0.1l-2.7-2.4l-1-1.7l-1.8-0.7l-0.9-0.8
		l-0.1-1.7l-0.1-0.9l-0.1-0.8l-0.9-0.8l0.8-0.9l1.6-1l0.9-0.1l0.1,1.8l1,0.8l0.9,1.7l1.1,1.6l1.8,0.8l1.7,0.7l-0.1-0.8l-1.7-0.8
		l-1-0.9V321l-0.1-0.9l1,0.9l0.9,0.7l0.9,0.9l2.7,0.7l-0.1-0.9l-0.9,0.1l-1-1.6L251,320l0.9-0.1h0.8l0.1,1.7l1.8-0.1l1.7-0.9l0.8-1
		l-0.9,0.1l-1.8-0.7l-1.8-0.8l-0.9-0.8l-0.9-0.8l-0.1-0.9l0.9-0.1l2.6-0.2l0.9-0.1l-0.1-0.8l-0.1-0.9l0.8-0.9l0.9,0.8l0.9,0.8
		l1.8-0.1l0.8-0.9l-1-0.8l0.9-0.1l1.6-0.1l1.8,0.8l2.6-0.2l0.9,0.8l0.8-0.1v0.1l0.9,0.8l1.8-0.1l0.9-0.1l0.8-0.9l0.1,0.9l0.1,0.9
		l-0.8,0.1l-1.6,1.9l0.9,0.8l0.8-0.9l2.5-1.1l0.8-0.9l1.7-1l-0.1-0.9l0.8-0.9l1.7-1.1l0.8-0.9l0.8-1l1.7-0.9l0.8-0.1l1.8-0.1
		l1.7-0.1l0.9-0.1l0.8-0.9L288,305l-0.9,0.1l-1.8-0.8l-0.8,0.1l-1.9-1.6l-1.7,0.1l-0.1-0.8l-0.1-0.9l-0.9-0.8h-0.3l-0.1-0.8
		l-0.1-1.8l-0.9,0.1l-0.9-0.8l-0.1-0.9l-1.8,0.1l-0.8,0.9l-0.1-1.8l-0.1-0.9l0.8-0.9l0.9-0.1l-0.1-0.9l0.8-0.9l-0.9-0.8l-0.1-1.7
		l0.9-0.1l-0.1-1.8l-0.1-1.7l1.8-0.1l1.8-0.1l0.8-0.9l-0.7-1.5l0.1-0.3l-0.1-0.8l0.7-1.7l-0.9-0.9l-0.1-1.7l-0.1-0.9l0.8-0.9
		l0.8-0.9l-0.9,0.1l-0.8,0.1l-0.1-0.9l0.7-1.8l-0.1-0.9l0.8-0.9l1,0.8l0.1,1.8l0.8-0.1l0.8-0.9l-0.1-0.9l0.9-0.1l0.8-1.8l-0.2-3.5
		l-0.5,1.4l-1.3-1.5l-0.2-0.1l-0.1-0.8l-0.1-0.9l-0.9-0.8l-0.1-0.9l0.8-0.9l0.9-0.1l0.1,0.9l0.8-0.9l1.6-0.1l0.8-0.9l0.9-0.1h0.8
		l-0.1-1.7l-0.9-0.9l-0.9,0.1l-1.8-0.6l-0.1-0.8h0.8l0.8-1l0.9,0.9l0.9,0.7h0.8l-0.2-2.5l0.8-1.8l0.9-0.1l0.8,0.8l1.7-1l1.6-1.8h0.8
		l0.1,0.8l0.9-0.1l-0.1-1.6l-0.1-0.9l-0.1-1.7l0.9,1.6l0.9,0.8l0.1,0.9l1.1,1.6l-1.8,0.1l0.1,0.9l0.1,0.9v0.8l1.8,0.8l1.7,0.6
		l2.6-1.9l1.5-0.9l0.9-0.1l0.9-0.9l1,2.6l0.8-1l0.8-1.8l-0.1-0.9h0.8l1,0.8l0.8-0.9l0.8-0.1l2.6-0.2l0.1,0.9l0.8-0.1l-0.1-0.9
		l0.9-0.1l0.6-2.6l1.7-1l0.1,1.8l1-0.1l2.3-2.8l1.7-0.9l0.6-0.9l0.9-0.9h0.8l1.9,0.7l0.8-0.9l-0.9-0.8l1.6-0.9l0.8-1.8l0.9-0.9
		l0.8-0.1l0.8-1l-0.1-0.8l1,0.8l0.8-0.1l0.1-0.8v-0.1l0.8-0.9l0.9-0.1l0.7-0.8l0.1,1.6l0.9-0.1l1.6-1.8l0.8-0.8l1.6-0.1l0.1,1.5
		l0.1,0.9l-1.6,0.9l-1.8,1.1l-0.7,0.9l0.8,0.8l1.1,0.8l-1.7,1l-1.7-0.7l-0.9,0.1l-0.9,0.9h-0.8l0.1,0.9l0.8,0.8l2.6-0.2l1,0.8
		l0.1,0.8l2.6,0.7l-0.8,0.1l-0.9,1l-0.8-0.8l0.1,1.8l0.8,0.7l-0.7,1l-1-0.9l-0.8-0.7l-0.8,0.8l0.1,1.8l-0.9,0.9l1,0.8l0.1,1.7
		l-1.7,0.1l-0.8,2.6l0.1,0.9l1.8,0.8l1.9,0.8l0.8-0.1l1.7-0.1l1.1,0.8l0.1,0.8l1.6-0.1l0.8-0.9l0.9,0.8l1.8-0.1l0.1,0.9l1.8,0.7
		l1.7-0.1l0.9,0.8l0.9,0.8l1.8-0.1l2.8,3.3l2.7,0.6h0.8l0.9-0.1l0.9,0.9l0.8-0.1l0.9-1h0.8l0.9,0.9l1.8-0.1l0.1,1.7l0.8-0.1l1.7-0.1
		l0.8,0.8l0.1,0.9l1.1,1.5l0.9,0.8l1.9,1.6l0.8,0.8l0.1,0.9h-0.8l-0.8,1.8l0.1,0.8l0.1,0.9l0.9-0.1l-0.1-0.9l0.8-0.1l1-0.1l3.3-0.2
		l0.9-0.9l0.8-0.1l0.8-0.9l1.8,0.8l0.9-0.1v0.8l0.1,0.9l0.9-0.1l1.7-0.1l2.6,0.6l0.1,0.9l0.8,0.8l-0.6,1.7l0.1,0.9l0.9,1.7l0.9,0.9
		l0.9-0.1l0.8-0.1l0.9-0.1l0.8-0.1h0.8l0.8-1l1,0.9l0.1,0.8l1.7-0.1l0.9-0.1l1.8,0.8v0.7l2.6,1.5l1.8,0.8l0.9,0.8l2.6-0.2l1.8-0.1
		h0.8l1.7-0.9l1.7-0.1v-0.1l0,0l0.6-1.6l-0.1-0.9v-0.7l1.8-1l1.5-1.9l-0.1-0.9l0.8-1.8l0.7-1.7l1.8-0.1l0.6-1.8l0.9-0.1l1.8,1.6
		l1,0.8l0.1,1.7l-1,0.1l1,0.8l1,1.8l0.1,0.8l-1.8,1l-0.8,0.1l1.9,0.6l1.6,0.8l0.9-0.9l0.9-0.1l3.5,0.6l-0.9-0.8l0.8-0.8l-1.8-0.8
		l-0.9-1.7l0.7-0.9l-0.1-0.9l-0.1-0.9l0.9-0.1l0.1,1.8l0.8-1.8l-0.1-1.7v-0.8l-0.9-0.9l-1-1.6l0.9-0.1v-0.8L435,272l-0.1-0.9
		l-0.9-0.8l-0.1-0.9l0.8-0.9l0.8-1.9l0.8-0.7l1.7-0.1l-0.1-0.9l-0.8-0.8l-1.8,1l-1.8,0.1l-1.6,0.1l-1-1.6l-1.7,0.1l-0.9-0.8
		l-1.1-1.7l-0.9-0.8l-0.9-0.8l-1-0.9h-0.8l-1.8-0.7l0,0h-0.1l-0.8,0.1l-1.7-0.8l-1.9-0.7l-1-0.8l-2.6-1.5l-1.8-0.8l-1.8-1.6
		l-0.2-3.4l-0.9-0.7l-1-0.9l-0.1-1.7l-0.9-1.8l-0.9,0.1v-0.8l-1.8-0.8l-2.7-1.6l0.1,0.9l-0.8,0.9l-1-0.8l-1.8-0.8l0.6-3.5l-0.1-0.8
		l0.8-0.9l-0.1-1.7l0.9-1l-1-0.8l-0.2-2.4l0.8-1.9l-0.1-1.7l0.8-0.1l0.9,0.8l1.6-1.9l0.9-0.9l0.8-0.8l0.8-1.8l0.8,0.8l0.8-1.8
		l-1.1-2.5l-1.6,0.1l-0.8,0.1l-1.8-0.7l0.7-1.9l0.9-0.9l0.8-0.1l-0.9-0.8l-2.7-1.5l-3.5-2.2l-1.8-1.6l-0.9,1l-1.8,0.1l0.1,0.8
		l-0.8,0.9l-1.7-0.8l-0.9-0.8l-0.1-1.7l-0.1-1l-1.9-0.7l-1.6,0.1l-0.8,0.9l-0.2-2.5l-0.1-1.8l1.6-2.8l-2.6-0.5l-0.9-0.9l0.8-1
		l-0.2-2.5l-0.9-0.9l-1-1.4l0.7-1.9l0.8-0.1l-0.2-2.6l-0.8,0.1l1.5-2.7l1.8,0.8l0.9,1.6l1.9,0.8l0.9,0.9l1.6-1.9l-0.1-0.9l-0.9-1.6
		l-1.1-2.5l-1.8-0.8l1.7-0.9l1.7-0.2l-0.1-0.9v-0.8l-0.3-3.6l1.7-0.1l0.9-0.9l0.8-1.6l1.5-1.9l0.7-1.7l-0.1-1l-0.1-0.8l0.9-0.1
		l0.9,0.8l0.9,0.9l1.6-1.1l0.8-1.7l0.7-1.8l1.6-1l0.9-0.1l1.9,1.7l-0.1-0.9l0.6-1.8l0.9-0.1l1.7-0.1l0.9,0.8l1.8,0.8l2.6-0.2
		l0.9,0.9l1.7-0.1l0.9-0.1l0.8,0.8l-0.1-1.8l-0.8-0.8l-0.1-0.8l0.8-0.1l4.4,0.5l2.6,0.7l0.8-1.8l-0.1-0.9l-0.1-0.9h0.8l-0.1-0.8
		l-0.8-0.8l1.6-0.1l1.8-0.1l-1-1.7l0.9-0.1l0.9-1l1.8,0.8l1.7-0.1L432,154l1.6-0.1l-0.8-1.6l0.6-0.8l0.8-0.9l1.8-1l0.9,0.8l0.9,1.5
		l1.8-0.1l3.4-1h0.8l0.9-0.1l-0.1-0.8l-0.1-1.7l1.5-1.1l2.6-1.1l2.4-2.7l0.7-0.9L451.5,140.7z M221.8,154.3l0.9-0.1l0.9,0.9v0.8
		l0.9-0.9l-0.1-0.9l1.7-0.1l0.8-0.1v-0.7l0.8-0.9l0.9-1l-1.9-0.7l-2.4,1.9l-1.1-1.7l-0.8,0.9l0.1,0.9l0.1,0.9l-1.7,0.9L221.8,154.3z
		 M224.9,148l0.1,1.7l0.8-0.9l0.8-0.9v-0.7l-1.8-0.8l-0.8,0.9l-0.9,0.1v0.7l0.9-0.1H224.9z M14.7,277.5l0.9-0.1v-0.8l-0.9,0.1V277.5
		z M96.6,324.8l-0.9-0.8l-0.1-0.9l-0.9-0.8l-0.8,0.9l0.1,0.9l-1.8,0.1l-0.8,0.1l-0.9,0.1l0.1,0.9l1.7-0.1l0.9-0.1l0.9,1.7l0.9-0.1
		l0.1,0.8l0.9-0.1l0.8-0.9l-0.1-0.9l0.9-0.1l0.8-0.9l-0.9,0.1L96.6,324.8z M105.1,322.5l-0.9,0.1l-0.9,0.1l-0.9-0.8l-0.9,0.1
		l0.1,0.9l0.9,0.8l0.9-0.1l0.9,0.8l0.9-0.1l-0.1-0.9V322.5z M82,328.5l-0.8,0.1l0.1,0.9l-1.8,0.1l0.1,0.9l0.1,0.9l1.7-1l0.8-0.1
		l-0.1-0.9l0.9-0.9H82z M33.9,66.9l0.9,0.9l1,0.8l0.9,0.8l0.9-0.1l0.9-0.1l0.1,0.9l0.1,0.8l0.1,0.9l0.1,0.8l0.9,0.8l1.9,1.7l0.9-0.1
		l0.8-0.1l0.1,0.9l0.1,0.8l1.8,0.8l1,0.8v-0.9l0.8-0.9l0.1,0.9l0.9-0.1l1.6-1l0.9-0.1l1.8,0.8l0.8-0.9l1,0.8l1.7-0.1l0.1,0.9l1.6-1
		l0.9-0.9l1.8,0.8l0.8-0.1l0.9-0.9l0.9,0.8l0.1,0.9l0.8-0.9l0.9-0.1l1.6-1l0.7-1.8l1,0.9l0.8-0.1l1.8-0.1L70,72.3l0.8-1l0.8-0.1
		l-0.1-0.9l-0.1-0.8l0.8-0.9l-0.1-0.8l-0.9-0.9l-0.1-0.8L71,65.2l-1.7,0.1l-0.1-0.9l0.8-0.8l0.9,0.7v-0.8L70,62.7l-0.1-0.9l0.2-0.8
		l1.6-1l-0.1-0.9L70.9,60l-1.7,0.1l-0.1-0.9L69,58.4l0.8-0.9l-0.1-0.9L68,55.9l0.1,0.9l-0.9,0.9l-0.7,0.9l-0.9,0.1l-0.9-0.8L64.6,57
		L63,58l-1.7,1l-0.9,0.1l0.7-2.7l-0.9-0.8l0.1,0.9l-0.8,1.8l0.1,0.9L58.8,60l-1-0.8l-0.1-1.8l0.9-0.9l-0.1-1.7l-1-0.9l-0.7,1l-1-0.9
		l0.1,0.9L55,56l-0.8,0.9L53.3,57l-0.1-0.9v-0.8l-0.1-1.8l-0.9-0.8l-0.8,1.7l-0.7,1.8l-0.9,0.1l-0.1-0.8h-0.8L48,55.6l-1.4,2.7
		l-0.1-0.9l-0.9,0.1l-0.1-0.9l0.8-0.9l-0.1-0.9V54l-0.1-1.8l0.9-0.1l0.8-0.1l0.8-1.8l-0.9,0.1l-0.1-0.8l0.9-0.9l-0.1-0.8L48.2,46
		l-1.8-1.6l-1.8,0.1l0.9,0.8l1,1.7l-0.9,0.1l0.1,0.9l0.1,0.8l0.1,0.9l-0.8,0.9l-0.9-0.8L44,48.1L43.2,49L43,47.3l-0.1-1.8l0.1,0.8
		l-0.8,0.1l-0.9-0.8l0.2,2.6l-1.8-0.8l1,0.8l0.9,0.8l-1.7,1L39,50.1l-0.1-0.9l-0.1-0.8l-1-0.8l0.1,0.9l0.1,0.8l-0.8,0.1l-0.1-0.8
		l-0.8,0.9l0.1,0.9l0.9-0.1H38l1,0.7l1.8-0.1l0.9,0.9l0.9,0.8l0.1,0.9l0.8-0.1l0.9-0.1l0.1,1.6L43.6,55l-1.8-0.7L40,54.4l1,0.8
		l0.9,0.9l0.9,0.8L42,57.8l-0.8,0.1l-1-0.8l-0.9-0.8l-0.9,0.1l-1.8-0.8L35,54.8l-1.7,1l0.1,0.9l1.7-0.1l1.7-0.1l0.9,0.8l0.1,0.9
		l0.8-0.1l0.1,0.9l0.1,0.9L38,60.7l0.1,1.7l0.8-0.9l0.1,0.9l-0.8,0.9l-0.8,0.9l-0.9,0.1l-0.8,0.1l-0.9,0.1L34,65.4l-1-0.8l-0.7,1.8
		l0.9,0.7L33.9,66.9z M50,196.5l0.1,0.8l0.9-0.1l0.8-0.9l0.9-0.1l1.8-0.1l1.8-0.1l1.6-0.1l1,0.8l1.7-0.9l0.8-0.9l-0.1-0.9l0.9-0.1
		L63,193l-0.1-0.8l0.9-0.1l-0.1-0.9l-0.1-0.9l-0.1-0.9l0.8-0.9l-0.1-0.8l-0.1-0.9l0.8-0.9l-0.1-1.8l-0.1-0.8l0.9-1l0.8-0.9v-0.1
		l0.7-0.8l0.8-0.9l0.9-0.1l0.8-0.1l-0.1-1.7l0.9-0.9l0.1,0.9l0.1,0.9l0.8-0.1l-0.1-0.9l-0.1-0.9l-0.9-0.8l-0.9,0.9l-0.9-0.8l0.7-0.9
		l0.9-0.1v-0.8l-0.1-0.9l-1.1-1.6l-0.1-0.9l-0.1-0.9l-0.8,0.1l-0.9,0.1l-0.8,0.1l-0.1-0.8l-0.9,0.1l-0.8,0.9l-0.9,0.1l-0.9,0.1
		l-1.6,0.1l0.1-0.1l1.8-0.1l0.8-0.1l-0.9-0.8l0.8-0.1l0.9-0.1l0.8-0.9l-0.9-0.8l-1-0.9l0.1,0.9l-0.8,0.1l-0.9,0.1l-0.9,0.1l-1.8-0.8
		l-0.7,1l-1.8,0.1l-0.9,0.9l-0.7,0.9l-2.6,1l0.9,0.8l1.8,0.8l0.8-0.1l-0.7,0.9l-1.8,0.1l0.1,0.9l0.1,0.9l-1.7,1l-0.9-0.8l-1.8-0.8
		l-0.1-0.9l-1-0.8l-0.9-0.9l-1.8,0.1l-0.7,1.7l-0.9,0.1l0.9,0.8l0.1,0.9l0.1,0.8l-0.8,0.9l-0.7,0.9l-0.9,0.1l-0.8,0.9l0.9,1.7
		l0.1,0.8l0.9-0.1l0.1,1.7l0.8-0.9l1.8-0.1l0.8-0.1l0.1,0.8l-0.7,1l-0.9,0.1l-2.6,1l-1.6,1.9l-1.8,0.1l1,0.7l-0.9,0.1l0.1,0.9
		l-2.6,0.2l-0.8,0.1l-0.9,0.9l0.1,0.9l0.9-0.1l1.8-0.1l0.9,0.8l-0.9,0.1l-0.9,0.1l-0.8,0.1l-0.9,0.9l-0.8,1l0.9,0.8l0.9-0.9l0.9,0.8
		l-0.8,0.9l0.1,0.9h0.8l0.9-0.1l-1.7,1l2.6-0.2l0.1,0.8l0.1,0.9l1.6-1l0.8-0.1l1,0.8l1.8-0.1l0.8-0.9l0.9,0.8l1.7-0.1l-0.1-0.9
		l0.9-0.1L50,196.5z M37.9,198.2l1.7-1l-2.6,1H37.9z M145.6,305.3l-0.1-1.8l-0.1-0.8l-0.1-0.9L145,301l-0.4-0.4l-0.2,0.2l-0.8-0.1
		l-0.9,0.5l-0.9,0.1l-0.4,0.2l-0.4,0.6l-0.9,0.4l-0.7,1l-0.6,0.6l0.2,0.7l-0.1,1l0.3,0.9l0.4,0.7l0.1,0.9l0.1,0.3l-0.6,0.6l0.6,0.9
		l0.7,0.7l0.1,0.9l0.6,0.8l0.6,0.1l0.9,0.8l-0.1-0.9l0.9-0.9l-0.1-0.8l0.7-1.8l-0.1-0.9l-0.1-0.9l0.8-0.9L145.6,305.3z M145,321
		l0.8-1.8l-0.1-0.9l-0.9,0.1l-0.1-0.8l-0.9-0.8l0.8-0.1l-0.9-0.9l-1-0.7l-0.1-0.9l-0.8,1l-0.9,0.1l0.1,0.8l-0.8,0.1l-0.9,0.1l-0.7,1
		l-0.9,0.1l-1.8,0.1l-0.8,0.9l-0.9-0.8l0.1,0.8l-0.8,0.9l0.1,0.9l0.1,0.8l1,1.7l0.1,0.9l0.1,1.7l0.8-0.1l1.8-0.1l-0.8,0.9l-0.8,0.9
		l0.1,0.9l0.1,0.9l-0.8,0.9l-0.9,0.1l0.9,0.8l-0.8,1.8l0.9,0.8l0.1,0.9l0.1,0.8l1.8,0.8l0.9-0.1l0.9-0.1l-0.1-0.9l-0.1-0.8l0.9-1
		l1.7,0.8l0.8-0.1l1,0.8l0.8-0.9l-0.1-0.9l-0.1-1.7l-0.1-1.8l0.8-1.8l-0.1-0.9l-0.1-0.9l-0.1-0.9l-0.1-0.9v-0.8h0.8l0.8-0.9
		l-0.1-0.8H145z M189.1,342.1l-1.6,1l-1.8,0.1l-0.8,1l-1-0.8l-0.8,0.1l-0.9,0.9h-0.8l-0.9,0.1l-0.9,0.1l-1.7,1l-1.8,0.1l-1.8-0.8
		l-1.8-0.8l-0.9-0.8l-1.8,0.1l-1.7,1l-0.1-0.9l-0.9-0.8l-0.9,0.9l-0.8,0.1l0.1,1.8l-0.9,0.9l0.1,0.9l1,0.8l1.8,0.8h0.8l1,0.7
		l2.6,0.7l0.9,0.8l1,1.7l1.8-0.1l0.9,0.8l1.8-0.1l1.8,0.7l0.1,0.9l1,1.7l1.7,0.7l0.9-0.9l1.8,0.7l-0.1-1.8l1.7-1l-0.1-1.8l-0.9,0.1
		l0.8-0.9l-0.9,0.1L186,351l-0.1-0.8l0.8-0.9l-0.1-0.9l-0.1-0.8l-0.1-0.9l0.8-0.9h0.8l0.8-1.8l-0.1-0.9L189.1,342.1z M74,190.7
		l0.8-0.1l0.9-0.9l-1-0.8h-0.8l-0.8,0.1l0.1,1.7H74z M84.2,217.8l0.9,0.8l0.9-0.1l0.9-0.1l-0.1-0.9l-0.9,0.1L84.2,217.8z
		 M96.6,140.6l-0.1-0.9l-0.1-0.8l-0.1-0.9l-0.9,0.9l-0.9,0.1l0.9,0.8L96.6,140.6z M106.4,131.2l0.9,0.8l0.1,0.8l-0.8,0.9l1.7-1
		l-0.1-0.8l0.8-0.9l-0.1-0.9l-0.1-0.9l-0.1-0.9l-0.1-1.7l-0.7,2.6l0.1,0.9l-1.8,0.1L106.4,131.2z M73.4,145.7l0.1,0.8l0.8-1.8
		l0.8-0.9l0.9,0.8l0.1,0.9l0.7-1v-0.8l0.8-1l0.9-0.1v-0.8l0.7-0.9v-0.8l-0.8,0.9l-0.9,0.1l-1.7,0.1l0.1,1.7l-0.9-0.8l-0.1-0.9l-1,1
		v0.8l-0.8,1.8L73.4,145.7z M77.7,181.8l-0.1-0.9l-0.9-0.8l-0.9,0.9l-0.8,1l0.9,0.8L77.7,181.8z M76.2,148.2l-1.7,1l0.1,0.8l0.1,0.9
		l1.7-1.1l-0.1-0.8L76.2,148.2z M77.9,148.1l-0.8,0.9l-0.9,0.9l-0.7,1.8l0.9,0.8l0.1,0.9l0.8-1.8l-0.1-0.8l-0.1-0.9l0.8-0.9
		L77.9,148.1z M74.2,157.8l0.9,0.4v-0.4H74.2z M58.2,216.5l1.7-0.1h-0.8L58.2,216.5z M83,185.2l0.8-0.9l0,0L83,185.2z M71.7,194.9
		l0.9-0.1l0.8-0.9l1,0.8l0.7-0.9l0.9-0.1l0.1,0.9l-0.8,0.9l0.1,0.9l0.1,0.9h-0.8l0.8,0.8l-0.7,0.9l-0.9,0.1l-0.8,0.9l-0.8,1
		l-0.9-0.9l-0.8,1l-0.8,0.1l-0.9,0.1l-0.9,0.1l-0.9-0.9l-0.8,1v0.8l-0.8,0.9l1.8-0.1l0.9-0.1l0.1,0.8l-0.9,0.1l0.1,0.9l1.8-0.1
		l0.8-0.9l0.8-0.1l0.9-0.1l0.1,0.9l0.1,0.9l0.1,0.8l1.7-0.1l0.9-0.1l-0.8,1l0.9,0.8l1,0.8h0.8l1.8-0.1l0.9-0.1l0.8-0.9v-0.2L81,207
		l0.8-0.1l-0.8,0.9l-0.8,1l-0.9,0.1l-0.9,0.1l-0.8,0.9l0.1,0.9l-0.9,0.1l-1.7,0.1l-0.9,0.1l-0.9,0.1l-0.9-0.8l-0.9,0.1l-0.1-0.8
		l-0.9,0.1l-0.8,0.1l-0.9,0.1l0.9,0.8l-0.8,0.9l-1-0.8L67,211l0.1,0.9l-0.8,1.8l-1.8,0.1l-2.5,1.1v0.8l-0.9,0.1l-1.7,1l0.1,1.7
		l0.9-0.1l0.9-0.1l-0.1-0.9l0.9-0.1l0.1,0.9l0.8-0.9l1.6-1l1.8,0.8l1.7-0.1l0.1,0.9l1,0.8l1.7-0.1l0.8-0.9l-0.1-0.9l-0.1-0.9
		l0.8-0.9l0.9,0.8l1.8-0.1l0.8-0.1l0.9-0.1l0.9,0.8l0.9,0.8l0.1,0.9l0.9-0.1l0.8-0.9l1.7-0.1l0.9,0.8l1.8-0.1l-0.1-0.9l0.8-0.9
		l0.9,0.8l0.9,0.8l0.9-0.1l0.9-0.1l0.1,0.8l1.8-0.1l0.9-0.1l0.9-0.1l0.8-0.1l0.9,0.8l0.9-0.1l0.9,0.8l1.7-1l0.9-0.1l0.9,0.8l0.8-0.9
		l0.8-0.9l0.9-0.1l0.8-0.9l0.8-0.9l-0.9-0.8l-0.8,0.1l-0.9,0.9l-0.9-0.8l-0.9,0.1l-0.9-0.8l-0.9-0.8l-0.1-0.8l0.9-0.1l0.8-0.1
		l0.9,0.8l0.8-0.9l-0.1-0.9l-0.9,0.1l0.8-0.8l0.9-0.1l0.8-0.1l0.9-0.1l-0.1-0.9l0.9-0.1l0.8-0.1l0.8-0.9l0.8-0.9l0.5-1.1l0.8-1.8
		l-0.1-0.9l-0.1-1.8l-1-0.8l-1.8-0.8l-1.7,0.1l-0.9-0.8l-0.8,0.9l-0.9,0.1l-0.8,0.9l-0.9-0.8l-0.1-0.8l-0.1-0.9l0.9-0.1l0.8-0.9
		l0.9-1l-0.1-0.8l-0.1-0.9v-0.8l-1-0.8l-0.1-0.9l-1.8-0.7l-0.8,0.1l-0.1-0.9l0.8-0.1l0.9-0.1l0.9,0.9l-0.3-4.3l-0.1-0.9l-0.1-0.9
		l-0.1-0.9l-0.9-0.8l-0.1-0.9l-0.9,0.1l-0.9-0.8l-0.9,0.1l-0.1-0.9l-0.1-1.8l-0.1-0.9l0.8-0.9l-0.1-0.9l-0.9-0.8l-0.1-0.9l-0.1-0.8
		l0.8-1.8l-0.9-0.8l-1-1.7l-0.1,0.2l-1-1.6l-0.9-0.8l-0.9-0.8l-0.9,0.1l-1.7,0.1l-0.8,0.1l-1-0.8l-0.8,0.2l-0.1-0.8l0.9-0.1l1,0.7
		l0.8-0.1l0.9-0.1l-0.1-0.8l1.6-0.1l0.8-1l-0.9,0.1l-0.9-0.8h-0.8l-0.1-0.8l1.6-0.1l0.9-0.1l0.9,0.8l0.9-0.9l0.8-0.1l-0.1-0.9
		l1.6-0.9l0.9-1l-0.1-0.8l-1-0.8l0.9-0.9l0.8-0.1l-0.1-0.9l0.9-0.1l0.8-0.9l-0.1-0.9l-0.1-0.9l-0.8,0.1l-0.9,0.1l-0.8,0.1l-0.1-0.9
		l-1-0.8l-0.8,0.1l-1.7,0.1l-0.9,0.1l-1.8,0.1l-0.9,0.1l-1.6,1l-0.8,0.1l-0.1-0.9l-0.1-0.9l-0.1-0.9l1.7-0.9l0.8-0.1l-0.1-0.9
		l0.8-0.9l0.9-0.1l0.9-0.1l0.9-0.9l0.7-1l1.7-0.1l-0.1-0.9l0.9-0.8l-1-0.9l-0.8,0.1l-0.9,0.1l-0.1-0.8l-1.7,0.9l-1.8-0.7l-0.1-0.9
		l-0.8,1l-0.8-0.9l0.8-0.1l-1.8-0.7L86,142l0.1,0.8l-0.8,1.8l0.9-0.1l-0.9,1l-1.8-0.8l0.9,0.9l-0.9,0.1l-0.8,0.8l0.9,0.8l0.1,0.9
		l0.1,0.8l-0.9-0.8l-0.8,0.1l-0.1-0.9l-0.9,0.1l-0.9,0.1l-0.8,1l0.1,0.8l0.1,0.9l0.1,0.9l0.9,0.8l0.1,0.9L79,153l0.1,0.9l0.1,0.9
		l-0.9,0.1l-0.8,0.9l0.1,0.9l0.1,0.9l-1.7,1l0.3,0.3l-0.9-0.4v0.5l-0.8,1l0.9-0.1l0.9-0.1l-0.1-0.9l0.6,0.5l0.9,0.8l0.7-1.8l0.9-0.1
		l0.7-1l0.9-0.1l-0.8,0.9l-0.8,0.9l-0.9,0.9l0.9-0.1l0.1,0.9l-0.9,0.1l-0.8,0.1l-0.8,0.9l-0.8,1.8l0.1,0.9l0.1,0.8l0.8-0.9l0.8-1.7
		l0.8-0.1l1,0.7l0.1,0.9l-0.9,0.9l-0.8,0.1l0.1,0.9l0.8-0.1l0.9-0.1l0.9,0.9l0.9-0.1l0.1,0.8l-0.9,0.1l0.1,0.9l-0.8,0.9l-0.9,0.9
		l-0.8,0.9l-0.9,0.1l0.1,0.9l-0.8,0.9l-0.9,0.1l0.1,0.9l-0.9,0.1l0.1,0.8l0.1,1.8l0.1,0.9l0.9-0.1l-0.1-0.9l-0.1-0.9l0.9-0.1
		l0.9,0.8l0.1,0.9l0.9,0.8l-0.1-0.9l-0.1-0.9l0.8-0.9l1,0.8l0.1,0.9l1.6-1l0.1,0.9l0.9-0.1l-0.1-0.9l0.9-0.1l0.9,0.8l0.9-0.1
		l0.8-0.9v0.6l-0.8,0.9l-0.9,0.1l0.1,0.8l-0.9-0.8l-0.8,0.9l-0.8,0.9l0.1,0.8l0.1,1.8l0.1,0.8l0.9,0.8l0.9-0.1l-0.8,0.9l0.8-0.1
		l1.7,0.8l0.1,0.9l-1.7,0.1l0.1,0.9l-0.9,0.1l0.1,0.9l0.1,0.9l-0.9,0.1l-0.8,0.9l0.1,0.8l0.9-0.1l0.1,0.9v0.8l0.9-0.1l-0.8,1
		l-0.9,0.1l-0.1-0.9l-0.7,0.9l-0.7-0.6l-0.1-0.9l-0.8,0.1l-0.9,0.1l-0.1-0.8l-2.6,1l-0.9,0.1l-0.8,0.9l-1.7,0.1l-0.8,0.9l-0.9,0.1
		L71.7,194.9z M155.4,166.9l-0.9,0.1l-2.5,0.2l-0.9,0.1l-0.9,0.9l0.1,0.8l1.1,1.7l-0.1-0.8l-0.1-0.9l0.8-0.9l0.8-0.1l0.9-0.1
		l0.8-0.1l0.9-0.1l0.8-0.1l0.9-0.9l0.9-0.1l1.7-0.1l0.9,0.8l0.9,0.8l-0.1-0.8l0.8-0.9l0.9-0.9l-0.1-1.8l-0.9,0.1l-0.1-0.9l0.9-0.9
		l0.8-0.9h-0.8L162,162l-0.8,0.1l-0.9,0.1l-0.8,0.9l-0.9,0.1l-0.8,0.9L157,165l0.1,0.9l-0.9,0.9L155.4,166.9z M157.4,184.1l0.1,1.8
		l1.8-0.1l0.1,0.8l1.7-0.1l0.9-0.1l-0.1-0.8l-0.1-0.9l-0.1-0.9l-0.1-0.8l-0.9,0.1l-0.9-0.9l-0.8,1l-0.9-0.9l0.1,0.9l-0.9,0.1
		L157.4,184.1z M163.8,181l-0.8,0.9l0.1,0.9l0.9,0.8l-0.8,0.9l0.1,0.9l0.9,0.8l1.8-0.1l0.9-0.1l0.1,0.9l-0.9,0.1l1.8,0.7l0.9-0.1
		l-0.9-0.8l0.8-1l0.8-0.1l0.8-1.8l-0.9-0.8l1.6-1.9l0.8-0.9l-1-1.7l0.8-0.9l-0.9,0.1l0.8-0.9l-1.8,0.1l-0.9,0.1L168,178l0.8-0.1
		l0.9,0.8l-0.8,0.9l-0.8,0.1l-0.9,0.1l0.1,0.9l0.1,0.8l-0.9,0.1l-0.9-0.8l0.8-0.9l-0.1-0.9l-0.9,0.1l0.1,0.9l-0.8,0.9L163.8,181z
		 M164.4,189.6l-0.1-0.9l-0.9,0.1l-0.9,0.1l0.1,0.9l0.9,0.8l0.9,0.8l0.9-0.1l0.9-0.1l-0.1-0.9l-0.9-0.8L164.4,189.6z M168.8,189.3
		l-0.9,0.1l-0.9-0.8l0.1,0.9l0.1,0.8l0.9,0.8v-0.9l0.9-0.1L168.8,189.3z M257.4,338l1.1,1.7l0.8-0.1l-0.1-1.8l-0.9-0.9l-1-0.7
		l-0.1-0.8l-0.9-0.9l-0.9,0.1l-0.9-0.8l-1.8-0.8l-1.8,0.1l-0.8-0.8l-1-0.8l-0.9,0.1l-1.7,1l0.9,0.8l0.9-0.1l1.8-0.1l0.8,0.8l1.8,0.7
		l0.9,0.9l1.8,0.7l0.9,0.7L257.4,338z M193.8,57.6l0.1,0.8l0.8-0.9l-0.1-0.9l0.9-0.1h0.8l0.8-2.6l-1-0.9l-0.8,0.1l0.1,0.9l-0.9,0.1
		l-0.9,0.1l0.1,0.8l0.1,0.8l-0.8,0.9L193.8,57.6z M167.1,148.8L167.1,148.8z M272.9,359.5l-1.9,0.9l-4.8-0.1v-1h-1.9l-2.9,0.9
		l-2.9-0.1v-1.9h-1v1h-1.9l-0.9-1.9l-1.8,0.9v1.9l-0.1,2.9l3.8,0.1l4.8-0.9l3.8,1l-0.1,2.9l6.7-2.7l5.7,0.1l0.1-2.9l-2.9,0.9
		L272.9,359.5z M182.4,363.3v1l0.9,1h1.9v-1l-1.9-1H182.4z M180.5,363.3h0.9v-1h-0.9V363.3z M334,354.2l3.9-2.8
		c-1.8,0.6-3.4,1.5-4.9,2.8c-1.9,1.9-6.7,3.7-6.7,3.7l-3.8-0.1l-0.1,2.9h-1.9c0.5,0.5,0.5,1.3,0,1.9l0,0c-1,0.9-2.9-0.1-2.9-0.1
		c1.8,5.8,5.6,3,5.6,3l2.8,1l3.9-3.7v-1.9l4.8-0.9c-1.2-0.1-2.3-0.9-2.8-2C331.1,356,334,354.2,334,354.2z"/>
	<circle class="st1" cx="158" cy="247.5" r="83.3"/>
	<circle class="st2" cx="158" cy="247.5" r="36.3"/>
	<circle class="st3" cx="158" cy="247.5" r="6.1"/>
</g>
<rect x="101.4" y="243.5" class="st4" width="48.8" height="11"/>
<g class="st5">
	<path class="st6" d="M102.1,252.4v-8.6h1.4l1.7,6.1l0.3,1.3c0.1-0.3,0.2-0.8,0.4-1.4l1.7-6h1.3v8.6h-0.9v-7.2l-2.1,7.2h-0.8l-2-7.3
		v7.3H102.1z"/>
	<path class="st6" d="M114.9,243.8h0.9v5c0,0.8-0.1,1.5-0.2,2c-0.2,0.5-0.5,1-0.9,1.3c-0.4,0.3-1,0.5-1.6,0.5
		c-0.9,0-1.6-0.3-2.1-0.8c-0.5-0.6-0.7-1.5-0.7-2.9v-5h0.9v5c0,0.8,0.1,1.3,0.2,1.7s0.3,0.6,0.6,0.8s0.6,0.3,1,0.3
		c0.7,0,1.1-0.2,1.4-0.6s0.4-1.1,0.4-2.2V243.8z"/>
	<path class="st6" d="M117.4,252.4v-8.6h1l3.7,6.8v-6.8h0.9v8.6h-1l-3.7-6.8v6.8H117.4z"/>
	<path class="st6" d="M124.7,252.4v-8.6h0.9v8.6H124.7z"/>
	<path class="st6" d="M132.3,249.4l0.9,0.3c-0.2,1-0.6,1.7-1.1,2.2s-1.1,0.7-1.9,0.7c-0.7,0-1.2-0.2-1.7-0.5
		c-0.5-0.3-0.8-0.8-1.1-1.5c-0.3-0.7-0.4-1.5-0.4-2.5c0-0.9,0.1-1.7,0.4-2.4c0.3-0.7,0.7-1.1,1.2-1.5c0.5-0.3,1.1-0.5,1.7-0.5
		c0.7,0,1.3,0.2,1.8,0.6c0.5,0.4,0.8,1,1,1.9l-0.9,0.3c-0.3-1.2-0.9-1.8-1.9-1.8c-0.5,0-0.9,0.1-1.2,0.4c-0.3,0.2-0.6,0.6-0.8,1.1
		c-0.2,0.5-0.3,1.2-0.3,1.9c0,1.2,0.2,2.1,0.6,2.6c0.4,0.6,1,0.9,1.7,0.9c0.5,0,0.9-0.2,1.3-0.5S132.2,250.1,132.3,249.4z"/>
	<path class="st6" d="M134.4,252.4v-8.6h0.9v3.5h3.7v-3.5h0.9v8.6H139v-4h-3.7v4H134.4z"/>
</g>
</svg>
