<svg xmlns="http://www.w3.org/2000/svg" viewBox="0 0 451.64 366.36"><defs><style>.a{isolation:isolate;}.b{fill:#e3e3e3;}.c,.d{fill:#b2b2b2;mix-blend-mode:multiply;}.c{opacity:0.2;}.d{opacity:0.5;}.e{fill:#c34652;}</style></defs><g class="a"><path class="b" d="M344.06,330.27l1.69-.93.06.81,1.05.8.57-2.61-.05-.82,1.62-1.88,1.75-.12.06.88,1.64-.12,1.74-.12,1.64-1-.06-.87-.89-.82-.05-.81.82-.06-.07-.94-.82.06-1.8.13-1.68,1.06-.65.86-.81.94-3.39.24-.06-.88-1.05-.74-1.69.94-.81-.76-.07-.94-.88.06-.82.06-.05-.76-.06-.76-.94-.86-1-.75-.64,1.8-.75.82-.06-.76-.89-.87-1,.07-.06-.82-.75.05.12,1.75.05.76-.82.82-1.62,1.06.06.81-1.81.12-.81.94.06.87-1.57,1,.06.88,1.57-1,.87-.06.88-.06,1,.8,1.74.71.82-.89.06.83.87,1.63-.69.92.88,1.65-.7,1,.06.82,2.57-.18.87.82,2.57-1.06.64-2.63.81-.94ZM326.85,97.68l1.75.7.06.93,1.88.74,1.68.65.82-.82-.93-.82.75-1.81-.06-.87-.07-.88-1-1.5-1.63.11-1.87-.69-.93.06.06.83-.65,1.62ZM476.51,207.49l-.87-1.63-1.87-1.57-.81.06-.82.82-1.75,1.06-2.51.18-1.63.12-.88.06-2.68-.76-.06-.75-1-1.74-.76,0-.82.06-1.74,1.93-.82.82-1.57.11-1.81-1.51-1.88-2.57-.12-1.68,0-.71-1-.81-.93-.81-.06-.81-1.88-1.69-.24-3.38.7-2.62-.94-.82-1.69-.76-.19-2.62-.12-1.7-.81.89.06.87-1.44,3.62-1.63,2.69-2.51,1.05-2.5,1.06-1.64.94-2.8-3.26-.18-2.56,1.74-1,2.4-1,.93.75,1,.76.7-.88-.13-1.8-.06-.87.81-1.77.7-1.62-.93-1.71-1.75-.62-.07-.94-.92.07-.81,1-1.7.12-.76.06-.87.81-3.32,2-1.69.11-1-2.44-1.89-2.63-.93-.75.81-.89.94-.06-.18-2.56-1.12-2.56-2-2.44.82-1.82.82-.87.93-.07-.06-.93-1.05-1.46-.06-.87-.18-2.56-.07-.94-1.81.13-.12-1.63-.87-1.7-.94-.81-.94-1.69-.94.06-.05-.82-.87-.75-.82.87-1-2.5-2-3.37-1-3.21-1-1.69-2.74-1.56-.19-2.58-.93-.76-1.76-1.68-.11-1.58-1-1.81-.88-.75-1-.81-1.11-3.27-.81-.75-1.81-.75-.06-.88-1.7-.76-.93-.81-1.2-4.26-.92.07-.12-1.7-1-1.62.06.81-.94-1.63-.13-1.81-.86-.7-.95-1.74-1-1.41-1.75.13-.07-.93-.06-.82,1.75-.12.86-1-.24-3.45-.18-2.51-.12-1.75.82-.06.63-2.62-.25-3.5-1.93-4.08.71-1.76,1.51-1.86.75-1.81-1.05-2.45-.19-2.56L389,76.18l-1.7-.88.7-1.75-.82,0-1-.74-.94.07-.69,1.74-.76,0-.94-1.63-1.06-.86-.76,0-.93-.63L380,70l-.87.06-1.8.13-.71.87-.94.06-.75.06L374,69.44l-1-.69.92-.94-.07-1-1,.07-3.44.24-3.2,2.1-1.7.89-2.5.17-1.8.13.94.93.17,2.33-.81,1,.93.75,1,.8.88,1.76,1.75-.12.88.77-1.63,1.8-.64,2.63.83-.06,1,.87-1.64,1.75-1.68.12-1.87-1.51.81-1-1-1.68-.88-.77-.75.88-.75,1.81.07.93.11,1.63.06.88-.69,1.8-2.56.18-1.82.13.06.88-.64,3.32.06.88L350.89,96l.06.82.06.93-1.07-.86-.81-.77-1.5,2.75-.13-1.8-.12-1.7.7-.93-.82-.82-.11-1.52-.88.06-.93.07-.83-.87-.75,2.51.92-.07.13,1.75-.93.06-.06-.87-.82.06.06.87.06.88,1.93,2.5-1.74.12-.88-.82-.06-.92-.87,1-.76,1.7-.81.05-1.45,3.69-.87.88-.76.87.88.82,1,.81-1.62,1.87-.87.89-.71,0,1.76,1.63.11,1.57.12,1.7.06.92-.87.83-1.51,1-2.57,1.06-.69.93-2.87-1.56-1.7-.82-1.69.12-1.81-.64-.06-.92-.12-1.7-.05-.64,2.56-1.12-.06-.82,1.7-.12.69-1-1.69-.71L326,109l-.94-.82-1.75.13-.93-1.69-.82.06-2.57,1-1.68.12.06.88-1.81.13,1.87.74.88.82.93.76.06.93.13,1.75.92.58.05.82.76-.05-.63,1.85.06.76.19,2.69,1.74-.13,1.64-.11.81.75.06.88,1.06.87,0,.76,1,.87-.82.87-.87,1.77,2,1.62.88.82-1.63,1-1.06-.8-1.5,1-1.82.13.87-1.82.82-.06L322,127.28l-.7.93-1.75.12-1.81-.75.06.88-.75,1.81-.69,2.62-1.58.87-.88.89.12,1.75-.69,1.74-.81,1-.69,1,.81.71,2.75,1.56,1.69.76.06.82L319,145.6l1.12,2.5.06.81-1-.74-.87.06-.82.87-.75-.76-1.82.95-2.5-.64-1.81-.82-1.75.13-.06-.81-.82.06-2.63.18-2.56-.65.11,1.64-.86,1,.06.81L304,151l.81.76,2.69.69-.06-.88.87-.06,1.86,1.46,1.07,3.38-1.68,1.06-.77.87-1.81-.69-1.75.12-.75.06-1.93-1.62-.88-.82-.88-.82-.75,1.81-.93-.81-2.57-.7-.11-1.58-.88.06-.06-.87-.06-.81-.94-.88-.05-.81-1.07-1.68-.88-.77-.06-.87.76-.93L293,144l-.89-.87-.05-.82-.87-.7-.82-.87-2.69.19-.87.06-.76,0-1.06-.87,1-.07-.06-.81-1,.07-.76,0-.06-.87-1.75.13-.82-.83-1.16-1.62.93-1.64-1,.07-.82-.82.76-.05,1-.08.76,0,1.87,1.56.81.7,1-.07-.05-.75,1.68.64,1.76.7,1-.07.76-.05.87.82,1.76-.13,1.75-.12,2.57.7.81-.94.81-.94.88.82.06.88,1.75-.13,1.63-.11,1.75-.13,1.62-1.87.83-.06,1.69-.95.75-.81-.05-.81.87-.94.76-.06-.06-.87-.06-.88.87-.06.57-3.5-.93-1.69-.12-1.7-.88.06-.12-1.68-.7.86-1-.74-.13-1.75-1.63.12-.93.06-.06-.94-2.63-.57-1.69.88-.82-.71-.94-.86-1.81-.75.07.87-.88-.81-1.85-1.35-2.51.18-2.81-1.56-2.45-.76-1.8,1.06-6,.42-.76.06-1.1-.86-1.64,1-.06-.93-.82-.77-.82.89-1-1.63-.82.06L272.59,111l-.71,0-.75,1.81-.88.06-1-1.68-.81,0,.18,2.63-1.76.12-.94-.81-1.39.1.45-2.67-.16.13-1.75.12-.87.06.81-.87-.12-1.75-.93-.76.87-.06.82-.94-.07-.87-.06-.88-.87.07-.06-.88-1.75.12-1.64,1-.12-1.75-1.75.12-.94-.81-1.62,1.87.06.88-.75.93-1-1.69-.06-.87.81-.94-.05-.82-.13-1.75-.87.06-1.64,1.88.06.82-1.69,1,.19,2.62.06.88-.94-.82-.06-.87-.87-.82-.06-.87-.07-.88-.05-.82-.88.06.81-.94-.93-.81-2.5,1.94-.94-.82-.76.94.06.82,1.76.75-2.51,1.06-.94-.81-.81.93.12,1.75-.87.06.93.82-1.62,1.82-1-1.64-.75.93.06.83.06.87-.82.94-.94-.81-.87.06.06.87-.94-.81-.87.06-.75.93.06.81-.88.06-.81,1,.12,1.69.94.76.12,1.8-.94-.86-.93-.82-.88.07-.69,1.85-1.06-1.73-.76.93.13,1.75.94,1.69.06.81-.88-.75-1-1.69.13,1.75-.76,1.75-.94-.81-.11-1.64-.82.89.18,2.56-.81,0-.94.07-.75.88.88.88-.75.93-.83.88.06.87.95.76-.82,1-2.63.18-.06-.92-.81,1,.06.82.12,1.75.06.81-.69,1.8-.12-1.74-.12-1.64-.06-.92-.81,1-.88.07-.87.06-.82.88.88-.06.93.75.06.94-.94-.88-.8,1-1-.88-.87.07.12,1.74-.75,1,2.5-1.12.94.88.06.81-1.75.12L211,138l-.76.94.06.87,1.7-.12.12,1.7-.88.06-.82.06-.81.94-.82.93-1.81-.75-.81.94.06.87.06.82-.81.06-.83.87,1,.88-.82.94-1.75.12.94.81.93.82.83-.94.12,1.68-1.77.13-.87.06.06.87.93.77-.81.93-.87.06-.81,1-.82.89.94.86.06.76-.82.93-.87-.81-.05-.76-.83,1.7.07.87.93-.06.13,1.74-.88.95-.81.05.12,1.7-.81.94-.88.06.06.82.88-.06.06.93.06.87-.81.89-1.76-.71-.06-.87-.94-.87-.81,1-.81.94-.93.06-.82.06.12,1.7-.88.88-.64,1.8-.87.06-.88.06.07.94.12,1.63-.94-.76-.81.89-.81,1-.94-.86-.75,1-.88.89-.81.06.13,1.75-.94-.81-.87.06.93.81.07.88-.88.06-.94-.82-.76.94-.87.06-.93.06-.82.06.06.88.94,1.62-.82.06-.94.07L174,181.4l-.76,0-.81.94.94.82.06.88-.88.06-1.75.12-.8,1.82-.12-1.75-.82.06-.82.93-.87-.81-.94.06-.81.06.06.87.07.88.86.75.94-.07.06.88-.93.06-.75.94-1.82.12.06.83,1,.86.06.82-1.81-.7.06.82.06.88.93,1.62,1.81-.12.07.93-.88.07-1.81-.82.06.94.06.81.93,1.64,1,.81-.88.94-.87-.82-.81.94.06.87,1.75.76-.81.06-.88.06.06.87.94.82.87.76,1.81-.13,1.69-.94L167,204.47l-.81.87-.88,1,1.94,1.63-.87.06-.94.06-.75.87-.94-.75-.82.06-.81,1.7.07.92-.71,1.76.89.87,1.56-2.75,1.69-.12.06.82.12,1.81-.81.05.12,1.7-.81.87-.06-.81-.77.87.07.87.12,1.75.06.89,1.82,1.56,2.68.69-1.69,1.83,1.88.8.75-1,.12,1.75,2.62-.18,1.75-.13,1.69-.94.06.82,1.57-.94.88-1,.69-1.75.87-.95L182,219l-.06-.81.76-.94,1.75-.12.06.88.93.75,1.69-.93-.12-1.76,1.56-1.87-.12-1.75-.93-.7,1.62-1.92.82-.89.8-1,.88-.07.12,1.75-.81.94-.87.06.11,1.69.88-.07,2.63,1.58-1.45,1.85.29,0-.35,0,.13,1.76,0,.81.13,1.75.06.87.06.83.06.92.06.83.87-.07.13,1.75.7-.92,1,.8-.82,1.82.06.81.06.87.06.83.13,1.8.05.82,1,.81-.87.94.12,1.7,1,.8.82-.05.19,2.62,1.85.68.07.88.06.87-.88.06.06.88-.86.89.06.87.06.87,1,.75.07.94.93.74.06.88.13,1.75-.82.93.94.77.81-.89.94.76,2.51-1,.93.76.81-.06.94-.07-.06-.82-.12-1.75-.12-1.75.75-.86.87-.06.88-.07.8-1-.87.07.82-.88,1.69-1,1.75.76.06.81.88-.06,1.74-.13.88-.06-.12-1.68-.06-.88,1.51-2.69-.12-1.68.82-.94.81-1-.06-.81-.88.06.75-1.82.82-.87-.94-.82-.06-.87-.06-.82.81-1-.06-.88.76-1.75-.06-.82-.07-.93-1-1.63,1.69-1-2.69-.63.81-1,1.82.8.87-.06,1.56-1.87-.06-.87-.06-.88.87-.06.88-.06.93.81.77-1.81.75-.87,1.69-1-1.81-.75-.06-.87.87-.94.81-.06,1.57-2.63-.94-.87-.12-1.69-1.62.94-.06-.82-.07-.93-1-.76-.87-.75-.06-.87-.06-.88-1.7,1-.94-.81-.94-.88-.12-1.68-.93-.76-.06-.88-.88-.82.81-.05.82-.94-.13-1.75-.06-.87-.12-1.7.88-.06-.94-.75.81-1-.12-1.69.81-.93-.12-1.75-2.62.19-.12-1.7.81-.94L223,184l.81-.93.89-.07.75-.86.94-.07,1.63-1-.94-.82,1.62-1.88-.93-.81,1.75-.13.75-1.74.89.81,1.68-1-.88-.81.76-.93.88-.07,1.68-1-.12-1.74-.06-.83-.06-.81.75-1.81.81,0,.75-1.81.82-.94-.94-.76-.06-.88-.12-1.75-.12-1.75.81-.88-.06-.88-.06-.87.81-.93,1.76-.13-.12-1.75-.12-1.68-.06-.82.81-.06.93.76,1.63-1.87.94.86.87-.06.88-.06.88.76.75-.88-.13-1.8-.93-.76-.93-1.63-.06-.87-.12-1.75-.13-1.75.76-.88-.88-.82-.06-.87-.94-.81-.06-.88-.06-.82-.06-.88H244l.06.87.06.83.06.87.93.81.07.88.88.81-.76.89.12,1.75.12,1.74.06.88.94,1.62.94.77.13,1.8.87-.06.93.75,1.75-.12.07.93.86.7.06.87.06.88.13,1.75.06.87.93.76.06.88-.87.06-.81.06-.88.06.07.87-1.57,2.75.06.82-.75,1.75-.81,1-1.58,1.87.06.81.06.82-1.68,1.05-.82.88-.81.94.06.88.12,1.74-1.62.93-1-.74-.87.06.12,1.68-1.63,1.89.13,1.75.05.81.94.81.12,1.7-.81,1,.06.83,1.81.75.06.81.12,1.81.18,2.51.13,1.75-1.69,1,.12,1.75.06.87,1.93,2.38,2.57-.18.94.88,1.75-.12.87-.07,1,1.69.12,1.63.94.87.88.76,2.62-.18.88-.07.75-1.8.75-.89,1,1.69.81-1,.81-.88,1.71-.94,2.5-1,.87-.06.87-.06-.06-.88-.07-.94.82-.87,1,1.69.76-1,1.69-.93.75-1.76.94.76,1.8-.13.75-.05.82-.89.86-2.07.14,1.89,1.68-.12,1.69-1,.7-.05.07.87-.59,1.75.06.88,1.63-.12.9.93,1.85.68.71-.86,1.69-.12,1-.07.82.75.87-.06.12,1.7-.87.06-1.8.13-1.7.12-2.55.18.06.87-.83.06-.06-.87-.86.94.05.81.07.87.06.88-.71,0-1-1.69-.81.94.06.87.06.87.12,1.7-.75.06-3.5.24-.83.06-.93-.81-.81.06-1.69,1-.06-.87-1.75.12-.76.06L265,207l-.93.07-.81.94-.82.05-1.69.12-.94.07-.81.06-.94.06.06.81.07.94-.76.06-.87.06-.88.06-.81.94.06.81.06.87.06.88,1.75-.13.05.71.06.87-.87.06,0,.81.19,2.69,1.87,1.51.76,0-.06-.76.88-.94.81-.06,1,.81-.82,1.76.12,1.69.05.64-.91.3.06.87.06.88.06.82.12,1.68.06.88.12,1.75-.81.93-.76.89-.88.06-1.87-1.58-.88-.75-.13-1.81-1.86-1.56-.81,0-.89-.76-.06-.88-1.68.12-1.69,1-.88.89-.81.06-.64,1.74.13,1.81-.76,1.75-.82,1.64-.51,5.26L244,242l.06.87.06.83,1.06,2.56.19,2.62,1.81-.13,0,.76.82.82.81-.05,1,.81.42,0-.29.37-1.69.12-1.05.08h-.23l-.29-.67-.77-1-1.27.34-.87.06.06.81.87-.06-.75,1.76-.81.93-1.69.12-.06-.87-.06-.83-.06-.87-2.5,1.88.06.88-1.43,1.33,1.55.42.06.81-.81,1-.82.06.06.87.06.81.06.87-1.75.13-.87.06-.07-.87-.87.06-2.51,1.05-1-.81-.05-.81-.07-.87-.06-.94-.88-.75-.07-.88-2.62.19-.81.94-.88.06-1.74-.76-.82.94-.87.06.06.81-.88.06-.82,1-.94-.87-.74,1-.82.94-.81.87-.88.06-.81.94-.87.06.06.88-.83.05-1.74.13-.88.06-1.68,1-.75,1.82-.76.87.87.75.07.94-.24-.1-1.29.09-1-1.16V268l-.14-2-2.63.18-.12-1.76-.12-1.75-1.7.12-.93.07-.06-.88-.88-.75-.06-.87-.93.06-.76.93-.92.07-.83.06-1.69.93-1.69,1-.87-.82.06.88-.87.06-1.75.12-.87.07-1.83-.75.94-.07-.06-.81.83-.06-.06-.87-.07-.94-.82.06-.94.06-.75,1-1-1.69-.83.06-.92.06-.07-.87-.82.06-.92.06-.06-.87.86-.94-1-.76-.94-.81-.27-.22.07-.06v0l.44-.48.87-.06-.93-.81-1-.81.87-.88.87-.06-.93-.81-.06-.83.87-.06-.06-.92-.06-.83.89-.06.74-.93.94-.07-.06-.87,1.62-1,.76-1.76-.94-.82.81-.93.88-.07.06.88.87-.06.77-.94-.07-.87-.06-.87-.88-.75-.87.06-.88.06L185,239l-.87.07-.06-.88.81-.94.87-.06-.93-.76-.07-.92-.87.06-.81.06.06.92-1.81.13-.81.06-.83.88.95.81.06.88-.95-.81-.81.93-.06-.87-.06-.88-.93.07-.69.93.06.87-.88.06-1-.8-.81.05-.06-.87-.87.06.06.87-.81.94.06.88.12,1.68.06.87.06.88.06.87.06.83.06.87-.81.94.93.81.88-.06.06.87.93.76.07.93.06.82.12,1.69.05.76h-.23l.12,1.75.06.87.87.77.06.88-1.68,1-.81.06.06.87.81,0,.06.81.06.94,1.81.75-.75.86.87.82-1.75.12-1.68.12.06.88.12,1.75.07.88-.82.88.06.81-1-1.56-.06-.89-.07-.87-.87.06.06.87-.82.06-.06-.87.76-.94-1.83-.75-1.68.12-1.75.13-.87.06.06.87-.81.94.06.87.87-.06.06.89.94.75-.12.12-.87-.75-.87.88-.82.05-.25-3.44-.87.06-.88.06-.74,1-1.69.94-.06-.82-.06-.94-.88,1-.81.05-.87.07-1.7.94-.82.94.06.81.06.87.06.88.06.87.13,1.75-1.57,1.82-.87.06-.88.06-.12-1.69.81-1-.87.06.82-.89.81-.93-.06-.88-.94-.81-1.7.12-.8,1.81.12,1.7-.76,1,.06.82-.92.07.06.87-.76.93-1.75.12.12,1.75.87-.06.06.81-1.62,1-.12-1.69-.94.07.06.81.06.87.12,1.7.94-.07.83.82-.72.05-.81.88.06.87-1.75.12-.88.07-.81.05-.06-.87-.93-.75-.89.06-.06-.93-.88.06-.81,1-.94-.88.07.94-1.63.93.07.87.06.94.05.65-.07-.06-.06-.82-.06-.87-.06-.88-1.75.13-.88.06-.87.06-.88.06-.81.06-.81.94.06.87.06.81-.76.93.06.88.13,1.76.06.88-.93.06-.87.06-.82.87-.89.07-1.62,1-1.69.95-1.75.12-1.7.12.07.93.87-.06,1.76.7.93.81-.87.06.07.93-1.77-.81-1.75.13-1.74.12-.07-.88-1.75.13-1.74-.7L109.6,297l.06.93-1.82-.8.83-.89-1-.81-.06-.81.82-.94-.88.06-.81.06-.94-.82L105,293l.06.89-.88.94.12,1.68.06.82L105.4,299l-.88.94.07.92,0,.76,1,.87.06.81-1.75.13-1-.75-.81.06-.82.06.75-1-1.69.12-1.75.13-.93-.7.05.76-1.68.12,0-.76-.13-1.8-.94.06-.81.06-.06-.82-1.81-.8-.81,1,.06.82-1.7.12-.06-.82-1.75.12-.94.07-.87-.87-.88,1-.76.05-.87.06-.87.07,0,.82.88-.06.87-.07.76-.05.06.87.07.93-.76.06,0,.75-.87.07-.87.06-.81,1,.87-.06.93.74,1,1.69-.06-.87,1.76.75-.06-.87.81-.06.06.87L89.44,308l.94-.07.06.88.81-.06.06.87.06.88,1.76-.13,1.75-.12-.87.94.93-.07.87.76-.68,1.81.81-.05,1,.81.06.87.76,0,0,.81-1.57,1.87.06.87,1.06,1.63.76,0,.12,1.75,1,.81.06.81,1.81.75.81-.94.06.87.07.88-.82.94.88-.07-.82.94.13,1.75.06.82-.82.94.06.87.88-.06.06.87.06.83.94.81.06.88.12,1.74.06.81-.93-.74-.07-.94-.06-.81-.93-.82-.07-.87-.93-.76-.06-.88-.86.94.18,2.58.06.81-.7,1,.12,1.68-.94.07,1.76.75-.7.88-1.75.12.07.93.06.82-.88.94.06.88-.81.06.12,1.68-.87.06-.83.94.06.87-1.62,1.89-1.52,1.75h-.17l-1-.82-1.63.11-1.81-.75-1-.81-.82.06-.93.07-1.69.12-.94-.82-1-1.62-1.7.12-.94-.81-.81.06-1.75.12-.94.07-.86-.77-.94.07-.81.05-.89-.86-1-.81-.82.06-1.81-.7-.93.06-1.76-.8,0-.76-1.75.12-.94-.88-.82.06-1.69.12-1-.74-.94-.82-1.62,1L54.06,339l-.87-.82-.06-.88-.06-.82-1.69.95-.87.06-.94-.76.06.82-.82.06-.88.06-.87.06.94.82-.82.93-.81.94-.06-.88-.94-.81-.87.06-.88.07-.88-.82L42,339.85l-.94-.81-.81.93-.81.94.93.81.06.81.82-.87.06.81-.81,1,1.75-.12,0,.76-.81,1,.06.83-.81.93.87-.06.07.93-.82.88-.93-.76-.82.88.12,1.69h.12l0,.76.07.94,0,.81-.74.93.06.88.12,1.76-.82.87-.76.93L37.5,360l-.87.89-.76.93L36,363.6l-.81.94-.75,1.81-.82.82-.81,1,.06.82-.75.93-.82,1.81-.81.06-1.76.13-.82.87.07.87.06.88.06.88-.75.94-.81.93.06.81.06.88,1.68-.12.94.81.82-.06.13,1.75.06.88-.76.93-.82.82.06.94-.75.87.88.88-.7,1.74.07.87-.88.07-.88.88.07.93-.69,1.75-.88.95.06.87.94-.07.81-.05.88-.94.93.81.06.82.81-.06.88-.06.88.82,1.81.75,1,.81.75-.93.06.87.88-.06,2.41-1,.86-.06.94.88.93.74.87.82.07.88,1.8.7.94.86.06.82-.81.94.87-.06.88-.06-.76,1.74.07.94-1.75.12.93.75.12,1.76.94.82L46,409l.93.74,1,1.69.77-.93-.07-.88,1.7-.93,1.74-.12.82-.94.87-.06,1.76.75.88-.06.75-1.82,1.68-.12,1.81.76.94.82,1.81-.13.93,1.62,1.7-.12,2.62-.18.87-.06,1.82.75.76-.94,1.75-.12,1,.81.83-.06.06.88.81-.06.88-.94-.07-.88-.06-.87,1.69-.93-.06-.88,1.75-.12.75-.95,1.75-.12.82-.06,1.81.76.88-.95,1.62-1-.12-1.75.76-.87.93-.06.76-.94-.06-.87,1.69-.95.81-.06,1.75-.12,1.62-1.87-.87-.82-.06-.87-1-.75-.06-.94-.06-.81L94.24,390l-.12-1.75.87-.94.75-.93,1.69-1L99,383.52l.88-.06.88-.94,1.62-1.88.75-.86,1.69-1.06-.06-.82.87-.06,0-.82.8-1,.88-.06,1.63-.11,1.82-.13,1.68-.12.94-.07.81-.06.87-.06,1.64-1,.94-.07.75-.88,1.75-.12.87-.06.82-.94.87-.06.81-.94.82-.93-.06-.81.76-.94-.06-.87-.13-1.76-.15-.18.18-.17-.42-.26-.28-.46-.2-.45.82-.93-.94-.82.75-1.81-.06-.82.81-.94.88-.06.81-.94.88-.06.81,0,.88-.07.82-.93.81-.94.92-.07.89.82.94.81.81-.05,1.75-.13.12,1.75.81-.93.88-.07.81-.93.87-.06.06.87.07.87.82-.05.87-.07.06.83.06.87.82-.93.93.81.94.81.06.88.94.81.82-.06.87-.06.93-.07.82-.06.93-.06.76-.93-.06-.88-.06-.87.87-.06.81-.06.88-.06-.07-.88.94-.06.81-.06.07.87,1.45-1.62h0l.74-.4.81-1,.88-.06.87-.06,1.69-.93.81-.94-.06-.88.75-.93.81-.93,1.75-.13.89-.06,1.87,1.63.75-.94,2.75,1.57-.06-.88.81-.93.87-.07.88-.06-.82.94.07.87.93.82-.82.87,1.82,1.58,1.18,3.48,1.06,3.32.94.83,2.05,4.18.88-.06,1.87,1.63.94,1.69,1,.69.88.88,2.74,2.38,5.57,4.83.92-.07,1,1.69,1.75-.12,1,1.63.82-.93,2.75,2.44,1,.81.88.75.81-.06,1.87,1.63.94-.07.87.82.12,1.7.07.92.05.76,1.82.82.87-.07.82,0,1.87.74.88.76.06.93.93.75,1,2.52,1.12,2.55.18,2.58-.87.94-.81.05-.88.07.06.87.06.87.06.81.06.83-.76,1-.81.89.06.92.93.76.83-.06.87-.06.81-.05.88-.89.81-.06-.06-.93,1.75-.95-.06-.92-.12-1.64.81-.93.77-.94.81-.93.87-.06.81-.06.94-.07-.06-.87-.06-.82-.06-.88-.12-1.75-.07-.87-.06-.88-1-.74-1.63.93-1-1.39-.46-2.26.2-1.42.88-.06-.07-.94.82-.82-.87.06.81-1,.75-.88.94-.06.81-.06.05.82,1.82.8.87-.06.88-.06.87-.06.88-.06.05.76.07.93.88.82.06.81,1,.87.76-.05.94-.07.81-1-.12-1.68-.12-1.7-.07-.92-1.87-.7-.88-1.69-1-.81-1.76-.76-1.75.13-.93-.75-.87-.82-2.75-.68-.87-.82-.94-.81-.87.06-1.7.12-.93-.76-1.82-.75-.93.06.87-.94.81-.06.88-.94-.12-1.74-2.75-.64-.81.06-2.57.18-1.75.12-1.75-.75L207.94,374l-.88-.88-1.87-1.63-1.06-1.56-1.75-1.63-.13-1.75.76-.94-.94-1.62-1-1.7-.06-.87-.88-.82L200,359,199,359l-1.75-.8-1.81-.75-.87.06-1.81-.7-.07-.93-.87-.7-.07-.94-1-1.62.81-.94-.06-.87-.06-.88.76-.88.87-.94-.07-.87-.92.06-.89-.81-.06-.81-.87.06.81-1,.82-.06-.12-1.7,1.75-.12.87-.06.88-.06.87-.07.82-.93.81-.06-.06-.81.94-.07.82,0,.06.81,1,.81-.12-1.69.82-.06.18-.23.75.22.76-.93.06.87.06.88.07.87-.76.94-.88.07-.82.87.94.81.06.88.13,1.74.93.77.06.87.88.82.76-1.81.81-.89.75-1.81-.06-.87.88-.07.93.82.94.81.87.82,1,1.63-.76,1.75.07.94.11,1.68,1.75-.12.07.94.87-.07.88.71,1,.86-2.63.18.93.76.89.82,1.06,1.68.81-.06,1.87,1.58.06.87,1.81.75,1.69-1,.87-.06,1.82,1.63,1.87,1.56,1,1.69,1.68-.12,1,1.64,1.81.8.88-.06,1,1.57.81-.06.94.88,1.75-.13.87-.06,1,.75.06.93.82.76.93-.06.12,1.69,1.7-.12.06.88.87-.06.87-.07-.12-1.69-.06-.88-.05-.81-.07-.94,0-.05.06.87.06.81.06.88.12,1.7.94.86.06.82.06.88-.88.06.07.87.06.88.06.82.06.87.06.88.12,1.75-.81.87.06.87.06.88.94.81-.82.94.06.82.88-.06.06.92-.87.07.12,1.69,1.75-.12.88.81,1.75-.12.06.81,1,1.69h-.11l.93,1.64.93.81,1.7-.12.06.88.13,1.74,1,.81.75-.93.94-.07.8-.05.94-.07.07.87.05.83-1.74.12L255,401l-.75.93.87.82.06.87.06.88.94-.07,1.81.68.75-.86.88-.06.82-.06.06.81,1.69-.94.87-.06.93-.06,1.7-.12.86.75,1,.76-.06-.83,1.69-.12.88.77.94.86,1.8.7-.74,1-.94.06-.81.89-.89-.77-.06-.92-.93-.77-1.69.95-.06-.82-.81.06-.94.06-.76.06-.93.06-.81.89-.88.06-.87.06-.82.06-.88.06-.74,1,.05.83.94,1.69.87-.06.88.75.94.87.06.83.12,1.75-.81.93.93.75.07.87.06.88,1,1.69.87-.06.93-.07.69-.93-.82-.82-.06-.87.7-.93,1,.81.06.87.06.88.06.87.87.77.94-.07.93,1.69.88-.06-.12-1.75-.06-.82-.06-.88.76-.93.12,1.75.87-.06.12,1.69.94-.06,3.5-.25-.06-.87-1.81-.7-.06-.88-1-.81-.12-1.74-.81.05-1.06-1.62-.94-.81-.12-1.7.88-.06,1,.76.07.87.87.82.93-.07,1.69-1,1.63-1-.13-1.76-1.62,1.06-.94.06-.87-.88-.06-.81.75-.93,1.63-1.82.87-.06,1,1.64,1.81.75-.07-.88-.06-.87-.12-1.75-.12-1.75-.93.06-1.76-.7-1-1.62-.81.06-1.81-.75-1.81-.75-1.81.12-.89-.81.77-.88.81-.94-.06-.88-.88.07-.94-1.69.76-.94.87-.06,1.75-.12,1,.81.06.87.06.87.82-.05.81-1.82-.94.07-2.74-2.39L270,391.25l-1.76-.7-.93-.81-.12-1.7-.07-.92-.06-.82-.87-.82.75-.93,1.64-1,.87-.06.12,1.75,1,.81.94,1.69,1.06,1.63,1.81.75,1.74.69-.06-.81-1.74-.75-1-.88-.05-.75-.07-.93,1,.86.86.7.94.88,2.68.69-.06-.88-.92.07-.95-1.64-.94-.86.88-.07.82-.05.12,1.68,1.75-.13,1.69-.88.81-1-.87.06-1.81-.7-1.81-.75-.88-.82-.94-.81-.06-.88.87-.06,2.58-.18.87-.06-.06-.81-.06-.88.81-.93.94.81.87.82,1.81-.13.82-.94L284,379l.88-.06,1.63-.12,1.81.76,2.62-.19.94.81.81-.06,0,.06.94.81,1.75-.12.87-.06.76-.94.06.88.06.87-.82.06-1.62,1.87.93.76.82-.88,2.5-1.11.82-.88,1.69-1-.07-.88.76-.86,1.69-1.07.82-.87.81-1,1.69-.88.81-.06,1.82-.13,1.68-.12.88-.06.81-.93-.13-1.75-.87.06-1.81-.75-.81.06-1.94-1.62-1.68.11-.06-.82-.06-.87-.93-.75-.3,0-.06-.82-.12-1.75-.88.06-.93-.75-.06-.87-1.75.12-.76.93-.12-1.75-.06-.87.76-.88.87-.06-.06-.93.81-.88-.93-.82-.12-1.68.87-.06-.12-1.75-.12-1.7,1.75-.12,1.75-.13.75-.93-.74-1.49.09-.34-.06-.82.69-1.74-.87-.88L305,344.7l-.07-.94.75-.86.82-.94-.88.06-.81.06-.06-.87.69-1.76-.06-.87.81-.94,1,.81.13,1.75.81-.06.81-.94-.06-.87.87-.06.75-1.81-.24-3.45-.55,1.4-1.27-1.5-.24-.09-.06-.82-.06-.88-.93-.76-.06-.87.81-.94.88-.06.06.87.81-.93,1.63-.12.81-.94.88-.06.81-.05-.12-1.69-.88-.88-.87.06-1.75-.64-.06-.76.83-.05.81-1,.94.86.86.7.82-.05-.17-2.51.8-1.82.87-.06.82.82,1.69-1,1.63-1.82.82-.05.06.75.92-.06-.11-1.63-.07-.88-.11-1.68.94,1.62.87.82.06.88,1.06,1.63-1.75.12.06.87.07.88.05.82,1.82.8,1.68.65,2.57-1.88,1.51-.93.88-.06.88-.94,1,2.56.81-1,.75-1.77-.06-.87.76-.05,1.05.8.76-.93.81-.06,2.63-.18.06.87.82-.06-.06-.87.87-.06.58-2.63,1.69-1,.12,1.75,1-.07,2.32-2.8,1.7-.93.64-.93.87-.94.82-.05,1.86.74.76-.93-.88-.82,1.57-.93.76-1.75.87-.94.81-.06.76-1-.06-.81,1,.75.76-.06.06-.81v-.12l.76-.88.87-.06.72-.75.11,1.63.93-.06,1.64-1.76.76-.82,1.63-.11.11,1.45.06.94-1.57.93-1.75,1.06-.7.93.82.76,1.06.8-1.7,1-1.74-.71-.88.07-.88.89-.76,0,.06.87.82.82,2.58-.18,1,.81.06.81,2.64.69-.82.06-.94.95-.82-.82.13,1.75.81.7-.69,1-1-.87-.82-.71-.82.82.13,1.82-.88.94,1,.76.12,1.68-1.7.12-.75,2.57.06.88,1.75.75,1.88.75.76-.06,1.68-.11,1.06.8.06.82,1.57-.11.82-.88.93.76,1.75-.13.06.88,1.81.69,1.69-.12.88.81.88.82,1.75-.13,2.75,3.27,2.73.62.83-.05.87-.07.88.89.82-.06.86-1,.82-.05.94.87,1.82-.13.11,1.69.81-.06,1.7-.12.82.82.07.89,1.1,1.5.87.82,1.87,1.57.82.82.06.93-.76.05-.75,1.76.06.81.06.87.87-.06-.06-.87.76-.06,1-.07,3.33-.23.87-.88.82-.06.75-.93,1.76.76.93-.07.05.81.06.88.89-.07,1.69-.11,2.63.64.06.92.82.77-.64,1.74.06.87.88,1.7.94.88.93-.07.82-.06.88-.06.81-.06.82-.05.81-1,1,.87.06.81,1.7-.12.87-.06,1.81.75,0,.7,2.63,1.51,1.81.82.87.75,2.57-.18,1.81-.13.76-.05,1.7-.94,1.68-.12,0-.13v0l.59-1.65-.07-.87-.05-.71,1.76-1,1.55-1.87-.06-.88.76-1.81.7-1.74,1.8-.13.63-1.8.94-.06,1.76,1.63,1.05.8.12,1.69-1,.07,1.05.8.95,1.76.06.81-1.75,1-.82.06,1.86.58,1.63.76.88-.94.87-.06,3.45.63-.94-.81.82-.77-1.81-.75-.88-1.69.7-.93-.06-.88-.07-.87.88-.06.12,1.75.75-1.82-.12-1.68,0-.82-.94-.87-1-1.63.87-.06,0-.81-.12-1.7-.07-.93-.93-.81-.07-.88.82-.88.75-1.87.83-.7,1.69-.12-.06-.88-.82-.82-1.75,1-1.75.12-1.63.12-1-1.62-1.69.11-.88-.81-1.12-1.68-.88-.82-.87-.76-1-.86-.75.05-1.77-.66,0,0h-.11l-.83.06-1.69-.76-1.86-.74-1-.75-2.56-1.52-1.81-.75-1.82-1.63-.24-3.38-.93-.7-1-.86-.13-1.7-.87-1.76-.89.07-.05-.76-1.81-.75L426,307.3l.06.88-.75.93-1-.81-1.75-.75.64-3.5-.06-.82.75-.93-.12-1.69.87-1-1-.75-.16-2.39.81-1.88-.12-1.68.81-.06.88.75,1.56-1.87.87-.94.76-.81.76-1.81.81.82.82-1.82-1.12-2.5-1.64.11-.81.06-1.8-.69.68-1.87.88-.87.81-.06-.87-.82L424.83,279l-3.55-2.22-1.76-1.63-.87,1-1.8.13.06.81-.77.93-1.74-.75-.88-.75-.12-1.7-.07-1-1.86-.68-1.63.11-.82.87-.18-2.5-.12-1.75,1.56-2.75-2.62-.53-.88-.86.75-1-.18-2.51-.87-.87-1-1.4.74-1.86.82-.06-.19-2.62-.81.05,1.45-2.68,1.82.81.87,1.58,1.86.75.89.87,1.56-1.92-.06-.88-.93-1.64-1.06-2.5-1.81-.76,1.69-.93L414,248l-.07-.88,0-.82-.26-3.55,1.7-.12.87-.89.83-1.63,1.51-1.87.69-1.69-.07-1-.06-.82.94-.06.87.76.89.93,1.62-1.11.82-1.7.69-1.8,1.57-1,.94-.07,1.94,1.67-.07-.92.64-1.75.88-.07,1.68-.11.93.76,1.76.75,2.56-.18.94.86,1.7-.12.92-.06.82.77-.12-1.75-.82-.82-.06-.82.76-.06,4.44.51,2.62.7.76-1.76-.07-.88-.06-.87.76,0-.06-.81-.82-.82,1.64-.12,1.75-.12-1-1.7.87-.07.87-1,1.75.81,1.7-.12-.12-1.75,1.57-.11-.82-1.64.64-.8.82-.89,1.8-1,.89.81.87,1.53,1.75-.12,3.39-1,.81,0,.94-.07-.06-.82-.12-1.69,1.5-1.05,2.63-1.06,2.38-2.69.7-.93Zm-229.68,13.6.94-.07.88.89,0,.81.88-.88-.06-.94,1.68-.12.83-.06L252,220l.75-.94.94-1-1.87-.7-2.39,1.93-1.06-1.68-.75.88.07.92.06.88-1.7.88Zm3.07-6.25.12,1.68.82-.87.76-.93,0-.71-1.76-.75-.75.93-.93.07,0,.7.93-.06ZM39.67,344.29l.87-.06,0-.76-.88.06Zm81.89,47.37-.93-.82-.07-.87-.93-.81-.81.93.06.88-1.75.12-.82.06-.88.06.06.87,1.7-.11.93-.07.94,1.69.88-.06.06.82.87-.06.82-.88-.07-.88.88-.06.81-.94-.87.06Zm8.57-2.37-.88.07-.88.06-.94-.81-.87.06.06.87.94.81.87-.06.94.81.89-.06-.07-.87Zm-23.15,6-.81.06.06.87-1.75.13.07.87.06.88,1.69-1,.81-.06-.07-.87.88-.94ZM58.9,133.74l.88.87,1,.81.87.76.87-.06.89-.06.06.92.06.83.06.87.06.81.87.82L66.4,142l.94-.07.81-.06.06.93.05.76,1.76.75,1,.81L71,144.2l.81-.94.06.87.88-.06,1.57-1,.94-.06,1.81.75.75-.93,1,.8,1.7-.12.06.88,1.62-1,.88-.94,1.81.76.76-.06.86-.94.94.81.06.88.81-.94.88-.06,1.63-1,.69-1.75,1,.86.81-.05,1.81-.13L95,139.1l.81-1,.81-.06-.06-.87-.06-.81.83-.94-.06-.82-.95-.87-.06-.82-.06-.87-1.69.12-.06-.93.82-.82.86.7,0-.76-.87-.82-.06-.87-.07-.87,1.64-1-.06-.87-.83.93-1.68.12-.06-.87-.06-.82.81-.94-.06-.87-1.81-.76.06.88-.88.94-.74.93-.94.07-.87-.82-.07-.87-1.63,1-1.69,1-.87.06.68-2.68-.93-.82.06.88-.8,1.81.06.88-.7.87-1-.75-.12-1.75.88-.94-.12-1.7-1-.86-.74,1-1-.86.07.93-.75.88-.82.94-.88.06-.07-.88,0-.82-.13-1.75-.86-.75-.83,1.7-.69,1.8-.93.07-.06-.82-.81,0-.94.07-1.45,2.69-.06-.88-.88.07-.06-.88.82-.88-.07-.93-.06-.82-.12-1.75.87-.06.76-.06.82-1.81-.94.06-.06-.8.88-.95-.06-.82-.13-1.8-1.81-1.58-1.75.13.93.81,1,1.69-.87.06.06.87.06.83.06.87-.82.87-.93-.75-.12-1.69-.87.88-.12-1.69-.12-1.75.06.82-.83.06-.93-.76.19,2.62-1.81-.75,1,.81.86.76-1.68,1-.81.06-.06-.87-.06-.83-1-.81.06.88.06.82-.81.06-.06-.82-.83.88.06.88.89-.07.81,0,1,.74,1.75-.12.88.88.93.75.07.94.82-.06.93-.07.11,1.63-.92.07-1.76-.7-1.75.12,1,.76.87.87.94.76-.82.93-.81.06-1-.81-.86-.76-.94.06-1.77-.8-1.74-.71-1.69,1,.07.93,1.74-.13,1.69-.12.94.76.07.88.81-.06.06.88.06.87-.75.93.12,1.7.75-.93.06.87-.75.93-.82.94-.88.06-.81.06-.93.07-.75.93-1-.81-.69,1.8.86.71ZM75,263.36l.06.83.94-.07.75-.88.87-.06,1.75-.13,1.75-.12,1.63-.11,1,.75,1.69-.94.75-.94-.06-.87.93-.07.75-.93-.05-.81.88-.06-.06-.88-.06-.87-.06-.88.81-.93-.06-.82-.06-.94.75-.87L89.76,251l-.06-.82.87-1,.75-.88,0-.08.69-.78.75-.94.94-.06.81-.06-.12-1.7.88-.94.06.88.06.87.81-.06-.06-.87L96,243.7l-.88-.81-.87.94-.87-.82.74-.93.94-.07,0-.81-.07-.94-1.06-1.61-.06-.88-.06-.87L93,237l-.94.07-.81.06-.06-.83-.89.07-.81.88-.88.06-.87.07-1.58.11.06-.07,1.76-.13.81-.05-.87-.76.81-.05.94-.07.75-.93-.87-.77-1-.87.06.94-.81.06-.87.06-.89.06-1.82-.81-.74,1-1.75.13-.88.89-.7.92-2.56,1,.93.81,1.82.82.76-.06-.7.87-1.75.12.06.88.06.87-1.74,1-.88-.77-1.75-.75-.06-.87-1-.75-.87-.88-1.75.12L70,241.16l-.88.06L70,242l.06.87.06.83-.82.93-.74.93-.94.07-.75.93.93,1.69.06.81.94-.06.12,1.69.75-.88,1.76-.12.81-.06.06.83-.74,1-.89.06-2.57,1-1.62,1.87-1.75.13,1,.74-.94.07.06.94-2.56.18-.82.06-.87.88.07.88.92-.07,1.75-.12.94.81-.88.06-.92.07-.83.06-.86.94L60,261l.88.75.87-.87.88.75-.76.93.06.87.82,0,.93-.07-1.69,1,2.62-.19.06.83.06.87,1.64-1,.81-.06,1,.81,1.75-.13.75-.93.93.81,1.7-.12-.06-.87.94-.07ZM62.91,265l1.74-1-2.56,1Zm107.74,107.1-.12-1.75-.06-.83-.07-.93-.4-.79-.44-.38-.17.19-.77-.13-.85.48-.92.06-.4.21-.37.61-.91.41-.69,1-.55.62.24.74-.12,1,.25.92.4.73.06.87.09.3-.56.56.59.89.7.72.06.87.59.79.58.07.89.82-.06-.88.86-.94-.06-.82.7-1.81-.06-.87-.06-.88.82-.87ZM170,387.83l.75-1.81-.06-.94-.88.06-.06-.82-.88-.75.82-.06-.88-.88-1-.74-.06-.88L167,382l-.93.06.06.81-.82.06-.88.06-.74,1-.94.06-1.75.13-.81.87-.88-.75.05.81-.81.88.06.94.06.81,1,1.69.06.87.12,1.7.82-.06,1.75-.12-.81.93-.81.94.06.87.06.88-.77.87-.87.06.94.81-.75,1.81.93.81.06.88.06.82,1.76.76.87-.07.88-.06-.06-.87-.06-.82.88-.95,1.74.76.83-.06,1,.76.77-.88-.07-.88-.12-1.74-.12-1.75.8-1.75-.06-.88-.06-.87-.06-.88-.07-.87,0-.83.82-.05.81-.94-.05-.81Zm44.15,21.09-1.62,1-1.75.12L210,411l-1-.81-.81.06-.88.94-.76,0-.87.07-.88.06-1.68,1-1.75.12-1.81-.75-1.76-.76-.94-.81-1.75.12-1.68,1-.07-.87-.86-.77-.89.89-.81.06.13,1.75-.88.94.06.87,1,.75,1.81.81.81-.05,1,.74,2.62.69.94.82,1,1.69,1.75-.12.86.75,1.75-.12,1.81.7.07.93,1,1.68,1.7.71.88-.89,1.8.7-.12-1.75,1.69-.95-.12-1.75-.88.07.82-.87-.88.06-.06-.94-.06-.82.81-.94-.06-.88-.06-.81-.06-.93.81-.88.81,0,.76-1.81-.07-.88ZM99,257.51l.81-.06.88-.88-1-.8-.81,0-.82.06.12,1.69Zm10.24,27.06.93.81.88-.06.87-.06-.06-.88-.87.07Zm12.41-77.19-.06-.88-.06-.82-.06-.87-.86.94-.88.06.94.76Zm9.72-9.36.94.81.05.81-.81.94,1.69-1-.06-.81.81-.93-.06-.88-.06-.87-.06-.88-.12-1.7-.69,2.64.06.87-1.75.13Zm-33,14.52.06.76.82-1.77.81-.87.94.75.06.94.74-1,0-.81.82-1,.87-.06,0-.81.74-.93,0-.83-.76.88-.87.07-1.7.12.12,1.68-.93-.75-.06-.87L99,209l0,.81-.81,1.82Zm4.38,36.09-.07-.93-.93-.77-.88.89-.75,1,.87.75ZM101.16,215l-1.69,1,.06.81.06.94,1.69-1.07-.06-.81Zm1.76-.12-.76.93-.88.87-.69,1.81.87.82.06.87.82-1.81-.06-.81-.06-.94.76-.87Zm-3.72,9.74.91.36,0-.42Zm-16,58.65,1.69-.12-.82.05Zm24.75-31.25.85-.93h0Zm-11.21,9.65.87-.06.81-.94,1,.81.7-.93.87-.06.07.88-.82.88.06.87.06.88-.76,0,.82.82-.69.93-.93.07-.81.87-.81,1-.94-.88-.81,1-.83.06-.87.06-.87.06-.94-.87-.81,1,0,.81-.81.93,1.75-.12.88-.06.05.82-.87.06.06.88,1.75-.12.81-.94.83-.06.87-.06.06.87.07.94.06.81,1.74-.12.88-.06-.81,1,.93.75,1,.75.75-.05,1.75-.12.88-.07.83-.88,0-.18,1.46-.1.81-.06-.75.93-.81.95-.88.06-.87.06-.82.87.06.88-.87.06-1.7.12-.87.06-.88.06-.93-.81-.88.06-.06-.81-.87.06-.81.06-.87.06.93.75-.81.94-1-.81-.88.06.06.87-.75,1.76-1.75.13-2.49,1.1,0,.83-.87.06-1.69,1,.13,1.74.87-.06.88-.06-.07-.87.88-.06.06.87.81-.94,1.63-1,1.81.75,1.74-.12.07.87,1,.81,1.68-.12.81-.93-.06-.88-.06-.87.81-.94.94.81,1.75-.12.82-.06.87-.06.94.81.94.82.06.87.87-.06.82-.94,1.68-.12.94.82,1.75-.13-.07-.87.83-.94.94.81.87.82.87-.06.87-.06.06.81,1.75-.13.88-.06.87-.06.82-.06.94.81.87-.06.94.82,1.69-1,.87-.06.87.81.82-.93.81-.94.94-.07.76-.86.82-.94-.94-.81-.82.06-.88.93-.94-.81-.87.07-.87-.82-.94-.81-.06-.83.88-.06.81-.06.93.76.82-.88-.07-.93-.87.07.82-.83.94-.06.82-.06.87-.06-.06-.94.87-.06.81-.06.82-.94.81-.87-.06-.88.82-1.75-.06-.88-.13-1.75-1-.81-1.81-.75-1.68.12-.94-.76-.76.88-.94.07-.81.93-.94-.81-.06-.82-.06-.88.88-.06.81-.93.88-1-.06-.81-.07-.93,0-.81-1-.81-.07-.88-1.8-.7-.81.06-.07-.92.81-.06.88-.06.94.86-.31-4.32-.06-.87-.06-.88-.07-.87-.93-.82-.06-.87-.88.06-.87-.75-.87.06-.06-.87-.13-1.75-.06-.88.82-.88-.06-.88-.93-.75-.07-.93-.06-.81.75-1.81-.93-.77-1-1.68-.06.16-1-1.55-.94-.81-.93-.76-.87.06-1.69.12-.82.06-1-.81L111,234l-.06-.81.87-.06,1,.74.82-.06.93-.06-.06-.81,1.63-.12.81-1-.87.06-.94-.81-.76,0-.06-.82,1.64-.11.87-.07.93.77.89-.89.8-.06-.06-.93,1.64-.88.86-1-.06-.81-1-.81.86-.94.82-.06-.06-.87.94-.07.75-.88-.06-.87-.06-.88-.81.06-.94.07-.82.06-.06-.88-1-.81-.82.06-1.69.12-.94.06-1.75.13-.87.06-1.62,1-.83.06-.06-.87-.06-.88-.06-.87,1.69-.93.76-.06-.06-.87.81-.94.87-.06.88-.06.88-.89.74-1,1.7-.12-.06-.87.87-.83-1-.86-.82.06-.88.06-.06-.82-1.69.95-1.8-.7-.07-.93-.81,1-.82-.87.76-.06-1.75-.7-.82.06.06.82-.81,1.81.93-.06-.86,1-1.81-.8.94.86-.88.06-.82.82.94.82.06.94.06.82-.93-.76-.82.06-.07-.94-.87.06-.88.06-.81,1,.06.82.06.88.06.87.94.75.06.88-1.7.12.06.87.06.87-.92.07-.76.93.06.88.06.87-1.69,1,.29.25-.94-.38,0,.46-.81,1,.87-.07.94-.06-.06-.93.62.54.93.81.7-1.8.93-.07L105,224l.88-.06-.82.88-.76.94-.86.94.92-.07.06.87-.92.07-.82.06-.82.87-.76,1.76.07.92.06.83.81-.89.76-1.74.82-.06,1,.69.07.93-.87.89-.82.05.06.88.82-.06.93-.06.89.88.87-.07.06.81-.88.07.06.87-.76.88-.87.94-.75.93-.88.07.06.87-.82.87-.87.06.07.94-.88.06.06.81.12,1.75.07.88.87-.06-.06-.88-.06-.87.87-.06.94.81.06.87.94.81-.07-.87-.06-.87.76-.94,1,.81.06.88,1.64-1,.06.88.87-.07-.06-.87.88-.06.88.81.88-.06.81-.93,0,.58-.76.94-.88.06.06.81-.87-.75-.81.87-.83.94.06.82.13,1.8.06.83.94.81.88-.07-.79.88.85-.06,1.74.75.06.88-1.68.11.06.88-.87.06.06.88.06.87-.89.06-.81.95.06.81.87-.06.07.87,0,.83.89-.07-.82,1-.88.06-.06-.92-.71.86-.73-.59-.06-.88-.82.06-.87.06-.06-.81-2.57,1-.88.06-.81.94-1.69.12-.81.93-.87.07Zm83.65-28-.94.06-2.51.18-.87.06-.87.94.06.83,1.05,1.68-.06-.82-.06-.93.81-.88.76-.06.94-.06.81-.06.94-.07.82-.06.87-.94.87-.06,1.7-.12.94.82.93.76-.06-.83.75-.93.88-.87-.12-1.75-.94.06-.06-.87.87-.94.75-.88-.81,0-.88.89-.81.06-.87.06-.81.94-.88.06-.76.93-.81.94.06.87-.87.88Zm2,17.21.13,1.75,1.8-.13.05.81,1.7-.12.88-.06-.06-.81-.06-.88-.06-.87-.06-.82-.88.06-.94-.86-.76,1-.94-.86.07.92-.93.07Zm6.4-3.09-.82.87.07.94.94.81-.82.88.06.87.93.76,1.75-.12.88-.06.06.92-.87.06,1.8.7.88-.06-.93-.76.81-1,.82-.06.75-1.75-.93-.75,1.62-1.94.82-.87-1-1.69.82-.88-.88.06.82-.94-1.75.13-.88.06-.76.93.82-.06.94.76-.82.94-.82.06-.87.06.06.87.06.81-.88.07-.93-.75.81-.94-.06-.87-.87.06.06.87-.81.94Zm.61,8.63-.06-.87-.88.06-.87.06.06.87.93.75.94.83.88-.06.87-.07-.06-.88-.93-.75Zm4.37-.31-.87.06-.94-.81.06.87.06.81.94.83L193,257l.87-.06Zm88.58,148.72,1.07,1.68.81-.06-.13-1.75-.87-.88-1-.74-.06-.83-.87-.86-.88.06-.93-.76-1.81-.75-1.75.12-.82-.82-1-.76-.87.06-1.69.95.93.81.88-.06,1.81-.13.82.82,1.81.7.94.87,1.81.7.93.74Zm-63.6-280.38.06.83.82-.89-.07-.87.89-.07.81,0,.76-2.58-1-.86-.81.06.07.92-.89.07-.88.06.06.82.06.81-.81.94Zm-26.66,91.21h0Zm105.8,210.65-1.92.91-4.76-.1,0-.95-1.9-.05-2.88.9-2.85-.07,0-1.9-.95,0,0,.95-1.91,0-.91-1.92L278,425l0,1.9-.06,2.86,3.8.08,4.78-.85,3.79,1-.06,2.86,6.72-2.72,5.71.12.06-2.85-2.88.89Zm-90.52,3.78,0,.95.93,1,1.9,0,0-.95-1.88-1Zm-1.9,0,.95,0,0-1-.95,0ZM359,421l3.87-2.77A14,14,0,0,0,358,421c-1.94,1.86-6.74,3.67-6.74,3.67l-3.81-.09-.06,2.86-1.9,0a1.32,1.32,0,0,1,0,1.9c-1,.93-2.86-.06-2.86-.06,1.79,5.75,5.65,3,5.65,3l2.84,1,3.89-3.73,0-1.9,4.77-.85a3.38,3.38,0,0,1-2.81-2C356.07,422.81,359,421,359,421Z" transform="translate(-25 -66.82)"/><circle class="c" cx="157.97" cy="247.46" r="83.32"/><circle class="d" cx="157.97" cy="247.46" r="36.28"/><circle class="e" cx="157.97" cy="247.46" r="6.12"/></g></svg>