<svg xmlns="http://www.w3.org/2000/svg" width="104" height="104" viewBox="0 0 104 104">
  <g id="Group_75" data-name="Group 75" transform="translate(-216 -1130.019)">
    <path id="Path_8" data-name="Path 8" d="M306.4,1162.008l7.562-7.562-18.382-18.382-7.562,7.563a43.023,43.023,0,0,0-7.016-2.917v-10.69H255v10.69a43.021,43.021,0,0,0-7.016,2.917l-7.562-7.562-18.382,18.382,7.562,7.562a43.2,43.2,0,0,0-2.916,7.011H216v26h10.686a42.992,42.992,0,0,0,2.916,7.02l-7.562,7.566,18.382,18.382,7.562-7.566a42.739,42.739,0,0,0,7.016,2.921v10.677h26v-10.677a42.742,42.742,0,0,0,7.016-2.921l7.562,7.566,18.382-18.382-7.562-7.566a42.989,42.989,0,0,0,2.916-7.02H320v-26H309.314A43.194,43.194,0,0,0,306.4,1162.008Zm4.936,24.345h-8.788l-.771,3.375a34.35,34.35,0,0,1-4.45,10.721l-1.842,2.926,6.223,6.231-6.127,6.127-6.223-6.231-2.929,1.846A34.671,34.671,0,0,1,275.7,1215.8l-3.371.763v8.788h-8.667v-8.788l-3.371-.763a34.67,34.67,0,0,1-10.721-4.454l-2.929-1.846-6.223,6.231L234.3,1209.6l6.223-6.231-1.842-2.926a34.35,34.35,0,0,1-4.45-10.721l-.771-3.375h-8.788v-8.667h8.788l.771-3.368a34.237,34.237,0,0,1,4.45-10.716l1.842-2.929-6.223-6.227,6.127-6.127,6.223,6.232,2.929-1.846a34.178,34.178,0,0,1,10.721-4.455l3.371-.767v-8.8h8.667v8.8l3.371.767a34.179,34.179,0,0,1,10.721,4.455l2.929,1.846,6.223-6.232,6.127,6.127-6.223,6.227,1.842,2.929a34.236,34.236,0,0,1,4.45,10.716l.771,3.368h8.788Z" fill="#fff"/>
    <path id="Path_9" data-name="Path 9" d="M236.023,1156.915l-5.6-5.6-6.127,6.128,11.73,11.73,24.73-24.73-6.127-6.128Z" transform="translate(27.643 27.645)" fill="#fff"/>
  </g>
</svg>
