<svg xmlns="http://www.w3.org/2000/svg" viewBox="0 0 453.31 91.28"><defs><style>.a{fill:#fff;}</style></defs><path class="a" d="M475.08,295.17l-33.86-33.26c-.53-.59-1.58-.39-1.58.3v31.13c0,.89-.11,1-1.05,1H424.28c-.94,0-1-.1-1-1V224.59c0-.79.95-.89,1.69-.2l33.75,33.44c.53.5,1.58.3,1.58-.29V226.31c0-.89.1-1,1.05-1h14.3c.95,0,1,.1,1,1v68.56C476.65,295.76,475.81,295.86,475.08,295.17Z" transform="translate(-23.35 -204.36)"/><path class="a" d="M146.75,294c-.83,0-.94-.3-.63-1l31.46-69.18a1.41,1.41,0,0,1,2.4,0L211.44,293c.31.69.1,1-.52,1H194.77c-.83,0-1-.2-1.35-1L190,284.83c-.31-.89-.52-1-1.25-1H168.52c-.73,0-1,.2-1.35,1L163.83,293c-.31.79-.52,1-1.25,1Zm25.52-21.69h12.81c.84,0,1-.2.73-.89l-6.66-16.81a.81.81,0,0,0-1.25,0l-6.36,16.71C171.33,272,171.54,272.31,172.27,272.31Z" transform="translate(-23.35 -204.36)"/><path class="a" d="M384.35,223.32v-18a.9.9,0,0,0-1.59-.59L354,237.78a1.14,1.14,0,0,0-.06,1.4,85.68,85.68,0,0,1,5.36,8.65.87.87,0,0,0,1.41.12c5-5.89,9.55-8.42,15.15-8.42a20,20,0,0,1,0,40.07c-10.45,0-16.66-9.12-25.64-24.15-4.36-7.29-8.87-14.83-14.64-20.76-7.32-7.53-15.42-11.19-24.77-11.19a36.07,36.07,0,0,0,0,72.14c10.41,0,18.2-4.55,24.43-10.84a.89.89,0,0,0,.08-1.14c-2.93-4.09-5.53-8.34-7.94-12.36a.88.88,0,0,0-1.42-.11c-4.48,5.32-9.13,8.41-15.15,8.41a20,20,0,0,1,0-40.07h0c.31,0,.61,0,.91,0l.3,0,.61,0,.35,0,.53.08.37.07.5.1.36.09.49.13.36.1.47.16.35.12.48.19.33.14.49.23.3.14.57.3.21.12c.25.14.51.29.76.45l.19.13.57.38.28.2.46.35a3.65,3.65,0,0,1,.31.24l.43.35a3.82,3.82,0,0,1,.32.27l.41.36.32.29.41.39.31.3.41.42.31.32.42.44.29.33.45.5.26.31.58.69.13.16q.35.42.69.87l.27.35.44.58.31.42.4.54c.11.15.22.3.32.46l.39.54.34.48c.12.19.25.37.38.56l.34.51c.13.18.25.37.38.56s.23.35.35.53.25.38.37.58l.36.55.37.58c.13.19.25.39.37.58l.36.57.39.63.12.2c1,1.6,2,3.29,3.08,5.07,2.34,3.9,4.71,7.87,7.3,11.62.14.22.29.44.44.65l.49.69.43.6.52.71.42.56.56.72c.13.18.26.35.4.52s.4.5.6.75.25.31.38.47l.64.77.36.42.75.84c.1.1.19.21.29.32.35.38.7.75,1.06,1.12a43.58,43.58,0,0,0,4.2,3.83,34.84,34.84,0,0,0,5.9,3.85,31.38,31.38,0,0,0,3.08,1.4,31.92,31.92,0,0,0,3.18,1,32.37,32.37,0,0,0,8.41,1.08,36.07,36.07,0,0,0,9.6-70.84A1.53,1.53,0,0,1,384.35,223.32Z" transform="translate(-23.35 -204.36)"/><path class="a" d="M24.33,294c-.88,0-1-.1-1-1V226c0-.88.1-1,1-1H44.54c21.1,0,33.72,12.91,33.72,34.5S64.85,294,42.27,294ZM40,279.5h4.43c11.14,0,17.26-7.09,17.26-20,0-13.11-6-20-17.26-20H40c-.89,0-1,.1-1,1v38C39,279.41,39.12,279.5,40,279.5Z" transform="translate(-23.35 -204.36)"/><path class="a" d="M90,294c-.89,0-1-.1-1-1V226c0-.88.1-1,1-1h19.91c18,0,27.7,7.59,27.7,21.79,0,9.75-5.42,17.44-14.39,20.4a.5.5,0,0,0-.2.89L142.39,293c.6.59.4,1-.39,1H125.34c-.89,0-1-.1-1.68-1l-17-22.87c-1-1.18-2-1.09-2,.2V293c0,.89-.1,1-1,1Zm15.67-36.68H111c7,0,10.45-3.15,10.45-9.46s-3.74-9.56-10.64-9.56h-5.23c-.88,0-1,.1-1,1v17.06C104.64,257.22,104.74,257.32,105.62,257.32Z" transform="translate(-23.35 -204.36)"/><path class="a" d="M247.87,295.38c-20.9,0-35.88-15.09-35.88-35.89s15.18-35.88,35.88-35.88a40.32,40.32,0,0,1,17.55,4c.69.3.78.49.78,1V244.9c0,.59-.39.89-.88.49-3.65-3.74-9.66-6-16.47-6-12.22,0-20.3,8-20.3,20.11s8.08,20.11,20.21,20.11c6.7,0,12.81-2.26,16.56-6,.39-.4.88-.2.88.49v16.27c0,.49-.19.69-.78,1A41.5,41.5,0,0,1,247.87,295.38Z" transform="translate(-23.35 -204.36)"/></svg>