<svg xmlns="http://www.w3.org/2000/svg" width="98.249" height="98" viewBox="0 0 98.249 98">
  <g id="Group_76" data-name="Group 76" transform="translate(-1848 -458)">
    <path id="Path_10" data-name="Path 10" d="M1857,478.167v8.167h24.5v-8.167a8.167,8.167,0,0,0-8.167-8.167h-8.166A8.164,8.164,0,0,0,1857,478.167Z" transform="translate(27.75 37)" fill="#fff"/>
    <circle id="Ellipse_224" data-name="Ellipse 224" cx="8" cy="8" r="8" transform="translate(1889.094 487)" fill="#fff"/>
    <path id="Path_11" data-name="Path 11" d="M1897,466.167a40.528,40.528,0,0,1,34.256,18.681l-10.009,9.9H1946v-24.5l-8.8,8.718A49,49,0,0,0,1848,507h8.167A40.879,40.879,0,0,1,1897,466.167Z" transform="translate(0 0)" fill="#fff"/>
    <path id="Path_12" data-name="Path 12" d="M1897.249,510.833A40.521,40.521,0,0,1,1862.9,492l9.844-9.747H1848v24.5l8.947-8.861a49.009,49.009,0,0,0,89.3-27.889h-8.166A40.877,40.877,0,0,1,1897.249,510.833Z" transform="translate(0 37)" fill="#fff"/>
  </g>
</svg>
