<svg xmlns="http://www.w3.org/2000/svg" xmlns:xlink="http://www.w3.org/1999/xlink" viewBox="0 0 500 38.62"><defs><style>.cls-1{fill:url(#linear-gradient);}.cls-2{fill:#fff;}</style><linearGradient id="linear-gradient" y1="-279.31" x2="500" y2="-279.31" gradientTransform="matrix(1, 0, 0, -1, 0, -260)" gradientUnits="userSpaceOnUse"><stop offset="0" stop-color="#ededed"/><stop offset="1"/></linearGradient></defs><g id="Layer_2" data-name="Layer 2"><g id="Layer_1-2" data-name="Layer 1"><polygon class="cls-1" points="487.8 0 487.68 0 487.68 10.81 12.32 10.81 12.32 0 12.2 0 0 19.31 12.2 38.62 12.32 38.62 12.32 27.81 487.68 27.81 487.68 38.62 487.8 38.62 500 19.31 487.8 0"/><path class="cls-2" d="M234.21,23c-.1,0-.15-.05-.15-.16v-8.2c0-.11.05-.16.15-.16h3.24a2.66,2.66,0,0,1,1.94.7,2.57,2.57,0,0,1,.71,1.92,2.55,2.55,0,0,1-.71,1.9,2.69,2.69,0,0,1-1.94.69h-2.83v3.15c0,.11-.05.16-.15.16Zm.41-3.84h2.77a2.14,2.14,0,0,0,1.56-.55,2,2,0,0,0,.56-1.51,1.93,1.93,0,0,0-2.12-2.1h-2.77Z"/><path class="cls-2" d="M241.85,23c-.09,0-.13-.05-.13-.14v-8.6c0-.09,0-.14.13-.14h.24c.1,0,.15.05.15.14v2.84a4.92,4.92,0,0,1,2.1-.42A2,2,0,0,1,246.66,19v3.87a.12.12,0,0,1-.14.14h-.23a.13.13,0,0,1-.14-.14V19a1.64,1.64,0,0,0-1.86-1.86,4.58,4.58,0,0,0-2,.43v5.27c0,.09-.05.14-.15.14Z"/><path class="cls-2" d="M250.88,23.15a3.36,3.36,0,0,1-2-.44,1.68,1.68,0,0,1-.54-1.39,1.59,1.59,0,0,1,.59-1.4,3.73,3.73,0,0,1,2-.41c.39,0,1,0,1.77.13V19a2.12,2.12,0,0,0-.39-1.36,1.75,1.75,0,0,0-1.44-.5,2,2,0,0,0-1.89,1,.12.12,0,0,1-.18.07l-.19-.07c-.1-.05-.12-.11-.08-.2a2.42,2.42,0,0,1,2.37-1.27,2.2,2.2,0,0,1,1.8.63A2.66,2.66,0,0,1,253.2,19v3.15a.84.84,0,0,1-.09.45.9.9,0,0,1-.34.24A5,5,0,0,1,250.88,23.15Zm0-.43a4,4,0,0,0,1.57-.26.43.43,0,0,0,.23-.13.67.67,0,0,0,.05-.3v-2a11.14,11.14,0,0,0-1.81-.15,2.92,2.92,0,0,0-1.58.32,1.21,1.21,0,0,0-.45,1.06,1.3,1.3,0,0,0,.41,1.06A2.58,2.58,0,0,0,250.84,22.72Z"/><path class="cls-2" d="M257.34,23.15a2.43,2.43,0,0,1-2.55-1.51c0-.1,0-.16.08-.2l.19-.06a.15.15,0,0,1,.2.09,1.94,1.94,0,0,0,2.07,1.22c1.26,0,1.89-.42,1.89-1.27a1,1,0,0,0-.46-.93,4,4,0,0,0-1.42-.34l-.52-.06a4.37,4.37,0,0,1-.49-.07,2.24,2.24,0,0,1-.47-.14,2,2,0,0,1-.37-.2,1,1,0,0,1-.31-.3A1.65,1.65,0,0,1,255,19a2,2,0,0,1-.08-.58,1.53,1.53,0,0,1,.59-1.27,2.77,2.77,0,0,1,1.71-.45A2.28,2.28,0,0,1,259.61,18a.13.13,0,0,1-.06.2l-.19.07a.15.15,0,0,1-.19-.06,1.72,1.72,0,0,0-.67-.8,2.46,2.46,0,0,0-1.28-.27c-1.19,0-1.78.42-1.78,1.25a1.21,1.21,0,0,0,.11.57,1,1,0,0,0,.26.36,1,1,0,0,0,.46.21,4.11,4.11,0,0,0,.52.11l.66.07a7.4,7.4,0,0,1,.9.13,2.84,2.84,0,0,1,.7.26,1.14,1.14,0,0,1,.51.51,1.67,1.67,0,0,1,.17.81,1.54,1.54,0,0,1-.6,1.29A3,3,0,0,1,257.34,23.15Z"/><path class="cls-2" d="M263.73,23.15a2.6,2.6,0,0,1-1.89-.63,2.35,2.35,0,0,1-.63-1.74V19.16a2.51,2.51,0,0,1,.66-1.84,2.65,2.65,0,0,1,1.94-.66,2.6,2.6,0,0,1,1.93.67,2.47,2.47,0,0,1,.66,1.81v.61a.24.24,0,0,1-.27.27h-4.41v.81a1.85,1.85,0,0,0,.51,1.38,2.07,2.07,0,0,0,1.5.49,2.2,2.2,0,0,0,2.12-1.17.16.16,0,0,1,.23-.06l.16.09c.09.05.11.12,0,.22A2.63,2.63,0,0,1,263.73,23.15Zm-2-3.55h4.17v-.48a2,2,0,0,0-.53-1.47,2.49,2.49,0,0,0-3.1,0,2,2,0,0,0-.54,1.47Z"/></g></g></svg>