<?xml version="1.0" encoding="utf-8"?>
<!-- Generator: Adobe Illustrator 24.1.2, SVG Export Plug-In . SVG Version: 6.00 Build 0)  -->
<svg version="1.1" id="Layer_1" xmlns="http://www.w3.org/2000/svg" xmlns:xlink="http://www.w3.org/1999/xlink" x="0px" y="0px"
	 viewBox="0 0 500 46.7" style="enable-background:new 0 0 500 46.7;" xml:space="preserve">
<style type="text/css">
	.st0{fill:url(#SVGID_1_);}
</style>
<g>
	<g>
		<g id="Layer_2_1_">
			<g id="Layer_1-2">
				
					<linearGradient id="SVGID_1_" gradientUnits="userSpaceOnUse" x1="-0.724" y1="-1255.1995" x2="499.276" y2="-1255.1995" gradientTransform="matrix(1 0 0 -1 0 -1227.7988)">
					<stop  offset="0" style="stop-color:#EDEDED"/>
					<stop  offset="1" style="stop-color:#000000"/>
				</linearGradient>
				<polygon class="st0" points="487.1,8.1 487,8.1 487,18.9 11.6,18.9 11.6,8.1 11.5,8.1 -0.7,27.4 11.5,46.7 11.6,46.7 11.6,35.9 
					487,35.9 487,46.7 487.1,46.7 499.3,27.4 				"/>
			</g>
		</g>
	</g>
	<g>
		<path d="M171,12.3c-0.1,0-0.1-0.1-0.1-0.2V4.3h-2.7c-0.1,0-0.1,0-0.1-0.1V4c0-0.1,0-0.2,0.1-0.2h5.9c0.1,0,0.1,0.1,0.1,0.2v0.2
			c0,0.1,0,0.1-0.1,0.1h-2.7v7.8c0,0.1-0.1,0.2-0.2,0.2H171z"/>
		<path d="M174,12.3c-0.1,0-0.1,0-0.1-0.1l3.3-8.3c0-0.1,0.1-0.1,0.2-0.1h0.2c0.1,0,0.2,0,0.2,0.1l3.3,8.3c0.1,0.1,0,0.1-0.1,0.1
			h-0.2c-0.2,0-0.2,0-0.3-0.1l-1.1-2.7h-4l-1.1,2.7c0,0.1-0.1,0.1-0.3,0.1H174z M175.7,9.1h3.6l-1.7-4.2c0,0,0-0.2-0.1-0.5h0
			c0,0,0,0,0,0.1c0,0.1,0,0.1,0,0.2c0,0.1,0,0.1-0.1,0.2L175.7,9.1z"/>
		<path d="M182.8,12.3c-0.1,0-0.1-0.1-0.1-0.2V4c0-0.1,0-0.2,0.1-0.2h3.4c0.8,0,1.4,0.2,1.8,0.6c0.4,0.4,0.6,1,0.6,1.8
			c0,0.7-0.2,1.2-0.6,1.6c-0.4,0.4-0.9,0.6-1.6,0.7c0.4,0.2,0.7,0.5,1,1l1.4,2.7c0.1,0.1,0,0.2-0.1,0.2h-0.2c-0.2,0-0.3,0-0.3-0.1
			l-1.2-2.5c-0.2-0.4-0.4-0.7-0.7-0.9c-0.3-0.2-0.7-0.3-1.1-0.3h-2v3.6c0,0.1,0,0.2-0.1,0.2H182.8z M183.3,8.1h3
			c0.6,0,1.1-0.2,1.4-0.5c0.3-0.3,0.5-0.8,0.5-1.4s-0.2-1.1-0.5-1.4c-0.3-0.3-0.8-0.5-1.4-0.5h-3V8.1z"/>
		<path d="M193.7,12.5c-1,0-1.8-0.3-2.4-0.8s-0.8-1.3-0.8-2.2V6.6c0-0.9,0.3-1.7,0.8-2.2c0.6-0.5,1.4-0.8,2.4-0.8
			c0.9,0,1.6,0.2,2.1,0.5c0.5,0.3,0.8,0.9,1,1.6c0,0.1,0,0.2-0.1,0.2L196.6,6c-0.1,0-0.2,0-0.2-0.1c-0.2-0.6-0.5-1.1-0.9-1.3
			c-0.4-0.3-1-0.4-1.7-0.4c-0.9,0-1.5,0.2-2,0.6c-0.5,0.4-0.7,1-0.7,1.8v2.9c0,0.8,0.2,1.4,0.7,1.8s1.1,0.6,2,0.6
			c0.9,0,1.5-0.2,2-0.6s0.7-1,0.7-1.7v-1h-2.6c-0.1,0-0.1-0.1-0.1-0.2V8.2c0-0.1,0-0.2,0.1-0.2h3c0.1,0,0.2,0.1,0.2,0.2v1.4
			c0,0.9-0.3,1.6-0.8,2.1C195.6,12.2,194.8,12.5,193.7,12.5z"/>
		<path d="M199.1,12.3c-0.1,0-0.1-0.1-0.1-0.2V4c0-0.1,0-0.2,0.1-0.2h4.9c0.1,0,0.2,0.1,0.2,0.2v0.2c0,0.1-0.1,0.1-0.2,0.1h-4.5v3.4
			h4c0.1,0,0.2,0.1,0.2,0.2v0.2c0,0.1-0.1,0.2-0.2,0.2h-4v3.5h4.7c0.1,0,0.1,0,0.1,0.1v0.2c0,0.1,0,0.2-0.1,0.2H199.1z"/>
		<path d="M208.3,12.3c-0.1,0-0.1-0.1-0.1-0.2V4.3h-2.7c-0.1,0-0.1,0-0.1-0.1V4c0-0.1,0-0.2,0.1-0.2h5.9c0.1,0,0.1,0.1,0.1,0.2v0.2
			c0,0.1,0,0.1-0.1,0.1h-2.7v7.8c0,0.1-0.1,0.2-0.2,0.2H208.3z"/>
		<path d="M216.3,12.3c-0.1,0-0.1-0.1-0.1-0.2V4c0-0.1,0-0.2,0.1-0.2h0.3c0.1,0,0.1,0.1,0.1,0.2v8.2c0,0.1,0,0.2-0.1,0.2H216.3z"/>
		<path d="M219.2,12.3c-0.1,0-0.1-0.1-0.1-0.2V4c0-0.1,0-0.2,0.1-0.2h0.3c0.1,0,0.1,0,0.2,0.1l4.1,5.9c0.2,0.2,0.3,0.5,0.6,0.9
			c0.2,0.4,0.4,0.7,0.5,0.8h0c0-0.1,0-0.5,0-1s0-0.9,0-1.2V3.9c0-0.1,0-0.1,0.1-0.1h0.2c0.1,0,0.2,0.1,0.2,0.2v8.2
			c0,0.1-0.1,0.2-0.2,0.2h-0.2c-0.1,0-0.1,0-0.2-0.1l-4.2-6.1c-0.1-0.2-0.3-0.5-0.5-0.9c-0.2-0.4-0.4-0.6-0.4-0.7h0
			c0,0.1,0,0.4,0,0.9c0,0.5,0,0.8,0,1.1v5.6c0,0.1-0.1,0.2-0.2,0.2H219.2z"/>
		<path d="M230.2,12.3c-0.1,0-0.2,0-0.2-0.1l-3.2-8.2c0-0.1,0-0.1,0.1-0.1h0.2c0.1,0,0.2,0,0.3,0.1l2.7,6.9c0,0.1,0.1,0.3,0.2,0.5
			c0.1,0.2,0.1,0.3,0.1,0.3h0c0-0.1,0.1-0.2,0.1-0.4c0.1-0.2,0.1-0.3,0.1-0.4l2.7-6.9c0-0.1,0.1-0.1,0.3-0.1h0.2
			c0.1,0,0.1,0,0.1,0.1l-3.2,8.2c0,0.1-0.1,0.1-0.2,0.1H230.2z"/>
		<path d="M235.5,12.3c-0.1,0-0.1-0.1-0.1-0.2V4c0-0.1,0-0.2,0.1-0.2h4.9c0.1,0,0.2,0.1,0.2,0.2v0.2c0,0.1-0.1,0.1-0.2,0.1h-4.5v3.4
			h4c0.1,0,0.2,0.1,0.2,0.2v0.2c0,0.1-0.1,0.2-0.2,0.2h-4v3.5h4.7c0.1,0,0.1,0,0.1,0.1v0.2c0,0.1,0,0.2-0.1,0.2H235.5z"/>
		<path d="M245.3,12.5c-0.8,0-1.5-0.2-2-0.5c-0.5-0.3-0.9-0.9-1.2-1.6c0-0.1,0-0.2,0.1-0.2l0.2-0.1c0.1,0,0.2,0,0.2,0.1
			c0.5,1.2,1.4,1.8,2.7,1.8c1.7,0,2.6-0.6,2.6-1.9c0-0.3,0-0.5-0.2-0.7c-0.1-0.2-0.2-0.4-0.4-0.5c-0.1-0.1-0.3-0.2-0.6-0.3
			c-0.3-0.1-0.5-0.1-0.7-0.2c-0.2,0-0.4-0.1-0.8-0.1c-0.3,0-0.6-0.1-0.8-0.1c-0.2,0-0.4-0.1-0.7-0.1c-0.3-0.1-0.5-0.2-0.7-0.3
			s-0.3-0.2-0.5-0.4c-0.2-0.2-0.3-0.3-0.4-0.6c-0.1-0.2-0.1-0.5-0.1-0.8c0-0.7,0.3-1.3,0.8-1.7s1.3-0.6,2.2-0.6
			c0.8,0,1.4,0.1,1.9,0.4c0.5,0.3,0.9,0.8,1.2,1.4c0.1,0.1,0,0.2-0.1,0.2l-0.2,0.1c-0.1,0-0.2,0-0.2-0.1c-0.3-0.5-0.6-0.9-1-1.2
			c-0.4-0.3-0.9-0.4-1.6-0.4c-0.8,0-1.4,0.2-1.8,0.5C243,5,242.8,5.4,242.8,6c0,0.3,0.1,0.5,0.2,0.7c0.1,0.2,0.2,0.4,0.4,0.5
			c0.1,0.1,0.4,0.2,0.6,0.3c0.3,0.1,0.5,0.1,0.7,0.2s0.5,0.1,0.8,0.1c0.3,0,0.5,0.1,0.7,0.1c0.2,0,0.4,0.1,0.7,0.2
			c0.3,0.1,0.5,0.2,0.6,0.3s0.3,0.2,0.5,0.4c0.2,0.2,0.3,0.4,0.3,0.6s0.1,0.5,0.1,0.8c0,0.8-0.3,1.4-0.8,1.8
			C247.2,12.3,246.4,12.5,245.3,12.5z"/>
		<path d="M252.5,12.3c-0.1,0-0.1-0.1-0.1-0.2V4.3h-2.7c-0.1,0-0.1,0-0.1-0.1V4c0-0.1,0-0.2,0.1-0.2h5.9c0.1,0,0.1,0.1,0.1,0.2v0.2
			c0,0.1,0,0.1-0.1,0.1h-2.7v7.8c0,0.1-0.1,0.2-0.2,0.2H252.5z"/>
		<path d="M257.4,12.3c-0.1,0-0.1-0.1-0.1-0.2V4c0-0.1,0-0.2,0.1-0.2h0.2c0.1,0,0.2,0,0.2,0.1l3.2,5.7l3.2-5.7
			c0.1-0.1,0.1-0.1,0.2-0.1h0.2c0.1,0,0.2,0.1,0.2,0.2v8.2c0,0.1-0.1,0.2-0.2,0.2h-0.2c-0.1,0-0.2-0.1-0.2-0.2l0-5.5
			c0-0.7,0-1.4,0.1-2h0c-0.2,0.5-0.5,1.1-0.9,1.7l-2.1,3.8c-0.1,0.1-0.1,0.1-0.2,0.1H261c-0.1,0-0.2,0-0.2-0.1l-2.2-3.8
			c-0.2-0.4-0.5-1-0.9-1.7h0c0,0.7,0.1,1.4,0.1,2v5.5c0,0.1-0.1,0.2-0.2,0.2H257.4z"/>
		<path d="M267.3,12.3c-0.1,0-0.1-0.1-0.1-0.2V4c0-0.1,0-0.2,0.1-0.2h4.9c0.1,0,0.2,0.1,0.2,0.2v0.2c0,0.1-0.1,0.1-0.2,0.1h-4.5v3.4
			h4c0.1,0,0.2,0.1,0.2,0.2v0.2c0,0.1-0.1,0.2-0.2,0.2h-4v3.5h4.7c0.1,0,0.1,0,0.1,0.1v0.2c0,0.1,0,0.2-0.1,0.2H267.3z"/>
		<path d="M274.5,12.3c-0.1,0-0.1-0.1-0.1-0.2V4c0-0.1,0-0.2,0.1-0.2h0.3c0.1,0,0.1,0,0.2,0.1l4.1,5.9c0.2,0.2,0.3,0.5,0.6,0.9
			c0.2,0.4,0.4,0.7,0.5,0.8h0c0-0.1,0-0.5,0-1s0-0.9,0-1.2V3.9c0-0.1,0-0.1,0.1-0.1h0.2c0.1,0,0.2,0.1,0.2,0.2v8.2
			c0,0.1-0.1,0.2-0.2,0.2h-0.2c-0.1,0-0.1,0-0.2-0.1l-4.2-6.1c-0.1-0.2-0.3-0.5-0.5-0.9c-0.2-0.4-0.4-0.6-0.4-0.7h0
			c0,0.1,0,0.4,0,0.9c0,0.5,0,0.8,0,1.1v5.6c0,0.1-0.1,0.2-0.2,0.2H274.5z"/>
		<path d="M285.2,12.3c-0.1,0-0.1-0.1-0.1-0.2V4.3h-2.7c-0.1,0-0.1,0-0.1-0.1V4c0-0.1,0-0.2,0.1-0.2h5.9c0.1,0,0.1,0.1,0.1,0.2v0.2
			c0,0.1,0,0.1-0.1,0.1h-2.7v7.8c0,0.1-0.1,0.2-0.2,0.2H285.2z"/>
		<path d="M293.1,12.3c-0.1,0-0.1-0.1-0.1-0.2V4c0-0.1,0-0.2,0.1-0.2h3.2c0.8,0,1.5,0.2,1.9,0.7c0.5,0.5,0.7,1.1,0.7,1.9
			c0,0.8-0.2,1.4-0.7,1.9c-0.5,0.5-1.1,0.7-1.9,0.7h-2.8v3.2c0,0.1,0,0.2-0.1,0.2H293.1z M293.5,8.5h2.8c0.7,0,1.2-0.2,1.6-0.5
			c0.4-0.4,0.6-0.9,0.6-1.5c0-0.7-0.2-1.2-0.6-1.5c-0.4-0.4-0.9-0.6-1.6-0.6h-2.8V8.5z"/>
		<path d="M300.9,12.3c-0.1,0-0.1-0.1-0.1-0.2V4c0-0.1,0-0.2,0.1-0.2h0.3c0.1,0,0.1,0.1,0.1,0.2v3.8h5.1V4c0-0.1,0.1-0.2,0.2-0.2
			h0.3c0.1,0,0.2,0.1,0.2,0.2v8.2c0,0.1-0.1,0.2-0.2,0.2h-0.3c-0.1,0-0.2-0.1-0.2-0.2V8.3h-5.1v3.9c0,0.1,0,0.2-0.1,0.2H300.9z"/>
		<path d="M308.5,12.3c-0.1,0-0.1,0-0.1-0.1l3.3-8.3c0-0.1,0.1-0.1,0.2-0.1h0.2c0.1,0,0.2,0,0.2,0.1l3.3,8.3c0.1,0.1,0,0.1-0.1,0.1
			h-0.2c-0.2,0-0.2,0-0.3-0.1l-1.1-2.7h-4l-1.1,2.7c0,0.1-0.1,0.1-0.3,0.1H308.5z M310.2,9.1h3.6l-1.7-4.2c0,0,0-0.2-0.1-0.5h0
			c0,0,0,0,0,0.1c0,0.1,0,0.1,0,0.2c0,0.1,0,0.1-0.1,0.2L310.2,9.1z"/>
		<path d="M319.8,12.5c-0.8,0-1.5-0.2-2-0.5c-0.5-0.3-0.9-0.9-1.2-1.6c0-0.1,0-0.2,0.1-0.2l0.2-0.1c0.1,0,0.2,0,0.2,0.1
			c0.5,1.2,1.4,1.8,2.7,1.8c1.7,0,2.6-0.6,2.6-1.9c0-0.3,0-0.5-0.2-0.7c-0.1-0.2-0.2-0.4-0.4-0.5c-0.1-0.1-0.3-0.2-0.6-0.3
			c-0.3-0.1-0.5-0.1-0.7-0.2c-0.2,0-0.4-0.1-0.8-0.1c-0.3,0-0.6-0.1-0.8-0.1c-0.2,0-0.4-0.1-0.7-0.1c-0.3-0.1-0.5-0.2-0.7-0.3
			s-0.3-0.2-0.5-0.4c-0.2-0.2-0.3-0.3-0.4-0.6c-0.1-0.2-0.1-0.5-0.1-0.8c0-0.7,0.3-1.3,0.8-1.7s1.3-0.6,2.2-0.6
			c0.8,0,1.4,0.1,1.9,0.4c0.5,0.3,0.9,0.8,1.2,1.4c0.1,0.1,0,0.2-0.1,0.2l-0.2,0.1c-0.1,0-0.2,0-0.2-0.1c-0.3-0.5-0.6-0.9-1-1.2
			c-0.4-0.3-0.9-0.4-1.6-0.4c-0.8,0-1.4,0.2-1.8,0.5c-0.4,0.3-0.6,0.8-0.6,1.3c0,0.3,0.1,0.5,0.2,0.7c0.1,0.2,0.2,0.4,0.4,0.5
			c0.1,0.1,0.4,0.2,0.6,0.3c0.3,0.1,0.5,0.1,0.7,0.2s0.5,0.1,0.8,0.1c0.3,0,0.5,0.1,0.7,0.1c0.2,0,0.4,0.1,0.7,0.2
			c0.3,0.1,0.5,0.2,0.6,0.3s0.3,0.2,0.5,0.4c0.2,0.2,0.3,0.4,0.3,0.6S323,9.7,323,10c0,0.8-0.3,1.4-0.8,1.8
			C321.6,12.3,320.8,12.5,319.8,12.5z"/>
		<path d="M325,12.3c-0.1,0-0.1-0.1-0.1-0.2V4c0-0.1,0-0.2,0.1-0.2h4.9c0.1,0,0.2,0.1,0.2,0.2v0.2c0,0.1-0.1,0.1-0.2,0.1h-4.5v3.4h4
			c0.1,0,0.2,0.1,0.2,0.2v0.2c0,0.1-0.1,0.2-0.2,0.2h-4v3.5h4.7c0.1,0,0.1,0,0.1,0.1v0.2c0,0.1,0,0.2-0.1,0.2H325z"/>
	</g>
</g>
</svg>
