<?xml version="1.0" encoding="utf-8"?>
<!-- Generator: Adobe Illustrator 24.1.2, SVG Export Plug-In . SVG Version: 6.00 Build 0)  -->
<svg version="1.1" id="Layer_1" xmlns="http://www.w3.org/2000/svg" xmlns:xlink="http://www.w3.org/1999/xlink" x="0px" y="0px"
	 viewBox="0 0 500 38.6" style="enable-background:new 0 0 500 38.6;" xml:space="preserve">
<style type="text/css">
	.st0{fill:url(#SVGID_1_);}
	.st1{fill:#FFFFFF;}
</style>
<g>
	<g id="Layer_2_1_">
		<g id="Layer_1-2">
			
				<linearGradient id="SVGID_1_" gradientUnits="userSpaceOnUse" x1="0.2184" y1="1303.3101" x2="500.2184" y2="1303.3101" gradientTransform="matrix(1 0 0 1 0 -1284)">
				<stop  offset="0" style="stop-color:#EDEDED"/>
				<stop  offset="1" style="stop-color:#000000"/>
			</linearGradient>
			<polygon class="st0" points="488,0 487.9,0 487.9,10.8 12.5,10.8 12.5,0 12.4,0 0.2,19.3 12.4,38.6 12.5,38.6 12.5,27.8 
				487.9,27.8 487.9,38.6 488,38.6 500.2,19.3 			"/>
		</g>
	</g>
	<g>
		<path class="st1" d="M185.2,22.8c-0.1,0-0.1-0.1-0.1-0.2v-7.8h-2.7c-0.1,0-0.1,0-0.1-0.1v-0.2c0-0.1,0-0.2,0.1-0.2h5.9
			c0.1,0,0.1,0.1,0.1,0.2v0.2c0,0.1,0,0.1-0.1,0.1h-2.7v7.8c0,0.1-0.1,0.2-0.2,0.2H185.2z"/>
		<path class="st1" d="M190.8,23c-1,0-1.7-0.1-2-0.4c-0.4-0.3-0.5-0.8-0.5-1.4c0-0.7,0.2-1.1,0.6-1.4c0.4-0.3,1.1-0.4,2-0.4
			c0.4,0,1,0,1.8,0.1v-0.7c0-0.6-0.1-1-0.4-1.4c-0.3-0.3-0.7-0.5-1.4-0.5c-0.9,0-1.5,0.3-1.9,1c0,0.1-0.1,0.1-0.2,0.1l-0.2-0.1
			c-0.1,0-0.1-0.1-0.1-0.2c0.4-0.8,1.2-1.3,2.4-1.3c0.9,0,1.5,0.2,1.8,0.6c0.3,0.4,0.5,1,0.5,1.7V22c0,0.2,0,0.4-0.1,0.4
			c-0.1,0.1-0.2,0.2-0.3,0.2C192.2,22.9,191.6,23,190.8,23z M190.7,22.5c0.7,0,1.2-0.1,1.6-0.3c0.1,0,0.2-0.1,0.2-0.1
			c0-0.1,0-0.1,0-0.3v-2c-0.6-0.1-1.2-0.1-1.8-0.1c-0.7,0-1.3,0.1-1.6,0.3c-0.3,0.2-0.5,0.6-0.5,1.1c0,0.5,0.1,0.8,0.4,1.1
			C189.4,22.4,190,22.5,190.7,22.5z"/>
		<path class="st1" d="M195.2,22.8c-0.1,0-0.1,0-0.1-0.1v-5c0-0.2,0-0.3,0.1-0.4c0.1-0.1,0.2-0.2,0.4-0.2c0.6-0.2,1.3-0.4,2.1-0.4
			h0.4c0.1,0,0.1,0,0.1,0.1V17c0,0.1,0,0.1-0.1,0.1h-0.4c-0.7,0-1.3,0.1-1.8,0.3c-0.2,0.1-0.3,0.2-0.3,0.4v4.8c0,0.1,0,0.1-0.1,0.1
			H195.2z"/>
		<path class="st1" d="M201.4,25.8c-1.1,0-1.9-0.5-2.4-1.4c-0.1-0.1,0-0.2,0.1-0.2l0.2-0.1c0.1,0,0.2,0,0.2,0.1
			c0.2,0.4,0.4,0.6,0.7,0.8c0.3,0.2,0.7,0.3,1.2,0.3c1.3,0,2-0.7,2-2.1v-0.8c-0.7,0.3-1.4,0.4-2.1,0.4c-1.5,0-2.3-0.8-2.3-2.3v-1.7
			c0-1.6,0.8-2.4,2.5-2.4c0.7,0,1.4,0.1,2,0.3c0.2,0.1,0.3,0.2,0.4,0.3c0.1,0.1,0.1,0.2,0.1,0.4v5.8C203.9,25,203,25.8,201.4,25.8z
			 M201.3,22.4c0.7,0,1.4-0.2,2.1-0.5v-4.3c0-0.1,0-0.2,0-0.2s-0.1-0.1-0.2-0.2c-0.5-0.2-1-0.3-1.6-0.3c-1.4,0-2,0.7-2,2v1.7
			C199.4,21.8,200.1,22.4,201.3,22.4z"/>
		<path class="st1" d="M208.2,23c-0.8,0-1.5-0.2-1.9-0.6s-0.6-1-0.6-1.7V19c0-0.8,0.2-1.4,0.7-1.8c0.4-0.4,1.1-0.7,1.9-0.7
			c0.8,0,1.5,0.2,1.9,0.7c0.4,0.4,0.7,1.1,0.7,1.8v0.6c0,0.2-0.1,0.3-0.3,0.3h-4.4v0.8c0,0.6,0.2,1,0.5,1.4c0.3,0.3,0.8,0.5,1.5,0.5
			c1,0,1.7-0.4,2.1-1.2c0.1-0.1,0.1-0.1,0.2-0.1l0.2,0.1c0.1,0,0.1,0.1,0,0.2C210.3,22.5,209.4,23,208.2,23z M206.2,19.4h4.2v-0.5
			c0-0.6-0.2-1.1-0.5-1.5c-0.4-0.4-0.9-0.5-1.5-0.5c-0.7,0-1.2,0.2-1.6,0.5c-0.4,0.4-0.5,0.8-0.5,1.5V19.4z"/>
		<path class="st1" d="M215.6,22.8c-0.9,0-1.5-0.2-1.9-0.5c-0.3-0.3-0.5-1-0.5-1.9v-3.3h-1.3c-0.1,0-0.1,0-0.1,0c0,0,0-0.1,0-0.1
			v-0.2c0-0.1,0-0.1,0.1-0.1h1.3v-1.3c0-0.1,0-0.1,0.1-0.1h0.2c0.1,0,0.1,0,0.1,0.1v1.3h1.9c0.1,0,0.1,0,0.1,0.1V17
			c0,0.1,0,0.1-0.1,0.1h-1.9v3.3c0,0.8,0.1,1.3,0.4,1.5c0.3,0.2,0.8,0.4,1.5,0.4c0.1,0,0.1,0,0.1,0.1v0.2
			C215.7,22.8,215.7,22.8,215.6,22.8z"/>
		<path class="st1" d="M220.6,22.8c-0.1,0-0.1-0.1-0.1-0.2v-8.2c0-0.1,0-0.2,0.1-0.2h0.3c0.1,0,0.1,0.1,0.1,0.2v8.2
			c0,0.1,0,0.2-0.1,0.2H220.6z"/>
		<path class="st1" d="M223.4,22.8c-0.1,0-0.1,0-0.1-0.1v-5.1c0-0.2,0-0.3,0.1-0.4c0.1-0.1,0.2-0.2,0.4-0.3c0.7-0.3,1.4-0.4,2.2-0.4
			c1.5,0,2.3,0.8,2.3,2.3v3.9c0,0.1,0,0.1-0.1,0.1h-0.2c-0.1,0-0.1,0-0.1-0.1v-3.8c0-1.2-0.6-1.9-1.9-1.9c-0.7,0-1.3,0.1-1.8,0.3
			c-0.2,0.1-0.2,0.2-0.2,0.4v5c0,0.1,0,0.1-0.1,0.1H223.4z"/>
		<path class="st1" d="M232.2,22.9c-0.1,0-0.2,0-0.2-0.1l-2.5-5.9c0-0.1,0-0.2,0.1-0.2h0.2c0.1,0,0.2,0,0.2,0.1l1.9,4.5
			c0.1,0.1,0.1,0.3,0.2,0.5c0.1,0.2,0.1,0.4,0.1,0.4h0c0-0.1,0.1-0.2,0.2-0.4c0.1-0.2,0.1-0.4,0.2-0.5l1.9-4.5
			c0-0.1,0.1-0.1,0.2-0.1h0.2c0.1,0,0.1,0,0.1,0c0,0,0,0.1,0,0.1l-2.5,5.9c0,0.1-0.1,0.1-0.2,0.1H232.2z"/>
		<path class="st1" d="M238.6,23c-0.8,0-1.5-0.2-1.9-0.6s-0.6-1-0.6-1.7V19c0-0.8,0.2-1.4,0.7-1.8c0.4-0.4,1.1-0.7,1.9-0.7
			c0.8,0,1.5,0.2,1.9,0.7c0.4,0.4,0.7,1.1,0.7,1.8v0.6c0,0.2-0.1,0.3-0.3,0.3h-4.4v0.8c0,0.6,0.2,1,0.5,1.4c0.3,0.3,0.8,0.5,1.5,0.5
			c1,0,1.7-0.4,2.1-1.2c0.1-0.1,0.1-0.1,0.2-0.1l0.2,0.1c0.1,0,0.1,0.1,0,0.2C240.7,22.5,239.8,23,238.6,23z M236.6,19.4h4.2v-0.5
			c0-0.6-0.2-1.1-0.5-1.5c-0.4-0.4-0.9-0.5-1.5-0.5c-0.7,0-1.2,0.2-1.6,0.5c-0.4,0.4-0.5,0.8-0.5,1.5V19.4z"/>
		<path class="st1" d="M245.2,23c-1.3,0-2.2-0.5-2.6-1.5c0-0.1,0-0.2,0.1-0.2l0.2-0.1c0.1,0,0.2,0,0.2,0.1c0.3,0.8,1,1.2,2.1,1.2
			c1.3,0,1.9-0.4,1.9-1.3c0-0.5-0.2-0.8-0.5-0.9s-0.8-0.3-1.4-0.3c-0.2,0-0.4,0-0.5-0.1c-0.1,0-0.3,0-0.5-0.1s-0.4-0.1-0.5-0.1
			c-0.1,0-0.2-0.1-0.4-0.2c-0.1-0.1-0.2-0.2-0.3-0.3c-0.1-0.1-0.1-0.3-0.2-0.4c-0.1-0.2-0.1-0.4-0.1-0.6c0-0.5,0.2-1,0.6-1.3
			c0.4-0.3,1-0.5,1.7-0.5c1.2,0,2,0.4,2.4,1.3c0,0.1,0,0.2-0.1,0.2l-0.2,0.1c-0.1,0-0.1,0-0.2-0.1c-0.2-0.4-0.4-0.6-0.7-0.8
			s-0.7-0.3-1.3-0.3c-1.2,0-1.8,0.4-1.8,1.2c0,0.2,0,0.4,0.1,0.6s0.2,0.3,0.3,0.4c0.1,0.1,0.2,0.2,0.5,0.2s0.4,0.1,0.5,0.1
			c0.1,0,0.4,0,0.7,0.1c0.4,0,0.7,0.1,0.9,0.1c0.2,0.1,0.5,0.1,0.7,0.3s0.4,0.3,0.5,0.5c0.1,0.2,0.2,0.5,0.2,0.8
			c0,0.6-0.2,1-0.6,1.3S246,23,245.2,23z"/>
		<path class="st1" d="M252.3,22.8c-0.9,0-1.5-0.2-1.9-0.5c-0.3-0.3-0.5-1-0.5-1.9v-3.3h-1.3c-0.1,0-0.1,0-0.1,0c0,0,0-0.1,0-0.1
			v-0.2c0-0.1,0-0.1,0.1-0.1h1.3v-1.3c0-0.1,0-0.1,0.1-0.1h0.2c0.1,0,0.1,0,0.1,0.1v1.3h1.9c0.1,0,0.1,0,0.1,0.1V17
			c0,0.1,0,0.1-0.1,0.1h-1.9v3.3c0,0.8,0.1,1.3,0.4,1.5c0.3,0.2,0.8,0.4,1.5,0.4c0.1,0,0.1,0,0.1,0.1v0.2
			C252.5,22.8,252.4,22.8,252.3,22.8z"/>
		<path class="st1" d="M253.9,22.8c-0.1,0-0.1,0-0.1-0.1v-5.1c0-0.2,0-0.3,0.1-0.4c0.1-0.1,0.2-0.2,0.4-0.3c0.6-0.2,1.2-0.4,1.8-0.4
			c0.7,0,1.3,0.2,1.6,0.6c0.7-0.4,1.5-0.6,2.2-0.6c1.4,0,2.2,0.7,2.2,2.2v3.9c0,0.1,0,0.1-0.1,0.1h-0.2c-0.1,0-0.1,0-0.1-0.1v-3.9
			c0-0.6-0.1-1.1-0.4-1.3c-0.3-0.3-0.7-0.4-1.3-0.4c-0.7,0-1.3,0.2-1.9,0.5c0.2,0.3,0.3,0.7,0.3,1.3v3.9c0,0.1,0,0.1-0.1,0.1h-0.2
			c-0.1,0-0.1,0-0.1-0.1v-3.9c0-0.6-0.1-1.1-0.4-1.3S256.6,17,256,17c-0.6,0-1,0.1-1.5,0.3c-0.2,0.1-0.3,0.2-0.3,0.4v5
			c0,0.1,0,0.1-0.1,0.1H253.9z"/>
		<path class="st1" d="M266.4,23c-0.8,0-1.5-0.2-1.9-0.6s-0.6-1-0.6-1.7V19c0-0.8,0.2-1.4,0.7-1.8c0.4-0.4,1.1-0.7,1.9-0.7
			c0.8,0,1.5,0.2,1.9,0.7c0.4,0.4,0.7,1.1,0.7,1.8v0.6c0,0.2-0.1,0.3-0.3,0.3h-4.4v0.8c0,0.6,0.2,1,0.5,1.4c0.3,0.3,0.8,0.5,1.5,0.5
			c1,0,1.7-0.4,2.1-1.2c0.1-0.1,0.1-0.1,0.2-0.1l0.2,0.1c0.1,0,0.1,0.1,0,0.2C268.4,22.5,267.6,23,266.4,23z M264.4,19.4h4.2v-0.5
			c0-0.6-0.2-1.1-0.5-1.5c-0.4-0.4-0.9-0.5-1.5-0.5c-0.7,0-1.2,0.2-1.6,0.5c-0.4,0.4-0.5,0.8-0.5,1.5V19.4z"/>
		<path class="st1" d="M270.9,22.8c-0.1,0-0.1,0-0.1-0.1v-5.1c0-0.2,0-0.3,0.1-0.4c0.1-0.1,0.2-0.2,0.4-0.3c0.7-0.3,1.4-0.4,2.2-0.4
			c1.5,0,2.3,0.8,2.3,2.3v3.9c0,0.1,0,0.1-0.1,0.1h-0.2c-0.1,0-0.1,0-0.1-0.1v-3.8c0-1.2-0.6-1.9-1.9-1.9c-0.7,0-1.3,0.1-1.8,0.3
			c-0.2,0.1-0.2,0.2-0.2,0.4v5c0,0.1,0,0.1-0.1,0.1H270.9z"/>
		<path class="st1" d="M280.7,22.8c-0.9,0-1.5-0.2-1.9-0.5c-0.3-0.3-0.5-1-0.5-1.9v-3.3H277c-0.1,0-0.1,0-0.1,0c0,0,0-0.1,0-0.1
			v-0.2c0-0.1,0-0.1,0.1-0.1h1.3v-1.3c0-0.1,0-0.1,0.1-0.1h0.2c0.1,0,0.1,0,0.1,0.1v1.3h1.9c0.1,0,0.1,0,0.1,0.1V17
			c0,0.1,0,0.1-0.1,0.1h-1.9v3.3c0,0.8,0.1,1.3,0.4,1.5c0.3,0.2,0.8,0.4,1.5,0.4c0.1,0,0.1,0,0.1,0.1v0.2
			C280.8,22.8,280.7,22.8,280.7,22.8z"/>
		<path class="st1" d="M285.7,22.8c-0.1,0-0.1-0.1-0.1-0.2v-8.2c0-0.1,0-0.2,0.1-0.2h3.2c0.8,0,1.5,0.2,1.9,0.7
			c0.5,0.5,0.7,1.1,0.7,1.9c0,0.8-0.2,1.4-0.7,1.9c-0.5,0.5-1.1,0.7-1.9,0.7h-2.8v3.2c0,0.1,0,0.2-0.1,0.2H285.7z M286.1,19h2.8
			c0.7,0,1.2-0.2,1.6-0.5s0.6-0.9,0.6-1.5c0-0.7-0.2-1.2-0.6-1.5s-0.9-0.6-1.6-0.6h-2.8V19z"/>
		<path class="st1" d="M293.3,22.8c-0.1,0-0.1,0-0.1-0.1v-8.6c0-0.1,0-0.1,0.1-0.1h0.2c0.1,0,0.1,0,0.1,0.1v2.8
			c0.6-0.3,1.3-0.4,2.1-0.4c1.6,0,2.3,0.8,2.3,2.3v3.9c0,0.1,0,0.1-0.1,0.1h-0.2c-0.1,0-0.1,0-0.1-0.1v-3.8c0-1.2-0.6-1.9-1.9-1.9
			c-0.8,0-1.5,0.1-2.1,0.4v5.3c0,0.1,0,0.1-0.1,0.1H293.3z"/>
		<path class="st1" d="M302.4,23c-1,0-1.7-0.1-2-0.4c-0.4-0.3-0.5-0.8-0.5-1.4c0-0.7,0.2-1.1,0.6-1.4c0.4-0.3,1.1-0.4,2-0.4
			c0.4,0,1,0,1.8,0.1v-0.7c0-0.6-0.1-1-0.4-1.4c-0.3-0.3-0.7-0.5-1.4-0.5c-0.9,0-1.5,0.3-1.9,1c0,0.1-0.1,0.1-0.2,0.1l-0.2-0.1
			c-0.1,0-0.1-0.1-0.1-0.2c0.4-0.8,1.2-1.3,2.4-1.3c0.9,0,1.5,0.2,1.8,0.6c0.3,0.4,0.5,1,0.5,1.7V22c0,0.2,0,0.4-0.1,0.4
			c-0.1,0.1-0.2,0.2-0.3,0.2C303.8,22.9,303.2,23,302.4,23z M302.3,22.5c0.7,0,1.2-0.1,1.6-0.3c0.1,0,0.2-0.1,0.2-0.1
			c0-0.1,0-0.1,0-0.3v-2c-0.6-0.1-1.2-0.1-1.8-0.1c-0.7,0-1.3,0.1-1.6,0.3c-0.3,0.2-0.5,0.6-0.5,1.1c0,0.5,0.1,0.8,0.4,1.1
			C301,22.4,301.6,22.5,302.3,22.5z"/>
		<path class="st1" d="M308.8,23c-1.3,0-2.2-0.5-2.6-1.5c0-0.1,0-0.2,0.1-0.2l0.2-0.1c0.1,0,0.2,0,0.2,0.1c0.3,0.8,1,1.2,2.1,1.2
			c1.3,0,1.9-0.4,1.9-1.3c0-0.5-0.2-0.8-0.5-0.9s-0.8-0.3-1.4-0.3c-0.2,0-0.4,0-0.5-0.1c-0.1,0-0.3,0-0.5-0.1s-0.4-0.1-0.5-0.1
			c-0.1,0-0.2-0.1-0.4-0.2c-0.1-0.1-0.2-0.2-0.3-0.3c-0.1-0.1-0.1-0.3-0.2-0.4c-0.1-0.2-0.1-0.4-0.1-0.6c0-0.5,0.2-1,0.6-1.3
			c0.4-0.3,1-0.5,1.7-0.5c1.2,0,2,0.4,2.4,1.3c0,0.1,0,0.2-0.1,0.2l-0.2,0.1c-0.1,0-0.1,0-0.2-0.1c-0.2-0.4-0.4-0.6-0.7-0.8
			s-0.7-0.3-1.3-0.3c-1.2,0-1.8,0.4-1.8,1.2c0,0.2,0,0.4,0.1,0.6s0.2,0.3,0.3,0.4c0.1,0.1,0.2,0.2,0.5,0.2s0.4,0.1,0.5,0.1
			c0.1,0,0.4,0,0.7,0.1c0.4,0,0.7,0.1,0.9,0.1c0.2,0.1,0.5,0.1,0.7,0.3s0.4,0.3,0.5,0.5c0.1,0.2,0.2,0.5,0.2,0.8
			c0,0.6-0.2,1-0.6,1.3S309.6,23,308.8,23z"/>
		<path class="st1" d="M315.2,23c-0.8,0-1.5-0.2-1.9-0.6s-0.6-1-0.6-1.7V19c0-0.8,0.2-1.4,0.7-1.8c0.4-0.4,1.1-0.7,1.9-0.7
			c0.8,0,1.5,0.2,1.9,0.7c0.4,0.4,0.7,1.1,0.7,1.8v0.6c0,0.2-0.1,0.3-0.3,0.3h-4.4v0.8c0,0.6,0.2,1,0.5,1.4c0.3,0.3,0.8,0.5,1.5,0.5
			c1,0,1.7-0.4,2.1-1.2c0.1-0.1,0.1-0.1,0.2-0.1l0.2,0.1c0.1,0,0.1,0.1,0,0.2C317.3,22.5,316.4,23,315.2,23z M313.2,19.4h4.2v-0.5
			c0-0.6-0.2-1.1-0.5-1.5c-0.4-0.4-0.9-0.5-1.5-0.5c-0.7,0-1.2,0.2-1.6,0.5c-0.4,0.4-0.5,0.8-0.5,1.5V19.4z"/>
	</g>
</g>
</svg>
