<?xml version="1.0" encoding="utf-8"?>
<!-- Generator: Adobe Illustrator 24.1.2, SVG Export Plug-In . SVG Version: 6.00 Build 0)  -->
<svg version="1.1" id="Layer_1" xmlns="http://www.w3.org/2000/svg" xmlns:xlink="http://www.w3.org/1999/xlink" x="0px" y="0px"
	 viewBox="0 0 500 38.6" style="enable-background:new 0 0 500 38.6;" xml:space="preserve">
<style type="text/css">
	.st0{fill:url(#SVGID_1_);}
	.st1{fill:#FFFFFF;}
</style>
<g id="Layer_2_1_">
	<g id="Layer_1-2">
		
			<linearGradient id="SVGID_1_" gradientUnits="userSpaceOnUse" x1="-0.2612" y1="1413.5" x2="499.7388" y2="1413.5" gradientTransform="matrix(1 0 0 1 0 -1394.1899)">
			<stop  offset="0" style="stop-color:#EDEDED"/>
			<stop  offset="1" style="stop-color:#000000"/>
		</linearGradient>
		<polygon class="st0" points="487.5,0 487.4,0 487.4,10.8 12.1,10.8 12.1,0 11.9,0 -0.3,19.3 11.9,38.6 12.1,38.6 12.1,27.8 
			487.4,27.8 487.4,38.6 487.5,38.6 499.7,19.3 		"/>
	</g>
</g>
<g>
	<path class="st1" d="M191.2,22.7c-0.1,0-0.1-0.1-0.1-0.2v-8.2c0-0.1,0-0.2,0.1-0.2h0.3c0.1,0,0.1,0.1,0.1,0.2v8.2
		c0,0.1,0,0.2-0.1,0.2H191.2z"/>
	<path class="st1" d="M193.9,22.7c-0.1,0-0.1,0-0.1-0.1v-5.1c0-0.2,0-0.3,0.1-0.4c0.1-0.1,0.2-0.2,0.4-0.3c0.7-0.3,1.4-0.4,2.2-0.4
		c1.5,0,2.3,0.8,2.3,2.3v3.9c0,0.1,0,0.1-0.1,0.1h-0.2c-0.1,0-0.1,0-0.1-0.1v-3.8c0-1.2-0.6-1.9-1.9-1.9c-0.7,0-1.3,0.1-1.8,0.3
		c-0.2,0.1-0.2,0.2-0.2,0.4v5c0,0.1,0,0.1-0.1,0.1H193.9z"/>
	<path class="st1" d="M200.9,15c-0.1,0-0.2,0-0.3-0.1s-0.1-0.1-0.1-0.3v-0.1c0-0.1,0-0.2,0.1-0.3c0,0,0.1-0.1,0.3-0.1h0.1
		c0.1,0,0.2,0,0.3,0.1c0,0,0.1,0.1,0.1,0.3v0.1c0,0.1,0,0.2-0.1,0.3S201.1,15,200.9,15L200.9,15z M200.8,22.7c-0.1,0-0.1,0-0.1-0.1
		v-5.9c0-0.1,0-0.1,0.1-0.1h0.2c0.1,0,0.1,0,0.1,0.1v5.9c0,0.1,0,0.1-0.1,0.1H200.8z"/>
	<path class="st1" d="M206.3,22.7c-0.9,0-1.5-0.2-1.9-0.5c-0.3-0.3-0.5-1-0.5-1.9V17h-1.3c-0.1,0-0.1,0-0.1,0c0,0,0-0.1,0-0.1v-0.2
		c0-0.1,0-0.1,0.1-0.1h1.3v-1.3c0-0.1,0-0.1,0.1-0.1h0.2c0.1,0,0.1,0,0.1,0.1v1.3h1.9c0.1,0,0.1,0,0.1,0.1v0.2c0,0.1,0,0.1-0.1,0.1
		h-1.9v3.3c0,0.8,0.1,1.3,0.4,1.5c0.3,0.2,0.8,0.4,1.5,0.4c0.1,0,0.1,0,0.1,0.1v0.2C206.5,22.7,206.4,22.7,206.3,22.7z"/>
	<path class="st1" d="M208,15c-0.1,0-0.2,0-0.3-0.1s-0.1-0.1-0.1-0.3v-0.1c0-0.1,0-0.2,0.1-0.3c0,0,0.1-0.1,0.3-0.1h0.1
		c0.1,0,0.2,0,0.3,0.1c0,0,0.1,0.1,0.1,0.3v0.1c0,0.1,0,0.2-0.1,0.3S208.2,15,208,15L208,15z M207.9,22.7c-0.1,0-0.1,0-0.1-0.1v-5.9
		c0-0.1,0-0.1,0.1-0.1h0.2c0.1,0,0.1,0,0.1,0.1v5.9c0,0.1,0,0.1-0.1,0.1H207.9z"/>
	<path class="st1" d="M212.6,22.9c-1,0-1.7-0.1-2-0.4S210,21.7,210,21c0-0.7,0.2-1.1,0.6-1.4c0.4-0.3,1.1-0.4,2-0.4
		c0.4,0,1,0,1.8,0.1v-0.7c0-0.6-0.1-1-0.4-1.4c-0.3-0.3-0.7-0.5-1.4-0.5c-0.9,0-1.5,0.3-1.9,1c0,0.1-0.1,0.1-0.2,0.1l-0.2-0.1
		c-0.1,0-0.1-0.1-0.1-0.2c0.4-0.8,1.2-1.3,2.4-1.3c0.9,0,1.5,0.2,1.8,0.6c0.3,0.4,0.5,1,0.5,1.7v3.2c0,0.2,0,0.4-0.1,0.4
		c-0.1,0.1-0.2,0.2-0.3,0.2C214,22.8,213.4,22.9,212.6,22.9z M212.5,22.4c0.7,0,1.2-0.1,1.6-0.3c0.1,0,0.2-0.1,0.2-0.1
		c0-0.1,0-0.2,0-0.3v-2c-0.6-0.1-1.2-0.1-1.8-0.1c-0.7,0-1.3,0.1-1.6,0.3c-0.3,0.2-0.5,0.6-0.5,1.1c0,0.5,0.1,0.8,0.4,1.1
		C211.2,22.3,211.8,22.4,212.5,22.4z"/>
	<path class="st1" d="M217.1,22.7c-0.1,0-0.1,0-0.1-0.1V14c0-0.1,0-0.1,0.1-0.1h0.2c0.1,0,0.1,0,0.1,0.1v8.6c0,0.1,0,0.1-0.1,0.1
		H217.1z"/>
	<path class="st1" d="M223.1,22.7c-0.1,0-0.1-0.1-0.1-0.2v-8.2c0-0.1,0-0.2,0.1-0.2h0.3c0.1,0,0.1,0.1,0.1,0.2v8.2
		c0,0.1,0,0.2-0.1,0.2H223.1z"/>
	<path class="st1" d="M225.8,22.7c-0.1,0-0.1,0-0.1-0.1v-5.1c0-0.2,0-0.3,0.1-0.4c0.1-0.1,0.2-0.2,0.4-0.3c0.7-0.3,1.4-0.4,2.2-0.4
		c1.5,0,2.3,0.8,2.3,2.3v3.9c0,0.1,0,0.1-0.1,0.1h-0.2c-0.1,0-0.1,0-0.1-0.1v-3.8c0-1.2-0.6-1.9-1.9-1.9c-0.7,0-1.3,0.1-1.8,0.3
		c-0.2,0.1-0.2,0.2-0.2,0.4v5c0,0.1,0,0.1-0.1,0.1H225.8z"/>
	<path class="st1" d="M234.6,22.8c-0.1,0-0.2,0-0.2-0.1l-2.5-5.9c0-0.1,0-0.2,0.1-0.2h0.2c0.1,0,0.2,0,0.2,0.1l1.9,4.5
		c0.1,0.1,0.1,0.3,0.2,0.5c0.1,0.2,0.1,0.4,0.1,0.4h0c0-0.1,0.1-0.2,0.2-0.4c0.1-0.2,0.1-0.4,0.2-0.5l1.9-4.5c0-0.1,0.1-0.1,0.2-0.1
		h0.2c0.1,0,0.1,0,0.1,0c0,0,0,0.1,0,0.1l-2.5,5.9c0,0.1-0.1,0.1-0.2,0.1H234.6z"/>
	<path class="st1" d="M241.1,22.9c-0.8,0-1.5-0.2-1.9-0.6s-0.6-1-0.6-1.7v-1.6c0-0.8,0.2-1.4,0.7-1.8c0.4-0.4,1.1-0.7,1.9-0.7
		c0.8,0,1.5,0.2,1.9,0.7c0.4,0.4,0.7,1.1,0.7,1.8v0.6c0,0.2-0.1,0.3-0.3,0.3h-4.4v0.8c0,0.6,0.2,1,0.5,1.4c0.3,0.3,0.8,0.5,1.5,0.5
		c1,0,1.7-0.4,2.1-1.2c0.1-0.1,0.1-0.1,0.2-0.1l0.2,0.1c0.1,0,0.1,0.1,0,0.2C243.1,22.4,242.3,22.9,241.1,22.9z M239.1,19.3h4.2
		v-0.5c0-0.6-0.2-1.1-0.5-1.5c-0.4-0.4-0.9-0.5-1.5-0.5c-0.7,0-1.2,0.2-1.6,0.5c-0.4,0.4-0.5,0.8-0.5,1.5V19.3z"/>
	<path class="st1" d="M247.7,22.9c-1.3,0-2.2-0.5-2.6-1.5c0-0.1,0-0.2,0.1-0.2l0.2-0.1c0.1,0,0.2,0,0.2,0.1c0.3,0.8,1,1.2,2.1,1.2
		c1.3,0,1.9-0.4,1.9-1.3c0-0.5-0.2-0.8-0.5-0.9s-0.8-0.3-1.4-0.3c-0.2,0-0.4,0-0.5-0.1c-0.1,0-0.3,0-0.5-0.1s-0.4-0.1-0.5-0.1
		c-0.1,0-0.2-0.1-0.4-0.2c-0.1-0.1-0.2-0.2-0.3-0.3c-0.1-0.1-0.1-0.3-0.2-0.4s-0.1-0.4-0.1-0.6c0-0.5,0.2-1,0.6-1.3
		c0.4-0.3,1-0.5,1.7-0.5c1.2,0,2,0.4,2.4,1.3c0,0.1,0,0.2-0.1,0.2l-0.2,0.1c-0.1,0-0.1,0-0.2-0.1c-0.2-0.4-0.4-0.6-0.7-0.8
		s-0.7-0.3-1.3-0.3c-1.2,0-1.8,0.4-1.8,1.2c0,0.2,0,0.4,0.1,0.6c0.1,0.2,0.2,0.3,0.3,0.4c0.1,0.1,0.2,0.2,0.5,0.2
		c0.2,0.1,0.4,0.1,0.5,0.1s0.4,0,0.7,0.1c0.4,0,0.7,0.1,0.9,0.1c0.2,0.1,0.5,0.1,0.7,0.3c0.2,0.1,0.4,0.3,0.5,0.5
		c0.1,0.2,0.2,0.5,0.2,0.8c0,0.6-0.2,1-0.6,1.3C249,22.7,248.5,22.9,247.7,22.9z"/>
	<path class="st1" d="M254.8,22.7c-0.9,0-1.5-0.2-1.9-0.5c-0.3-0.3-0.5-1-0.5-1.9V17h-1.3c-0.1,0-0.1,0-0.1,0c0,0,0-0.1,0-0.1v-0.2
		c0-0.1,0-0.1,0.1-0.1h1.3v-1.3c0-0.1,0-0.1,0.1-0.1h0.2c0.1,0,0.1,0,0.1,0.1v1.3h1.9c0.1,0,0.1,0,0.1,0.1v0.2c0,0.1,0,0.1-0.1,0.1
		h-1.9v3.3c0,0.8,0.1,1.3,0.4,1.5c0.3,0.2,0.8,0.4,1.5,0.4c0.1,0,0.1,0,0.1,0.1v0.2C254.9,22.7,254.9,22.7,254.8,22.7z"/>
	<path class="st1" d="M256.4,22.7c-0.1,0-0.1,0-0.1-0.1v-5.1c0-0.2,0-0.3,0.1-0.4c0.1-0.1,0.2-0.2,0.4-0.3c0.6-0.2,1.2-0.4,1.8-0.4
		c0.7,0,1.3,0.2,1.6,0.6c0.7-0.4,1.5-0.6,2.2-0.6c1.4,0,2.2,0.7,2.2,2.2v3.9c0,0.1,0,0.1-0.1,0.1h-0.2c-0.1,0-0.1,0-0.1-0.1v-3.9
		c0-0.6-0.1-1.1-0.4-1.3c-0.3-0.3-0.7-0.4-1.3-0.4c-0.7,0-1.3,0.2-1.9,0.5c0.2,0.3,0.3,0.7,0.3,1.3v3.9c0,0.1,0,0.1-0.1,0.1h-0.2
		c-0.1,0-0.1,0-0.1-0.1v-3.9c0-0.6-0.1-1.1-0.4-1.3s-0.7-0.4-1.3-0.4c-0.6,0-1,0.1-1.5,0.3c-0.2,0.1-0.3,0.2-0.3,0.4v5
		c0,0.1,0,0.1-0.1,0.1H256.4z"/>
	<path class="st1" d="M268.8,22.9c-0.8,0-1.5-0.2-1.9-0.6s-0.6-1-0.6-1.7v-1.6c0-0.8,0.2-1.4,0.7-1.8c0.4-0.4,1.1-0.7,1.9-0.7
		c0.8,0,1.5,0.2,1.9,0.7c0.4,0.4,0.7,1.1,0.7,1.8v0.6c0,0.2-0.1,0.3-0.3,0.3h-4.4v0.8c0,0.6,0.2,1,0.5,1.4c0.3,0.3,0.8,0.5,1.5,0.5
		c1,0,1.7-0.4,2.1-1.2c0.1-0.1,0.1-0.1,0.2-0.1l0.2,0.1c0.1,0,0.1,0.1,0,0.2C270.9,22.4,270.1,22.9,268.8,22.9z M266.8,19.3h4.2
		v-0.5c0-0.6-0.2-1.1-0.5-1.5c-0.4-0.4-0.9-0.5-1.5-0.5c-0.7,0-1.2,0.2-1.6,0.5c-0.4,0.4-0.5,0.8-0.5,1.5V19.3z"/>
	<path class="st1" d="M273.4,22.7c-0.1,0-0.1,0-0.1-0.1v-5.1c0-0.2,0-0.3,0.1-0.4c0.1-0.1,0.2-0.2,0.4-0.3c0.7-0.3,1.4-0.4,2.2-0.4
		c1.5,0,2.3,0.8,2.3,2.3v3.9c0,0.1,0,0.1-0.1,0.1h-0.2c-0.1,0-0.1,0-0.1-0.1v-3.8c0-1.2-0.6-1.9-1.9-1.9c-0.7,0-1.3,0.1-1.8,0.3
		c-0.2,0.1-0.2,0.2-0.2,0.4v5c0,0.1,0,0.1-0.1,0.1H273.4z"/>
	<path class="st1" d="M283.1,22.7c-0.9,0-1.5-0.2-1.9-0.5c-0.3-0.3-0.5-1-0.5-1.9V17h-1.3c-0.1,0-0.1,0-0.1,0c0,0,0-0.1,0-0.1v-0.2
		c0-0.1,0-0.1,0.1-0.1h1.3v-1.3c0-0.1,0-0.1,0.1-0.1h0.2c0.1,0,0.1,0,0.1,0.1v1.3h1.9c0.1,0,0.1,0,0.1,0.1v0.2c0,0.1,0,0.1-0.1,0.1
		h-1.9v3.3c0,0.8,0.1,1.3,0.4,1.5c0.3,0.2,0.8,0.4,1.5,0.4c0.1,0,0.1,0,0.1,0.1v0.2C283.3,22.7,283.2,22.7,283.1,22.7z"/>
	<path class="st1" d="M290.8,22.9c-0.8,0-1.5-0.2-2-0.5c-0.5-0.3-0.9-0.9-1.2-1.6c0-0.1,0-0.2,0.1-0.2l0.2-0.1c0.1,0,0.2,0,0.2,0.1
		c0.5,1.2,1.4,1.8,2.7,1.8c1.7,0,2.6-0.6,2.6-1.9c0-0.3,0-0.5-0.2-0.7c-0.1-0.2-0.2-0.4-0.4-0.5c-0.1-0.1-0.3-0.2-0.6-0.3
		c-0.3-0.1-0.5-0.1-0.7-0.2c-0.2,0-0.4-0.1-0.8-0.1c-0.3,0-0.6-0.1-0.8-0.1c-0.2,0-0.4-0.1-0.7-0.1c-0.3-0.1-0.5-0.2-0.7-0.3
		s-0.3-0.2-0.5-0.4c-0.2-0.2-0.3-0.3-0.4-0.6c-0.1-0.2-0.1-0.5-0.1-0.8c0-0.7,0.3-1.3,0.8-1.7s1.3-0.6,2.2-0.6
		c0.8,0,1.4,0.1,1.9,0.4c0.5,0.3,0.9,0.8,1.2,1.4c0.1,0.1,0,0.2-0.1,0.2l-0.2,0.1c-0.1,0-0.2,0-0.2-0.1c-0.3-0.5-0.6-0.9-1-1.2
		c-0.4-0.3-0.9-0.4-1.6-0.4c-0.8,0-1.4,0.2-1.8,0.5c-0.4,0.3-0.6,0.8-0.6,1.3c0,0.3,0.1,0.5,0.2,0.7c0.1,0.2,0.2,0.4,0.4,0.5
		c0.1,0.1,0.4,0.2,0.6,0.3c0.3,0.1,0.5,0.1,0.7,0.2s0.5,0.1,0.8,0.1c0.3,0,0.5,0.1,0.7,0.1c0.2,0,0.4,0.1,0.7,0.2
		c0.3,0.1,0.5,0.2,0.6,0.3s0.3,0.2,0.5,0.4c0.2,0.2,0.3,0.4,0.3,0.6s0.1,0.5,0.1,0.8c0,0.8-0.3,1.4-0.8,1.8
		C292.6,22.7,291.8,22.9,290.8,22.9z"/>
	<path class="st1" d="M295.9,15c-0.1,0-0.2,0-0.3-0.1s-0.1-0.1-0.1-0.3v-0.1c0-0.1,0-0.2,0.1-0.3c0,0,0.1-0.1,0.3-0.1h0.1
		c0.1,0,0.2,0,0.3,0.1c0,0,0.1,0.1,0.1,0.3v0.1c0,0.1,0,0.2-0.1,0.3S296.1,15,295.9,15L295.9,15z M295.8,22.7c-0.1,0-0.1,0-0.1-0.1
		v-5.9c0-0.1,0-0.1,0.1-0.1h0.2c0.1,0,0.1,0,0.1,0.1v5.9c0,0.1,0,0.1-0.1,0.1H295.8z"/>
	<path class="st1" d="M297.9,22.7c-0.1,0-0.1,0-0.1-0.1v-0.2c0-0.1,0-0.1,0.1-0.2l3.9-5.2H298c-0.1,0-0.1,0-0.1-0.1v-0.2
		c0-0.1,0-0.1,0.1-0.1h4.3c0.1,0,0.1,0,0.1,0.1v0.2c0,0.1,0,0.1-0.1,0.2l-3.9,5.2h3.9c0.1,0,0.1,0,0.1,0.1v0.2c0,0.1,0,0.1-0.1,0.1
		H297.9z"/>
	<path class="st1" d="M306.3,22.9c-0.8,0-1.5-0.2-1.9-0.6s-0.6-1-0.6-1.7v-1.6c0-0.8,0.2-1.4,0.7-1.8c0.4-0.4,1.1-0.7,1.9-0.7
		c0.8,0,1.5,0.2,1.9,0.7c0.4,0.4,0.7,1.1,0.7,1.8v0.6c0,0.2-0.1,0.3-0.3,0.3h-4.4v0.8c0,0.6,0.2,1,0.5,1.4c0.3,0.3,0.8,0.5,1.5,0.5
		c1,0,1.7-0.4,2.1-1.2c0.1-0.1,0.1-0.1,0.2-0.1l0.2,0.1c0.1,0,0.1,0.1,0,0.2C308.3,22.4,307.5,22.9,306.3,22.9z M304.3,19.3h4.2
		v-0.5c0-0.6-0.2-1.1-0.5-1.5c-0.4-0.4-0.9-0.5-1.5-0.5c-0.7,0-1.2,0.2-1.6,0.5c-0.4,0.4-0.5,0.8-0.5,1.5V19.3z"/>
</g>
</svg>
