<?xml version="1.0" encoding="utf-8"?>
<!-- Generator: Adobe Illustrator 24.1.2, SVG Export Plug-In . SVG Version: 6.00 Build 0)  -->
<svg version="1.1" id="Layer_1" xmlns="http://www.w3.org/2000/svg" xmlns:xlink="http://www.w3.org/1999/xlink" x="0px" y="0px"
	 viewBox="0 0 500 47" style="enable-background:new 0 0 500 47;" xml:space="preserve">
<style type="text/css">
	.st0{fill:url(#SVGID_1_);}
	.st1{opacity:0.82;}
</style>
<g>
	<g id="Layer_2_1_">
		<g id="Layer_1-2">
			
				<linearGradient id="SVGID_1_" gradientUnits="userSpaceOnUse" x1="0.4594" y1="-1365.1182" x2="500.4594" y2="-1365.1182" gradientTransform="matrix(1 0 0 -1 0 -1337.4463)">
				<stop  offset="0" style="stop-color:#EDEDED"/>
				<stop  offset="1" style="stop-color:#000000"/>
			</linearGradient>
			<polygon class="st0" points="488.3,8.4 488.2,8.4 488.2,19.2 12.9,19.2 12.9,8.4 12.7,8.4 0.5,27.7 12.7,47 12.9,47 12.9,36.2 
				488.2,36.2 488.2,47 488.3,47 500.5,27.7 			"/>
		</g>
	</g>
	<g class="st1">
		<path d="M179.9,11.4c-0.1,0-0.1-0.1-0.1-0.2V3c0-0.1,0-0.2,0.1-0.2h0.3c0.1,0,0.1,0.1,0.1,0.2v8.2c0,0.1,0,0.2-0.1,0.2H179.9z"/>
		<path d="M182.8,11.4c-0.1,0-0.1-0.1-0.1-0.2V3c0-0.1,0-0.2,0.1-0.2h0.3c0.1,0,0.1,0,0.2,0.1l4.1,5.9c0.2,0.2,0.4,0.5,0.6,0.9
			c0.2,0.4,0.4,0.7,0.5,0.8h0c0-0.1,0-0.5,0-1c0-0.5,0-0.9,0-1.2V3c0-0.1,0-0.1,0.1-0.1h0.2c0.1,0,0.2,0.1,0.2,0.2v8.2
			c0,0.1-0.1,0.2-0.2,0.2h-0.2c-0.1,0-0.1,0-0.2-0.1l-4.2-6.1c-0.1-0.2-0.3-0.5-0.5-0.9c-0.2-0.4-0.4-0.6-0.4-0.7h0
			c0,0.1,0,0.4,0,0.9c0,0.5,0,0.8,0,1.1v5.6c0,0.1-0.1,0.2-0.2,0.2H182.8z"/>
		<path d="M191.5,11.4c-0.1,0-0.1-0.1-0.1-0.2V3c0-0.1,0-0.2,0.1-0.2h0.3c0.1,0,0.1,0.1,0.1,0.2v8.2c0,0.1,0,0.2-0.1,0.2H191.5z"/>
		<path d="M196.4,11.4c-0.1,0-0.1-0.1-0.1-0.2V3.4h-2.7c-0.1,0-0.1,0-0.1-0.1V3c0-0.1,0-0.2,0.1-0.2h5.9c0.1,0,0.1,0.1,0.1,0.2v0.2
			c0,0.1,0,0.1-0.1,0.1h-2.7v7.8c0,0.1-0.1,0.2-0.2,0.2H196.4z"/>
		<path d="M201.3,11.4c-0.1,0-0.1-0.1-0.1-0.2V3c0-0.1,0-0.2,0.1-0.2h0.3c0.1,0,0.1,0.1,0.1,0.2v8.2c0,0.1,0,0.2-0.1,0.2H201.3z"/>
		<path d="M203.3,11.4c-0.1,0-0.1,0-0.1-0.1l3.3-8.3c0-0.1,0.1-0.1,0.2-0.1h0.2c0.1,0,0.2,0,0.2,0.1l3.3,8.3c0.1,0.1,0,0.1-0.1,0.1
			h-0.2c-0.2,0-0.2,0-0.3-0.1l-1.1-2.7h-4l-1.1,2.7c0,0.1-0.1,0.1-0.3,0.1H203.3z M205,8.2h3.6L207,3.9c0,0,0-0.2-0.1-0.5h0
			c0,0,0,0,0,0.1c0,0.1,0,0.1,0,0.2c0,0.1,0,0.1-0.1,0.2L205,8.2z"/>
		<path d="M212.2,11.4c-0.1,0-0.1-0.1-0.1-0.2V3c0-0.1,0-0.2,0.1-0.2h0.3c0.1,0,0.1,0.1,0.1,0.2v7.8h4.4c0.1,0,0.1,0,0.1,0.1v0.2
			c0,0.1,0,0.2-0.1,0.2H212.2z"/>
		<path d="M221.8,11.4c-0.1,0-0.1-0.1-0.1-0.2V3c0-0.1,0-0.2,0.1-0.2h0.3c0.1,0,0.1,0.1,0.1,0.2v8.2c0,0.1,0,0.2-0.1,0.2H221.8z"/>
		<path d="M224.7,11.4c-0.1,0-0.1-0.1-0.1-0.2V3c0-0.1,0-0.2,0.1-0.2h0.3c0.1,0,0.1,0,0.2,0.1l4.1,5.9c0.2,0.2,0.3,0.5,0.6,0.9
			c0.2,0.4,0.4,0.7,0.5,0.8h0c0-0.1,0-0.5,0-1s0-0.9,0-1.2V3c0-0.1,0-0.1,0.1-0.1h0.2c0.1,0,0.2,0.1,0.2,0.2v8.2
			c0,0.1-0.1,0.2-0.2,0.2h-0.2c-0.1,0-0.1,0-0.2-0.1L226,5.2c-0.1-0.2-0.3-0.5-0.5-0.9c-0.2-0.4-0.4-0.6-0.4-0.7h0
			c0,0.1,0,0.4,0,0.9c0,0.5,0,0.8,0,1.1v5.6c0,0.1-0.1,0.2-0.2,0.2H224.7z"/>
		<path d="M235.7,11.4c-0.1,0-0.2,0-0.2-0.1L232.3,3c0-0.1,0-0.1,0.1-0.1h0.2c0.1,0,0.2,0,0.3,0.1l2.7,6.9c0,0.1,0.1,0.3,0.2,0.5
			c0.1,0.2,0.1,0.3,0.1,0.3h0c0-0.1,0.1-0.2,0.1-0.4c0.1-0.2,0.1-0.3,0.1-0.4l2.7-6.9c0-0.1,0.1-0.1,0.3-0.1h0.2
			c0.1,0,0.1,0,0.1,0.1l-3.2,8.2c0,0.1-0.1,0.1-0.2,0.1H235.7z"/>
		<path d="M241.1,11.4c-0.1,0-0.1-0.1-0.1-0.2V3c0-0.1,0-0.2,0.1-0.2h4.9c0.1,0,0.2,0.1,0.2,0.2v0.2c0,0.1-0.1,0.1-0.2,0.1h-4.5v3.4
			h4c0.1,0,0.2,0.1,0.2,0.2v0.2c0,0.1-0.1,0.2-0.2,0.2h-4v3.5h4.7c0.1,0,0.1,0,0.1,0.1v0.2c0,0.1,0,0.2-0.1,0.2H241.1z"/>
		<path d="M250.9,11.6c-0.8,0-1.5-0.2-2-0.5c-0.5-0.3-0.9-0.9-1.2-1.6c0-0.1,0-0.2,0.1-0.2l0.2-0.1c0.1,0,0.2,0,0.2,0.1
			c0.5,1.2,1.4,1.8,2.7,1.8c1.7,0,2.6-0.6,2.6-1.9c0-0.3,0-0.5-0.2-0.7c-0.1-0.2-0.2-0.4-0.4-0.5c-0.1-0.1-0.3-0.2-0.6-0.3
			c-0.3-0.1-0.5-0.1-0.7-0.2c-0.2,0-0.4-0.1-0.8-0.1c-0.3,0-0.6-0.1-0.8-0.1c-0.2,0-0.4-0.1-0.7-0.1c-0.3-0.1-0.5-0.2-0.7-0.3
			s-0.3-0.2-0.5-0.4c-0.2-0.2-0.3-0.3-0.4-0.6c-0.1-0.2-0.1-0.5-0.1-0.8c0-0.7,0.3-1.3,0.8-1.7s1.3-0.6,2.2-0.6
			c0.8,0,1.4,0.1,1.9,0.4c0.5,0.3,0.9,0.8,1.2,1.4c0.1,0.1,0,0.2-0.1,0.2l-0.2,0.1c-0.1,0-0.2,0-0.2-0.1c-0.3-0.5-0.6-0.9-1-1.2
			c-0.4-0.3-0.9-0.4-1.6-0.4c-0.8,0-1.4,0.2-1.8,0.5c-0.4,0.3-0.6,0.8-0.6,1.3c0,0.3,0.1,0.5,0.2,0.7c0.1,0.2,0.2,0.4,0.4,0.5
			c0.1,0.1,0.4,0.2,0.6,0.3c0.3,0.1,0.5,0.1,0.7,0.2s0.5,0.1,0.8,0.1c0.3,0,0.5,0.1,0.7,0.1c0.2,0,0.4,0.1,0.7,0.2
			c0.3,0.1,0.5,0.2,0.6,0.3s0.3,0.2,0.5,0.4c0.2,0.2,0.3,0.4,0.3,0.6s0.1,0.5,0.1,0.8c0,0.8-0.3,1.4-0.8,1.8
			C252.7,11.4,251.9,11.6,250.9,11.6z"/>
		<path d="M258,11.4c-0.1,0-0.1-0.1-0.1-0.2V3.4h-2.7c-0.1,0-0.1,0-0.1-0.1V3c0-0.1,0-0.2,0.1-0.2h5.9c0.1,0,0.1,0.1,0.1,0.2v0.2
			c0,0.1,0,0.1-0.1,0.1h-2.7v7.8c0,0.1-0.1,0.2-0.2,0.2H258z"/>
		<path d="M262.9,11.4c-0.1,0-0.1-0.1-0.1-0.2V3c0-0.1,0-0.2,0.1-0.2h0.2c0.1,0,0.2,0,0.2,0.1l3.2,5.7l3.2-5.7
			c0.1-0.1,0.1-0.1,0.2-0.1h0.2c0.1,0,0.2,0.1,0.2,0.2v8.2c0,0.1-0.1,0.2-0.2,0.2H270c-0.1,0-0.2-0.1-0.2-0.2l0-5.5
			c0-0.7,0-1.4,0.1-2h0c-0.2,0.5-0.5,1.1-0.9,1.7l-2.1,3.8c-0.1,0.1-0.1,0.1-0.2,0.1h-0.2c-0.1,0-0.2,0-0.2-0.1l-2.2-3.8
			c-0.2-0.4-0.5-1-0.9-1.7h0c0,0.7,0.1,1.4,0.1,2v5.5c0,0.1-0.1,0.2-0.2,0.2H262.9z"/>
		<path d="M272.9,11.4c-0.1,0-0.1-0.1-0.1-0.2V3c0-0.1,0-0.2,0.1-0.2h4.9c0.1,0,0.2,0.1,0.2,0.2v0.2c0,0.1-0.1,0.1-0.2,0.1h-4.5v3.4
			h4c0.1,0,0.2,0.1,0.2,0.2v0.2c0,0.1-0.1,0.2-0.2,0.2h-4v3.5h4.7c0.1,0,0.1,0,0.1,0.1v0.2c0,0.1,0,0.2-0.1,0.2H272.9z"/>
		<path d="M280.1,11.4c-0.1,0-0.1-0.1-0.1-0.2V3c0-0.1,0-0.2,0.1-0.2h0.3c0.1,0,0.1,0,0.2,0.1l4.1,5.9c0.2,0.2,0.3,0.5,0.6,0.9
			c0.2,0.4,0.4,0.7,0.5,0.8h0c0-0.1,0-0.5,0-1s0-0.9,0-1.2V3c0-0.1,0-0.1,0.1-0.1h0.2c0.1,0,0.2,0.1,0.2,0.2v8.2
			c0,0.1-0.1,0.2-0.2,0.2h-0.2c-0.1,0-0.1,0-0.2-0.1l-4.2-6.1c-0.1-0.2-0.3-0.5-0.5-0.9c-0.2-0.4-0.4-0.6-0.4-0.7h0
			c0,0.1,0,0.4,0,0.9c0,0.5,0,0.8,0,1.1v5.6c0,0.1-0.1,0.2-0.2,0.2H280.1z"/>
		<path d="M290.7,11.4c-0.1,0-0.1-0.1-0.1-0.2V3.4h-2.7c-0.1,0-0.1,0-0.1-0.1V3c0-0.1,0-0.2,0.1-0.2h5.9c0.1,0,0.1,0.1,0.1,0.2v0.2
			c0,0.1,0,0.1-0.1,0.1h-2.7v7.8c0,0.1-0.1,0.2-0.2,0.2H290.7z"/>
		<path d="M301.2,11.6c-0.8,0-1.5-0.2-2-0.5c-0.5-0.3-0.9-0.9-1.2-1.6c0-0.1,0-0.2,0.1-0.2l0.2-0.1c0.1,0,0.2,0,0.2,0.1
			c0.5,1.2,1.4,1.8,2.7,1.8c1.7,0,2.6-0.6,2.6-1.9c0-0.3,0-0.5-0.2-0.7c-0.1-0.2-0.2-0.4-0.4-0.5c-0.1-0.1-0.3-0.2-0.6-0.3
			c-0.3-0.1-0.5-0.1-0.7-0.2c-0.2,0-0.4-0.1-0.8-0.1c-0.3,0-0.6-0.1-0.8-0.1c-0.2,0-0.4-0.1-0.7-0.1c-0.3-0.1-0.5-0.2-0.7-0.3
			s-0.3-0.2-0.5-0.4c-0.2-0.2-0.3-0.3-0.4-0.6c-0.1-0.2-0.1-0.5-0.1-0.8c0-0.7,0.3-1.3,0.8-1.7s1.3-0.6,2.2-0.6
			c0.8,0,1.4,0.1,1.9,0.4c0.5,0.3,0.9,0.8,1.2,1.4c0.1,0.1,0,0.2-0.1,0.2L304,4.9c-0.1,0-0.2,0-0.2-0.1c-0.3-0.5-0.6-0.9-1-1.2
			c-0.4-0.3-0.9-0.4-1.6-0.4c-0.8,0-1.4,0.2-1.8,0.5c-0.4,0.3-0.6,0.8-0.6,1.3c0,0.3,0.1,0.5,0.2,0.7c0.1,0.2,0.2,0.4,0.4,0.5
			c0.1,0.1,0.4,0.2,0.6,0.3c0.3,0.1,0.5,0.1,0.7,0.2s0.5,0.1,0.8,0.1c0.3,0,0.5,0.1,0.7,0.1c0.2,0,0.4,0.1,0.7,0.2
			c0.3,0.1,0.5,0.2,0.6,0.3s0.3,0.2,0.5,0.4c0.2,0.2,0.3,0.4,0.3,0.6s0.1,0.5,0.1,0.8c0,0.8-0.3,1.4-0.8,1.8
			C303.1,11.4,302.3,11.6,301.2,11.6z"/>
		<path d="M306.5,11.4c-0.1,0-0.1-0.1-0.1-0.2V3c0-0.1,0-0.2,0.1-0.2h0.3c0.1,0,0.1,0.1,0.1,0.2v8.2c0,0.1,0,0.2-0.1,0.2H306.5z"/>
		<path d="M308.8,11.4c-0.1,0-0.1-0.1-0.1-0.2v-0.2c0-0.1,0-0.1,0.1-0.2l5-7.4h-4.9c-0.1,0-0.1,0-0.1-0.1V3c0-0.1,0-0.2,0.1-0.2h5.4
			c0.1,0,0.2,0.1,0.2,0.2v0.2c0,0.1,0,0.1-0.1,0.2l-5.1,7.5h5.1c0.1,0,0.2,0.1,0.2,0.2v0.2c0,0.1-0.1,0.2-0.2,0.2H308.8z"/>
		<path d="M316.4,11.4c-0.1,0-0.1-0.1-0.1-0.2V3c0-0.1,0-0.2,0.1-0.2h4.9c0.1,0,0.2,0.1,0.2,0.2v0.2c0,0.1-0.1,0.1-0.2,0.1h-4.5v3.4
			h4c0.1,0,0.2,0.1,0.2,0.2v0.2c0,0.1-0.1,0.2-0.2,0.2h-4v3.5h4.7c0.1,0,0.1,0,0.1,0.1v0.2c0,0.1,0,0.2-0.1,0.2H316.4z"/>
	</g>
</g>
</svg>
