<svg xmlns="http://www.w3.org/2000/svg" xmlns:xlink="http://www.w3.org/1999/xlink" viewBox="0 0 500 38.62"><defs><style>.cls-1{fill:url(#linear-gradient);}.cls-2{fill:#fff;}</style><linearGradient id="linear-gradient" y1="-389.5" x2="500" y2="-389.5" gradientTransform="matrix(1, 0, 0, -1, 0, -370.19)" gradientUnits="userSpaceOnUse"><stop offset="0" stop-color="#ededed"/><stop offset="1"/></linearGradient></defs><g id="Layer_2" data-name="Layer 2"><g id="Layer_1-2" data-name="Layer 1"><polygon class="cls-1" points="487.8 0 487.68 0 487.68 10.81 12.32 10.81 12.32 0 12.2 0 0 19.31 12.2 38.62 12.32 38.62 12.32 27.81 487.68 27.81 487.68 38.62 487.8 38.62 500 19.31 487.8 0"/><path class="cls-2" d="M202.27,23c-.1,0-.14-.05-.14-.16V14.61c0-.1,0-.15.14-.15h.26a.13.13,0,0,1,.15.15v8.21c0,.11-.05.16-.15.16Z"/><path class="cls-2" d="M205,23a.13.13,0,0,1-.14-.14V17.71a.76.76,0,0,1,.09-.41.92.92,0,0,1,.36-.25,6,6,0,0,1,2.18-.4A2.06,2.06,0,0,1,209.8,19v3.87a.13.13,0,0,1-.14.14h-.24a.13.13,0,0,1-.14-.14V19a1.64,1.64,0,0,0-1.86-1.85,4.82,4.82,0,0,0-1.81.32.38.38,0,0,0-.24.38v5c0,.09-.05.14-.15.14Z"/><path class="cls-2" d="M213.79,23a.21.21,0,0,1-.2-.15L211.08,17q-.06-.15.12-.15h.18a.23.23,0,0,1,.24.14l1.89,4.49c.06.13.12.3.2.51s.12.36.14.41h0A2.17,2.17,0,0,0,214,22c.07-.23.13-.39.17-.49L216.09,17a.24.24,0,0,1,.24-.13h.2a.31.31,0,0,1,.13,0,.2.2,0,0,1,0,.13l-2.51,5.89a.21.21,0,0,1-.21.15Z"/><path class="cls-2" d="M220.21,23.15a2.56,2.56,0,0,1-1.88-.63,2.32,2.32,0,0,1-.64-1.74V19.16a2.48,2.48,0,0,1,.67-1.84,2.63,2.63,0,0,1,1.93-.67,2.59,2.59,0,0,1,1.93.68,2.46,2.46,0,0,1,.67,1.81v.61a.25.25,0,0,1-.28.27h-4.4v.81a1.81,1.81,0,0,0,.51,1.37,2,2,0,0,0,1.49.5,2.2,2.2,0,0,0,2.12-1.17.16.16,0,0,1,.23-.06l.16.09c.09.05.11.12.05.22A2.65,2.65,0,0,1,220.21,23.15Zm-2-3.55h4.16v-.49a2,2,0,0,0-.53-1.46,2.49,2.49,0,0,0-3.1,0,1.94,1.94,0,0,0-.53,1.46Z"/><path class="cls-2" d="M226.81,23.15a2.43,2.43,0,0,1-2.55-1.51.13.13,0,0,1,.08-.2l.19-.06a.14.14,0,0,1,.19.09,2,2,0,0,0,2.08,1.22c1.25,0,1.88-.42,1.88-1.27a1,1,0,0,0-.45-.93,3.81,3.81,0,0,0-1.42-.34l-.53-.06a4.25,4.25,0,0,1-.48-.07,2.07,2.07,0,0,1-.47-.14,2,2,0,0,1-.37-.2,1,1,0,0,1-.32-.3,2.14,2.14,0,0,1-.17-.42,1.73,1.73,0,0,1-.08-.58,1.53,1.53,0,0,1,.58-1.27,2.82,2.82,0,0,1,1.72-.46A2.29,2.29,0,0,1,229.08,18a.13.13,0,0,1-.06.2l-.19.07a.17.17,0,0,1-.2-.06,1.7,1.7,0,0,0-.66-.8,2.46,2.46,0,0,0-1.28-.27c-1.19,0-1.79.42-1.79,1.25a1.23,1.23,0,0,0,.12.57.93.93,0,0,0,.26.36,1,1,0,0,0,.46.21,3.78,3.78,0,0,0,.52.11l.66.07a6.92,6.92,0,0,1,.89.13,2.67,2.67,0,0,1,.7.25,1.09,1.09,0,0,1,.52.52,1.77,1.77,0,0,1,.17.81,1.54,1.54,0,0,1-.6,1.29A3,3,0,0,1,226.81,23.15Z"/><path class="cls-2" d="M234,23a2.72,2.72,0,0,1-1.88-.49,2.58,2.58,0,0,1-.52-1.88V17.3h-1.3c-.05,0-.09,0-.1,0a.14.14,0,0,1,0-.11V17a.12.12,0,0,1,.13-.13h1.3V15.53c0-.09,0-.13.13-.13h.24c.1,0,.15,0,.15.13v1.31H234c.1,0,.15,0,.15.13v.2c0,.09-.05.13-.15.13h-1.9v3.3a2.11,2.11,0,0,0,.39,1.51,2.17,2.17,0,0,0,1.49.38c.1,0,.14,0,.14.14v.21A.12.12,0,0,1,234,23Z"/><path class="cls-2" d="M235.53,23a.13.13,0,0,1-.14-.14V17.71a.76.76,0,0,1,.09-.41.87.87,0,0,1,.35-.27,4.49,4.49,0,0,1,1.84-.38,2.11,2.11,0,0,1,1.63.58,4.75,4.75,0,0,1,2.23-.58,2,2,0,0,1,2.16,2.24v3.95a.12.12,0,0,1-.14.14h-.23a.13.13,0,0,1-.14-.14V18.91a1.9,1.9,0,0,0-.41-1.34,1.7,1.7,0,0,0-1.3-.43,3.81,3.81,0,0,0-1.89.49,2.35,2.35,0,0,1,.29,1.26v3.95a.13.13,0,0,1-.14.14h-.24a.13.13,0,0,1-.14-.14V18.91a1.81,1.81,0,0,0-.43-1.34,1.75,1.75,0,0,0-1.31-.43,3.41,3.41,0,0,0-1.45.28.42.42,0,0,0-.25.42v5c0,.09,0,.14-.15.14Z"/><path class="cls-2" d="M248,23.15a2.56,2.56,0,0,1-1.88-.63,2.32,2.32,0,0,1-.64-1.74V19.16a2.48,2.48,0,0,1,.67-1.84,2.63,2.63,0,0,1,1.93-.67,2.59,2.59,0,0,1,1.93.68,2.46,2.46,0,0,1,.67,1.81v.61a.25.25,0,0,1-.28.27H246v.81a1.81,1.81,0,0,0,.51,1.37,2,2,0,0,0,1.49.5,2.2,2.2,0,0,0,2.12-1.17.16.16,0,0,1,.23-.06l.16.09c.09.05.11.12.05.22A2.65,2.65,0,0,1,248,23.15Zm-2-3.55h4.16v-.49a2,2,0,0,0-.53-1.46,2.49,2.49,0,0,0-3.1,0,1.94,1.94,0,0,0-.53,1.46Z"/><path class="cls-2" d="M252.53,23c-.1,0-.15-.05-.15-.14V17.71a.76.76,0,0,1,.09-.41.92.92,0,0,1,.36-.25,6,6,0,0,1,2.18-.4A2.06,2.06,0,0,1,257.33,19v3.87a.13.13,0,0,1-.14.14H257a.13.13,0,0,1-.14-.14V19A1.64,1.64,0,0,0,255,17.14a4.82,4.82,0,0,0-1.81.32.38.38,0,0,0-.24.38v5c0,.09-.05.14-.15.14Z"/><path class="cls-2" d="M262.28,23a2.72,2.72,0,0,1-1.88-.49,2.58,2.58,0,0,1-.52-1.88V17.3h-1.29c-.06,0-.1,0-.11,0a.14.14,0,0,1,0-.11V17c0-.09.05-.13.14-.13h1.29V15.53a.12.12,0,0,1,.13-.13h.24c.1,0,.15,0,.15.13v1.31h1.91c.09,0,.14,0,.14.13v.2c0,.09-.05.13-.14.13H260.4v3.3a2.11,2.11,0,0,0,.39,1.51,2.19,2.19,0,0,0,1.49.38c.1,0,.15,0,.15.14v.21C262.43,22.93,262.38,23,262.28,23Z"/><path class="cls-2" d="M269.06,23c-.09,0-.14-.05-.14-.16V15h-2.7a.13.13,0,0,1-.15-.15v-.22a.13.13,0,0,1,.15-.15h5.94c.09,0,.14,0,.14.15v.22c0,.1-.05.15-.14.15h-2.69v7.84a.14.14,0,0,1-.16.16Z"/><path class="cls-2" d="M273.71,15.23a.25.25,0,0,1-.32-.32v-.07a.38.38,0,0,1,.06-.25.39.39,0,0,1,.26-.06h.06a.38.38,0,0,1,.25.06.33.33,0,0,1,.07.25v.07c0,.13,0,.22-.07.26a.38.38,0,0,1-.25.06ZM273.62,23a.13.13,0,0,1-.14-.14V17c0-.09,0-.13.14-.13h.24c.09,0,.13,0,.13.13v5.87c0,.09,0,.14-.13.14Z"/><path class="cls-2" d="M278.39,23.15a2.64,2.64,0,0,1-1.89-.62,2.22,2.22,0,0,1-.65-1.71V19a2.22,2.22,0,0,1,.66-1.71,2.68,2.68,0,0,1,1.91-.62,2.83,2.83,0,0,1,1.64.42,2.27,2.27,0,0,1,.82,1.23.13.13,0,0,1-.08.2l-.21.07a.13.13,0,0,1-.19-.09,1.86,1.86,0,0,0-.67-1,2.25,2.25,0,0,0-1.33-.33,2.08,2.08,0,0,0-1.51.49,1.73,1.73,0,0,0-.52,1.35v1.87a1.78,1.78,0,0,0,.53,1.36,2.1,2.1,0,0,0,1.5.49,2.29,2.29,0,0,0,1.34-.35,1.92,1.92,0,0,0,.69-1.08.14.14,0,0,1,.2-.1l.2.08a.13.13,0,0,1,.1.19A2.37,2.37,0,0,1,278.39,23.15Z"/><path class="cls-2" d="M282.77,23c-.1,0-.15-.05-.15-.14v-8.6c0-.09.05-.14.15-.14H283c.1,0,.15.05.15.14v5.33h1.57l2.08-2.63a.33.33,0,0,1,.28-.1h.21q.21,0,.09.15l-2.13,2.68a1.57,1.57,0,0,1,1.13,1l1.09,2.19c.05.11,0,.16-.09.16h-.22a.23.23,0,0,1-.23-.12l-1-2a1.46,1.46,0,0,0-.5-.6,1.35,1.35,0,0,0-.77-.19h-1.51v2.79c0,.09-.05.14-.15.14Z"/><path class="cls-2" d="M291.23,23.15a2.58,2.58,0,0,1-1.89-.63,2.35,2.35,0,0,1-.63-1.74V19.16a2.51,2.51,0,0,1,.66-1.84,2.65,2.65,0,0,1,1.94-.67,2.61,2.61,0,0,1,1.93.68,2.46,2.46,0,0,1,.66,1.81v.61a.24.24,0,0,1-.27.27h-4.41v.81a1.81,1.81,0,0,0,.51,1.37,2,2,0,0,0,1.5.5,2.21,2.21,0,0,0,2.12-1.17.16.16,0,0,1,.23-.06l.15.09c.1.05.12.12,0,.22A2.63,2.63,0,0,1,291.23,23.15Zm-2-3.55h4.17v-.49a2,2,0,0,0-.53-1.46,2.49,2.49,0,0,0-3.1,0,2,2,0,0,0-.54,1.46Z"/><path class="cls-2" d="M298.62,23a2.77,2.77,0,0,1-1.89-.49,2.63,2.63,0,0,1-.51-1.88V17.3h-1.3c-.05,0-.09,0-.11,0a.23.23,0,0,1,0-.11V17c0-.09,0-.13.13-.13h1.3V15.53c0-.09,0-.13.13-.13h.24c.1,0,.14,0,.14.13v1.31h1.91c.1,0,.15,0,.15.13v.2c0,.09-.05.13-.15.13h-1.91v3.3a2.11,2.11,0,0,0,.39,1.51,2.2,2.2,0,0,0,1.5.38.12.12,0,0,1,.14.14v.21A.13.13,0,0,1,298.62,23Z"/></g></g></svg>