<svg xmlns="http://www.w3.org/2000/svg" viewBox="0 0 594.24 282.68"><defs><style>.cls-1{fill:#fff;}</style></defs><g id="Layer_2" data-name="Layer 2"><g id="Layer_1-2" data-name="Layer 1"><polygon class="cls-1" points="236.06 177 211.69 137.4 157.91 50 204.5 50 265.98 149.89 327.45 50 373.05 50 319.27 137.4 294.89 177 356.39 177 465.32 0 296.72 0 265.98 49.96 235.23 0 65.63 0 174.56 177 236.06 177"/><path class="cls-1" d="M13.82,281.74c-1,0-1.51-.36-1.69-1.07L.05,235.44c-.18-.85.11-1.28.88-1.28h2.7c1,0,1.57.38,1.75,1.14l8.3,32.43c.18.81.42,2.17.71,4.09s.46,3,.51,3.15h.27q.87-5.3,1.41-7.17l9-31.69a1.65,1.65,0,0,1,1.82-1.21h2.09a1.55,1.55,0,0,1,1.75,1.21l8.91,31.76c.32,1.07.81,3.44,1.49,7.1h.27c.4-2.9.81-5.27,1.21-7.1l8.23-32.57c.18-.76.77-1.14,1.76-1.14h2.36c.85,0,1.15.43.88,1.28L44.25,280.6a1.51,1.51,0,0,1-1.69,1.14H40.47a1.62,1.62,0,0,1-1.76-1.07l-9-32.43a46.39,46.39,0,0,1-1.28-6.64h-.27a51.88,51.88,0,0,1-1.42,6.57l-9,32.43a1.6,1.6,0,0,1-1.75,1.14Z"/><path class="cls-1" d="M66.18,281.74c-.86,0-1.29-.45-1.29-1.34V235.5c0-.89.43-1.34,1.29-1.34H93.57c.85,0,1.28.45,1.28,1.34v1.88a1.44,1.44,0,0,1-.27,1,1.48,1.48,0,0,1-1,.26H69.75v16.69H90.54c.85,0,1.28.45,1.28,1.34v1.87c0,.9-.43,1.34-1.28,1.34H69.75v17.36H94.38a1.6,1.6,0,0,1,1.05.27,1.31,1.31,0,0,1,.3,1v1.88a1.45,1.45,0,0,1-.3,1,1.48,1.48,0,0,1-1.05.3Z"/><path class="cls-1" d="M106.59,281.74c-.85,0-1.28-.45-1.28-1.34V235.5c0-.89.43-1.34,1.28-1.34h2.23a1.56,1.56,0,0,1,1.35.67l21,30.09c1,1.52,2.22,3.48,3.55,5.9s2.14,3.84,2.46,4.28h.2c0-.49-.12-2.18-.37-5.09s-.37-5.38-.37-7.44V235.44a1.44,1.44,0,0,1,.27-1,1.42,1.42,0,0,1,1-.27h2.09a1.46,1.46,0,0,1,1.05.31,1.42,1.42,0,0,1,.3,1v44.9a1.12,1.12,0,0,1-1.35,1.34H137.9a1.48,1.48,0,0,1-1.41-.74L115,250.31a59.65,59.65,0,0,1-3.17-5.49,42.51,42.51,0,0,0-2.29-4.09h-.21c0,.36.13,1.94.37,4.76s.38,5.16.38,7V280.4a1.13,1.13,0,0,1-1.35,1.34Z"/><path class="cls-1" d="M168.33,281.74a1.55,1.55,0,0,1-1.68-1.07l-17.48-45.23c-.27-.85,0-1.28.88-1.28h2c1.35,0,2.14.38,2.36,1.14l13.3,35.25c.22.62.44,1.33.67,2.11s.42,1.5.57,2.14a8.56,8.56,0,0,0,.31,1.11h.27a22.16,22.16,0,0,0,.64-2.18c.34-1.27.64-2.31.91-3.11l13.23-35.32c.22-.76,1-1.14,2.36-1.14h1.95c.9,0,1.17.43.81,1.28L172,280.6a1.68,1.68,0,0,1-1.68,1.14Z"/><path class="cls-1" d="M198.56,281.74c-.85,0-1.28-.45-1.28-1.34V235.5c0-.89.43-1.34,1.28-1.34H226c.85,0,1.28.45,1.28,1.34v1.88a1.44,1.44,0,0,1-.27,1,1.5,1.5,0,0,1-1,.26H202.14v16.69h20.78c.85,0,1.28.45,1.28,1.34v1.87c0,.9-.43,1.34-1.28,1.34H202.14v17.36h24.63a1.56,1.56,0,0,1,1,.27,1.31,1.31,0,0,1,.31,1v1.88a1.13,1.13,0,0,1-1.35,1.34Z"/><path class="cls-1" d="M253.49,282.68c-4.82,0-8.67-.94-11.58-2.82a17.82,17.82,0,0,1-6.71-8.71,1.33,1.33,0,0,1,.81-1.81l2.09-.73a1.42,1.42,0,0,1,1.05-.11,2.13,2.13,0,0,1,.64.91q3.84,8.71,13.7,8.71,13.42,0,13.42-9.38a7.26,7.26,0,0,0-.77-3.45,7.5,7.5,0,0,0-1.86-2.31,9.11,9.11,0,0,0-3-1.48,22.7,22.7,0,0,0-3.48-.83c-1-.16-2.38-.33-4-.51s-3.23-.42-4.29-.6-2.38-.46-4-.84a13.13,13.13,0,0,1-3.85-1.47,19.46,19.46,0,0,1-2.9-2.25,7.91,7.91,0,0,1-2.12-3.38,14.84,14.84,0,0,1-.68-4.66,12.19,12.19,0,0,1,4.59-10q4.59-3.72,12.82-3.72,6.81,0,11,2.48a18.06,18.06,0,0,1,6.78,7.84c.4.76.15,1.34-.74,1.74l-2.1.94a1.5,1.5,0,0,1-1,.13,1.93,1.93,0,0,1-.74-.8,14.1,14.1,0,0,0-5.1-5.83,15.29,15.29,0,0,0-8.06-1.88q-6,0-9.21,2.28a7.55,7.55,0,0,0-3.2,6.56,7,7,0,0,0,2.8,5.83A10.71,10.71,0,0,0,247,254a28,28,0,0,0,3.68.91c1.08.18,2.5.35,4.25.53,2,.23,3.62.46,4.93.71a28.75,28.75,0,0,1,4.45,1.27,11.86,11.86,0,0,1,4,2.21,10.82,10.82,0,0,1,2.5,3.59,12.81,12.81,0,0,1,1,5.36c0,4.46-1.56,7.93-4.69,10.38S259.42,282.68,253.49,282.68Z"/><path class="cls-1" d="M293.57,281.74a1.35,1.35,0,0,1-1-.3,1.56,1.56,0,0,1-.27-1V238.65h-14a1.66,1.66,0,0,1-1.05-.26,1.34,1.34,0,0,1-.3-1V235.5a1.42,1.42,0,0,1,.3-1,1.48,1.48,0,0,1,1.05-.31h32.86a1.5,1.5,0,0,1,1.05.31,1.42,1.42,0,0,1,.3,1v1.88a1.34,1.34,0,0,1-.3,1,1.68,1.68,0,0,1-1.05.26h-14V280.4a1.12,1.12,0,0,1-1.35,1.34Z"/><path class="cls-1" d="M353.49,282.68q-8.91,0-13.7-4.46T335,265.86V250q0-7.9,4.75-12.36t13.74-4.45q7.54,0,11.84,2.84a15.52,15.52,0,0,1,6.1,8.61,1.5,1.5,0,0,1,.1,1.11,1.47,1.47,0,0,1-.91.64l-2.09.67a1.74,1.74,0,0,1-1,.06c-.25-.09-.47-.38-.65-.87a12.07,12.07,0,0,0-4.58-6.5c-2.07-1.38-5-2.07-8.77-2.07q-6.62,0-10.09,3.21t-3.48,9v16q0,5.76,3.51,9t10.06,3.25q5.79,0,8.9-2.15a12.15,12.15,0,0,0,4.52-6.7,1.29,1.29,0,0,1,1.76-.8l2,.74a1.2,1.2,0,0,1,.88,1.67,16,16,0,0,1-6.14,8.78Q361.11,282.67,353.49,282.68Z"/><path class="cls-1" d="M377.1,281.74c-.94,0-1.24-.43-.88-1.27l18.09-45.37A1.62,1.62,0,0,1,396,234h2A1.54,1.54,0,0,1,399.7,235l18.09,45.43c.36.84.07,1.27-.88,1.27h-2q-2.08,0-2.43-1.14l-5.06-12.8H386.34l-5.06,12.8a1.56,1.56,0,0,1-.74.9,4.11,4.11,0,0,1-1.69.24Zm10.66-18h18.35L398,243.21a13.86,13.86,0,0,1-.54-2.11c-.13-.74-.25-1.35-.34-1.84l-.06-.74h-.27l-.07.74c-.05.49-.14,1.09-.27,1.81a17.45,17.45,0,0,1-.54,2.07Z"/><path class="cls-1" d="M427,281.74c-.85,0-1.28-.45-1.28-1.34V235.5c0-.89.43-1.34,1.28-1.34h18.09q7.08,0,11.16,4T460.3,249c0,4.65-1.36,8.27-4.09,10.89s-6.44,3.92-11.16,3.92H430.54V280.4c0,.89-.43,1.34-1.28,1.34Zm3.58-22.38h14.1a10.68,10.68,0,0,0,7.76-2.75,10,10,0,0,0,2.84-7.57,10.15,10.15,0,0,0-2.84-7.64,10.68,10.68,0,0,0-7.76-2.75h-14.1Z"/><path class="cls-1" d="M470.69,281.74c-.86,0-1.28-.45-1.28-1.34V235.5c0-.89.42-1.34,1.28-1.34H473c.86,0,1.28.45,1.28,1.34v44.9c0,.89-.42,1.34-1.28,1.34Z"/><path class="cls-1" d="M498.83,281.74a1.35,1.35,0,0,1-1-.3,1.56,1.56,0,0,1-.27-1V238.65h-14a1.66,1.66,0,0,1-1.05-.26,1.34,1.34,0,0,1-.3-1V235.5a1.42,1.42,0,0,1,.3-1,1.48,1.48,0,0,1,1.05-.31h32.86a1.45,1.45,0,0,1,1,.31,1.38,1.38,0,0,1,.31,1v1.88a1.3,1.3,0,0,1-.31,1,1.63,1.63,0,0,1-1,.26h-14V280.4a1.12,1.12,0,0,1-1.35,1.34Z"/><path class="cls-1" d="M516.64,281.74c-.95,0-1.24-.43-.88-1.27l18.09-45.37a1.62,1.62,0,0,1,1.68-1.14h2a1.54,1.54,0,0,1,1.68,1.08l18.09,45.43c.36.84.06,1.27-.88,1.27h-2q-2.09,0-2.43-1.14L547,267.8H525.88l-5.06,12.8a1.6,1.6,0,0,1-.74.9,4.11,4.11,0,0,1-1.69.24Zm10.66-18h18.35l-8.16-20.57a13.86,13.86,0,0,1-.54-2.11c-.14-.74-.25-1.35-.34-1.84l-.07-.74h-.27l-.06.74c-.05.49-.14,1.09-.27,1.81a17.45,17.45,0,0,1-.54,2.07Z"/><path class="cls-1" d="M566.5,281.74c-.85,0-1.28-.45-1.28-1.34V235.5c0-.89.43-1.34,1.28-1.34h2.3c.85,0,1.28.45,1.28,1.34v41.75H593a1.45,1.45,0,0,1,1,.27,1.41,1.41,0,0,1,.27,1v1.88c0,.89-.43,1.34-1.29,1.34Z"/></g></g></svg>